<svg width="224" height="96" viewBox="0 0 224 96" fill="none" xmlns="http://www.w3.org/2000/svg">
<g clip-path="url(#clip0_1467_330)">
<path d="M49.9049 50.1991L48.7455 52.4822C48.489 53.0176 47.5451 52.642 47.8016 52.067L52.1108 43.4619C52.1568 43.378 52.2241 43.3081 52.3059 43.2594C52.3876 43.2107 52.4807 43.1851 52.5756 43.1851C52.6704 43.1851 52.7635 43.2107 52.8453 43.2594C52.927 43.3081 52.9943 43.378 53.0403 43.4619L57.3495 52.0235C57.723 52.6461 56.6642 53.0073 56.3913 52.4386L55.277 50.197L49.9049 50.1991ZM52.593 44.7363L50.3358 49.3024H54.8399L52.593 44.7363Z" fill="white"/>
<path d="M58.6551 52.6235C58.2693 52.6235 58.1113 52.4346 58.1113 52.088V43.7859C58.1113 43.1072 59.1702 43.1072 59.1702 43.7859V51.6729H64.5177C65.2482 51.6729 65.2482 52.6276 64.5177 52.6276L58.6551 52.6235Z" fill="white"/>
<path d="M71.8966 52.2682C71.2251 52.59 70.495 52.7673 69.7523 52.7891C67.3063 52.7891 65.1045 50.7634 65.1045 47.8992C65.0938 46.7903 65.4789 45.7148 66.189 44.8699C66.8992 44.0251 67.8867 43.4676 68.9704 43.2998C70.6449 43.0694 72.1018 43.4887 73.2324 44.6884C73.6613 45.1803 72.8898 45.7739 72.4896 45.3401C71.517 44.3023 70.3863 44.1383 69.1284 44.2836C67.3699 44.5576 66.1264 45.8174 66.1264 47.9137C66.1346 50.1117 67.807 51.7929 69.7912 51.7929C70.3679 51.7833 70.9348 51.6414 71.4493 51.3778C71.9025 51.1411 72.3017 50.8109 72.621 50.4085C72.9513 49.9166 73.8234 50.4521 73.452 50.9876C73.0462 51.538 72.5118 51.978 71.8966 52.2682Z" fill="white"/>
<path d="M75.9 47.727H81.1614V43.7835C81.1614 43.0903 82.2058 43.0903 82.2058 43.7835V52.2081C82.2103 52.2802 82.2001 52.3526 82.1759 52.4206C82.1517 52.4886 82.1139 52.5509 82.065 52.6036C82.0161 52.6563 81.957 52.6982 81.8914 52.727C81.8258 52.7557 81.7551 52.7705 81.6836 52.7705C81.6121 52.7705 81.5414 52.7557 81.4758 52.727C81.4102 52.6982 81.3511 52.6563 81.3022 52.6036C81.2533 52.5509 81.2155 52.4886 81.1913 52.4206C81.1671 52.3526 81.1569 52.2802 81.1614 52.2081V48.6382H75.9V52.2081C75.9 52.9594 74.874 52.8723 74.874 52.2081V43.7773C74.874 43.0695 75.9 43.1131 75.9 43.7773V47.727Z" fill="white"/>
<path d="M84.6933 51.6751H90.3425C90.9437 51.6751 91.0278 52.6298 90.3425 52.6298H84.3219C84.2364 52.6356 84.1507 52.6233 84.0702 52.5937C83.9898 52.5641 83.9163 52.5178 83.8545 52.4579C83.7927 52.3979 83.7439 52.3255 83.7113 52.2454C83.6787 52.1653 83.663 52.0792 83.6652 51.9926V44.0537C83.6651 43.9683 83.6822 43.8838 83.7157 43.8055C83.7492 43.7271 83.7982 43.6565 83.8598 43.5981C83.9214 43.5397 83.9942 43.4947 84.0737 43.466C84.1532 43.4373 84.2377 43.4254 84.3219 43.4311H90.3568C90.9724 43.4311 90.9437 44.3568 90.3425 44.3568H84.6933V47.6112H90.0716C90.6421 47.6112 90.6708 48.5369 90.0716 48.5369H84.6933V51.6751Z" fill="white"/>
<path d="M100.036 43.6467C100.366 43.1278 101.023 43.3001 101.023 43.9082V52.2394C101.023 52.9326 99.9803 52.9326 99.9803 52.2394V45.6579L97.0624 50.2718C97.0176 50.3657 96.9475 50.4449 96.8602 50.5004C96.7729 50.5558 96.6719 50.5852 96.5689 50.5852C96.4658 50.5852 96.3648 50.5558 96.2775 50.5004C96.1902 50.4449 96.1201 50.3657 96.0754 50.2718L93.1595 45.6724V52.2394C93.1595 52.9326 92.115 52.9326 92.115 52.2394V43.9061C92.115 43.2835 92.8004 43.1257 93.0876 43.6446L96.576 49.1427L100.036 43.6467Z" fill="white"/>
<path d="M102.738 43.6194C102.738 42.895 103.811 42.9095 103.811 43.6194V52.2681C103.811 52.9323 102.738 52.9613 102.738 52.2681V43.6194Z" fill="white"/>
<path d="M105.555 50.34C105.927 51.5397 107.515 51.7929 108.658 51.7929C109.873 51.7929 111.761 51.4172 111.761 49.956C111.761 48.6962 110.261 48.5966 108.683 48.4658C106.709 48.306 104.593 48.1192 104.593 45.9627C104.593 44.0553 106.766 43.2002 108.51 43.2002C110.012 43.2002 111.886 43.5634 112.487 45.2114C112.692 45.7905 111.728 46.0416 111.514 45.558C111.086 44.46 109.555 44.2712 108.525 44.2712C107.566 44.2712 105.709 44.6614 105.709 45.9773C105.709 47.2371 107.146 47.3658 108.798 47.4965C110.755 47.6709 112.858 47.7705 112.858 49.9415C112.858 52.154 110.412 52.8348 108.654 52.8348C107.195 52.8348 104.96 52.3284 104.492 50.5911C104.326 49.9685 105.44 49.7506 105.555 50.34Z" fill="white"/>
<path d="M120.156 43.4161C120.223 43.4117 120.291 43.4213 120.355 43.4444C120.418 43.4675 120.477 43.5036 120.526 43.5503C120.575 43.5971 120.615 43.6536 120.641 43.7164C120.668 43.7792 120.682 43.8468 120.682 43.9152C120.682 43.9836 120.668 44.0513 120.641 44.1141C120.615 44.1768 120.575 44.2334 120.526 44.2801C120.477 44.3269 120.418 44.363 120.355 44.3861C120.291 44.4092 120.223 44.4188 120.156 44.4144H116.967C116.967 47.0171 116.981 49.6634 116.981 52.2682C116.981 52.3398 116.967 52.4106 116.94 52.4765C116.912 52.5425 116.872 52.6022 116.821 52.6521C116.771 52.702 116.71 52.7411 116.645 52.7672C116.579 52.7932 116.508 52.8056 116.438 52.8037C116.368 52.8049 116.3 52.7918 116.236 52.7651C116.172 52.7384 116.114 52.6988 116.066 52.6486C116.017 52.5984 115.98 52.5388 115.955 52.4734C115.931 52.408 115.919 52.3381 115.923 52.2682V44.4144H112.748C112.681 44.4188 112.613 44.4092 112.549 44.3861C112.486 44.363 112.427 44.3269 112.378 44.2801C112.329 44.2334 112.289 44.1768 112.262 44.1141C112.236 44.0513 112.222 43.9836 112.222 43.9152C112.222 43.8468 112.236 43.7792 112.262 43.7164C112.289 43.6536 112.329 43.5971 112.378 43.5503C112.427 43.5036 112.486 43.4675 112.549 43.4444C112.613 43.4213 112.681 43.4117 112.748 43.4161H120.156Z" fill="white"/>
<path d="M125.195 50.0415L123.923 52.6006C123.89 52.6489 123.84 52.6829 123.783 52.6962C123.726 52.7094 123.666 52.7009 123.615 52.6723C123.564 52.6436 123.526 52.5969 123.507 52.5412C123.488 52.4854 123.49 52.4245 123.513 52.3702L128.06 43.3001C128.08 43.2604 128.111 43.2273 128.149 43.2045C128.188 43.1818 128.231 43.1703 128.275 43.1715C128.319 43.1682 128.362 43.1789 128.399 43.2021C128.436 43.2252 128.464 43.2595 128.481 43.3001L133.042 52.3702C133.065 52.4245 133.067 52.4854 133.048 52.5412C133.029 52.5969 132.991 52.6436 132.94 52.6723C132.889 52.7009 132.829 52.7094 132.772 52.6962C132.715 52.6829 132.665 52.6489 132.632 52.6006L131.36 50.0415H125.195ZM128.273 43.8792L125.401 49.6077H131.105L128.273 43.8792Z" fill="white"/>
<path d="M139.764 52.2686C139.041 52.6497 138.231 52.831 137.416 52.7943C136.602 52.7575 135.811 52.504 135.124 52.0594C134.437 51.6147 133.878 50.9946 133.504 50.2617C133.13 49.5288 132.953 48.709 132.993 47.8851C133.05 45.4422 134.593 43.6468 136.838 43.2857C138.527 43.0782 139.871 43.3438 141.1 44.6742C141.305 44.9357 140.971 45.1952 140.757 44.9648C139.598 43.6904 138.469 43.5763 136.91 43.7631C134.895 44.0806 133.508 45.5563 133.45 47.8996C133.422 48.6397 133.586 49.3742 133.926 50.0304C134.265 50.6865 134.769 51.2414 135.386 51.64C136.003 52.0387 136.712 52.2671 137.444 52.3027C138.175 52.3384 138.903 52.1799 139.555 51.8431C140.078 51.5749 140.538 51.1946 140.901 50.7285C140.917 50.7 140.939 50.6752 140.966 50.6558C140.992 50.6364 141.022 50.6229 141.054 50.6161C141.086 50.6093 141.119 50.6094 141.151 50.6164C141.183 50.6234 141.213 50.6371 141.239 50.6567C141.266 50.6762 141.287 50.7011 141.304 50.7298C141.32 50.7585 141.33 50.7903 141.333 50.8231C141.336 50.856 141.332 50.8891 141.322 50.9204C141.311 50.9516 141.295 50.9803 141.272 51.0046C140.882 51.5464 140.363 51.9809 139.764 52.2686Z" fill="white"/>
<path d="M148.588 52.2681C147.865 52.6485 147.055 52.8293 146.241 52.7923C145.426 52.7552 144.636 52.5017 143.949 52.0571C143.262 51.6126 142.704 50.9928 142.329 50.2603C141.955 49.5277 141.778 48.7083 141.817 47.8846C141.874 45.4417 143.419 43.6464 145.664 43.2852C147.351 43.0777 148.695 43.3433 149.924 44.6737C150.129 44.9353 149.797 45.1947 149.581 44.9643C148.424 43.6899 147.293 43.5758 145.736 43.7626C143.719 44.0801 142.332 45.5558 142.274 47.8991C142.247 48.6392 142.411 49.3738 142.751 50.0298C143.091 50.6859 143.594 51.2407 144.211 51.6393C144.829 52.0378 145.538 52.2663 146.27 52.3019C147.001 52.3376 147.729 52.1793 148.381 51.8426C148.904 51.575 149.363 51.1945 149.725 50.7281C149.741 50.6995 149.763 50.6747 149.79 50.6553C149.816 50.6359 149.846 50.6224 149.878 50.6156C149.91 50.6089 149.943 50.609 149.975 50.6159C150.007 50.6229 150.037 50.6366 150.063 50.6562C150.09 50.6757 150.112 50.7006 150.128 50.7293C150.144 50.758 150.154 50.7898 150.157 50.8226C150.16 50.8555 150.156 50.8886 150.146 50.9199C150.135 50.9511 150.119 50.9798 150.097 51.0041C149.706 51.5464 149.188 51.981 148.588 52.2681Z" fill="white"/>
<path d="M151.683 52.1668H158.005C158.062 52.1723 158.115 52.199 158.154 52.2418C158.192 52.2846 158.213 52.3404 158.213 52.3983C158.213 52.4561 158.192 52.5119 158.154 52.5547C158.115 52.5975 158.062 52.6242 158.005 52.6297H151.599C151.548 52.6311 151.497 52.622 151.449 52.6029C151.402 52.5838 151.358 52.5552 151.322 52.5187C151.286 52.4822 151.257 52.4386 151.238 52.3906C151.219 52.3426 151.21 52.2912 151.211 52.2395V43.8066C151.211 43.7559 151.222 43.7058 151.241 43.6593C151.261 43.6127 151.29 43.5706 151.326 43.5356C151.362 43.5005 151.405 43.4732 151.452 43.4552C151.499 43.4373 151.549 43.429 151.599 43.4309H158.028C158.085 43.4329 158.138 43.4576 158.177 43.4996C158.216 43.5416 158.237 43.5976 158.235 43.6551C158.233 43.7126 158.209 43.767 158.167 43.8063C158.126 43.8457 158.07 43.8667 158.013 43.8647H151.683V47.8497H157.718C157.775 47.8497 157.829 47.8726 157.87 47.9133C157.91 47.9539 157.932 48.0091 157.932 48.0666C157.932 48.1242 157.91 48.1793 157.87 48.22C157.829 48.2607 157.775 48.2835 157.718 48.2835H151.683V52.1668Z" fill="white"/>
<path d="M159.905 52.6232C159.72 52.6232 159.648 52.5215 159.648 52.3493V43.6051C159.645 43.5709 159.649 43.5364 159.66 43.5038C159.671 43.4713 159.688 43.4413 159.711 43.416C159.734 43.3906 159.762 43.3703 159.793 43.3565C159.824 43.3426 159.858 43.3354 159.892 43.3354C159.926 43.3354 159.959 43.3426 159.99 43.3565C160.021 43.3703 160.049 43.3906 160.072 43.416C160.095 43.4413 160.112 43.4713 160.123 43.5038C160.134 43.5364 160.138 43.5709 160.135 43.6051V52.1811H166.141C166.2 52.1811 166.256 52.2048 166.298 52.2468C166.339 52.2888 166.363 52.3458 166.363 52.4053C166.363 52.4647 166.339 52.5218 166.298 52.5638C166.256 52.6058 166.2 52.6294 166.141 52.6294L159.905 52.6232Z" fill="white"/>
<path d="M167.626 52.1668H173.947C174.004 52.1722 174.056 52.199 174.095 52.2418C174.133 52.2846 174.155 52.3403 174.155 52.3982C174.155 52.456 174.133 52.5118 174.095 52.5546C174.056 52.5974 174.004 52.6241 173.947 52.6296H167.54C167.489 52.631 167.438 52.6219 167.391 52.6028C167.343 52.5837 167.3 52.555 167.264 52.5185C167.228 52.482 167.2 52.4384 167.181 52.3904C167.162 52.3424 167.153 52.291 167.154 52.2394V43.8065C167.155 43.756 167.165 43.7061 167.185 43.6597C167.204 43.6133 167.233 43.5713 167.269 43.5363C167.305 43.5013 167.347 43.4739 167.394 43.4558C167.441 43.4377 167.49 43.4292 167.54 43.4309H173.961C174.018 43.4328 174.072 43.4575 174.11 43.4995C174.149 43.5416 174.17 43.5975 174.168 43.655C174.166 43.7126 174.142 43.767 174.1 43.8063C174.059 43.8456 174.003 43.8666 173.947 43.8647H167.626V47.8497H173.661C173.718 47.8497 173.773 47.8725 173.813 47.9132C173.853 47.9539 173.876 48.009 173.876 48.0666C173.876 48.1241 173.853 48.1793 173.813 48.2199C173.773 48.2606 173.718 48.2835 173.661 48.2835H167.626V52.1668Z" fill="white"/>
<path d="M176.048 49.2298V52.4261C176.049 52.4575 176.044 52.4887 176.033 52.518C176.022 52.5473 176.005 52.5742 175.984 52.597C175.963 52.6199 175.938 52.6382 175.909 52.6511C175.881 52.664 175.85 52.6711 175.819 52.6721C175.788 52.673 175.758 52.6678 175.729 52.6567C175.7 52.6456 175.673 52.6288 175.651 52.6073C175.628 52.5858 175.61 52.56 175.597 52.5314C175.584 52.5028 175.577 52.472 175.576 52.4406V43.6612C175.575 43.6285 175.581 43.596 175.593 43.5656C175.604 43.5352 175.622 43.5076 175.645 43.4846C175.668 43.4616 175.696 43.4437 175.726 43.4319C175.756 43.4201 175.788 43.4148 175.821 43.4163H179.424C181.831 43.4163 183.062 44.7902 183.062 46.4237C183.062 47.9866 182.036 49.0866 179.945 49.2443L182.904 52.3265C183.134 52.5714 182.832 52.889 182.604 52.6586L179.395 49.2298H176.048ZM176.048 48.8147H179.438C181.654 48.8147 182.613 47.7458 182.584 46.4278C182.57 45.0103 181.396 43.8687 179.438 43.8687H176.048V48.8147Z" fill="white"/>
<path d="M184.829 50.0415L183.554 52.6006C183.521 52.6489 183.471 52.6829 183.414 52.6962C183.357 52.7094 183.298 52.7009 183.247 52.6723C183.196 52.6436 183.157 52.5969 183.138 52.5412C183.119 52.4854 183.121 52.4245 183.144 52.3702L187.691 43.3001C187.712 43.2604 187.743 43.2273 187.781 43.2045C187.819 43.1818 187.863 43.1703 187.907 43.1715C187.95 43.1682 187.993 43.1789 188.03 43.2021C188.067 43.2252 188.096 43.2595 188.112 43.3001L192.671 52.3702C192.694 52.4245 192.696 52.4854 192.677 52.5412C192.659 52.5969 192.62 52.6436 192.569 52.6723C192.518 52.7009 192.458 52.7094 192.401 52.6962C192.345 52.6829 192.295 52.6489 192.261 52.6006L190.989 50.0415H184.829ZM187.907 43.8792L185.046 49.6077H190.753L187.907 43.8792Z" fill="white"/>
<path d="M199.098 43.416C199.441 43.416 199.441 43.8498 199.098 43.8498H195.405L195.419 52.4114C195.421 52.4467 195.416 52.4821 195.404 52.5154C195.392 52.5487 195.373 52.5792 195.349 52.605C195.325 52.6308 195.296 52.6514 195.264 52.6656C195.232 52.6797 195.198 52.6872 195.163 52.6874C195.128 52.6867 195.094 52.6788 195.063 52.6643C195.032 52.6498 195.004 52.629 194.981 52.6031C194.958 52.5772 194.941 52.5468 194.93 52.5138C194.919 52.4808 194.915 52.446 194.918 52.4114V43.8498H191.225C190.882 43.8498 190.882 43.416 191.225 43.416H199.098Z" fill="white"/>
<path d="M199.026 47.8703C199.098 45.6287 200.463 43.6466 202.72 43.2854C203.232 43.2128 203.752 43.2128 204.265 43.2854C206.522 43.6466 208.067 45.6287 208.125 47.8703C208.211 50.6619 206.073 52.8038 203.578 52.8038C201.082 52.8038 198.954 50.6619 199.026 47.8703ZM199.513 47.8848C199.441 50.3754 201.359 52.3555 203.573 52.3555C205.788 52.3555 207.721 50.3734 207.649 47.8848C207.591 45.8612 206.212 44.0679 204.189 43.7483C203.725 43.6757 203.252 43.6757 202.788 43.7483C200.77 44.0679 199.57 45.8612 199.513 47.8848Z" fill="white"/>
<path d="M209.98 49.2298V52.4261C209.982 52.4894 209.959 52.5509 209.916 52.597C209.873 52.6432 209.814 52.6701 209.751 52.6721C209.689 52.674 209.628 52.6507 209.582 52.6073C209.537 52.5639 209.51 52.504 209.508 52.4407V43.6612C209.507 43.6286 209.512 43.5961 209.524 43.5657C209.535 43.5353 209.553 43.5078 209.576 43.4847C209.599 43.4617 209.626 43.4437 209.656 43.4319C209.686 43.4201 209.718 43.4148 209.75 43.4163H213.354C215.771 43.4163 217 44.7903 217 46.4237C217 47.9866 215.974 49.0866 213.883 49.2443L216.844 52.3265C217.072 52.5714 216.772 52.889 216.544 52.6586L213.327 49.2298H209.98ZM209.98 48.8147H213.368C215.586 48.8147 216.544 47.7458 216.516 46.4278C216.501 45.0103 215.328 43.8687 213.368 43.8687H209.98V48.8147Z" fill="white"/>
<path d="M9.52532 65.9066H11.405C11.5204 65.9043 11.6334 65.872 11.7329 65.8127C11.8325 65.7535 11.9153 65.6693 11.9734 65.5683L22.5145 47.0961L26.6493 54.3356H20.6287L18.9276 57.316H37.3956C37.4963 57.3176 37.5959 57.2956 37.6867 57.2517C37.7775 57.2077 37.857 57.1431 37.9189 57.0628C38.0019 56.9665 38.0548 56.8474 38.0709 56.7207C38.087 56.594 38.0655 56.4653 38.0092 56.3509L23.1835 30.386C23.1195 30.2693 23.0258 30.172 22.9122 30.1041C22.7985 30.0362 22.669 30.0003 22.5371 30C22.4066 30.0048 22.2792 30.0422 22.1665 30.1088C22.0537 30.1755 21.959 30.2693 21.8907 30.3819L7.08754 56.3011C7.03388 56.4052 7.00374 56.52 6.9993 56.6373C6.9966 56.732 7.01378 56.8263 7.04972 56.9138C7.08565 57.0013 7.13952 57.0801 7.20778 57.145C7.27603 57.21 7.35712 57.2595 7.44569 57.2904C7.53426 57.3213 7.6283 57.3329 7.7216 57.3243H13.2764L8.95281 64.8896C8.89867 64.9875 8.86889 65.0972 8.86603 65.2093C8.86317 65.3214 8.88732 65.4325 8.93639 65.533C8.98876 65.6459 9.07214 65.7411 9.17656 65.8074C9.28099 65.8736 9.40206 65.9081 9.52532 65.9066ZM21.8373 42.3286L14.9816 54.3397H11.6081L22.5309 35.2096L33.4537 54.3397H30.0495L23.2101 42.3411C23.1415 42.2153 23.0407 42.1104 22.9184 42.0374C22.796 41.9644 22.6566 41.9259 22.5145 41.926C22.3739 41.9227 22.2352 41.9591 22.1138 42.0309C21.9924 42.1027 21.8932 42.2072 21.8271 42.3328L21.8373 42.3286Z" fill="#8A8A88"/>
<path d="M35.4896 65.9065H33.6284C33.5143 65.9047 33.4026 65.8735 33.3038 65.8157C33.2051 65.7579 33.1225 65.6756 33.0641 65.5765L29.3828 59.1299H32.7871L36.0703 64.877C36.1334 64.9806 36.1678 65.0993 36.1701 65.2209C36.1725 65.3425 36.1425 65.4625 36.0835 65.5685C36.0244 65.6744 35.9383 65.7624 35.8343 65.8233C35.7302 65.8842 35.6119 65.9158 35.4916 65.9148L35.4896 65.9065Z" fill="#8A8A88"/>
</g>
<defs>
<clipPath id="clip0_1467_330">
<rect width="210" height="35.9108" fill="white" transform="translate(7 30)"/>
</clipPath>
</defs>
</svg>
