<svg width="224" height="96" viewBox="0 0 224 96" fill="none" xmlns="http://www.w3.org/2000/svg">
<path fill-rule="evenodd" clip-rule="evenodd" d="M7 45.0031C7 35.1617 14.3452 27.8066 24.1959 27.8066C34.0412 27.8066 41.3888 35.1617 41.3888 45.0031C41.3888 54.8562 34.0415 62.1936 24.1959 62.1936C14.3454 62.1936 7 54.8562 7 45.0031ZM24.1953 29.8051C15.5077 29.8051 9.17229 36.2178 9.17229 45.0031C9.17229 53.7855 15.5078 60.1976 24.1953 60.1976C32.8835 60.1976 39.2165 53.7854 39.2165 45.0031C39.2165 36.2582 32.8848 29.8057 24.1953 29.8051Z" fill="white"/>
<path d="M54.6964 38.6972L49.8789 51.9604H47.9099L53.457 37.4079H54.7264L54.6964 38.6972ZM58.7343 51.9604L53.9068 38.6972L53.8768 37.4079H55.1462L60.7133 51.9604H58.7343ZM58.4844 46.5732V48.1523H50.3087V46.5732H58.4844Z" fill="white"/>
<path d="M63.7773 36.6083V51.9604H61.9183V36.6083H63.7773Z" fill="white"/>
<path d="M68.1406 36.6083V51.9604H66.2816V36.6083H68.1406Z" fill="white"/>
<path d="M72.504 41.146V51.9604H70.6449V41.146H72.504ZM70.505 38.2775C70.505 37.9776 70.595 37.7244 70.7749 37.5179C70.9614 37.3113 71.2346 37.208 71.5944 37.208C71.9476 37.208 72.2175 37.3113 72.404 37.5179C72.5973 37.7244 72.6939 37.9776 72.6939 38.2775C72.6939 38.564 72.5973 38.8105 72.404 39.0171C72.2175 39.217 71.9476 39.3169 71.5944 39.3169C71.2346 39.3169 70.9614 39.217 70.7749 39.0171C70.595 38.8105 70.505 38.564 70.505 38.2775Z" fill="white"/>
<path d="M81.235 50.1113V44.5442C81.235 44.1178 81.1484 43.748 80.9752 43.4348C80.8086 43.115 80.5554 42.8684 80.2156 42.6952C79.8757 42.5219 79.456 42.4353 78.9562 42.4353C78.4898 42.4353 78.08 42.5153 77.7269 42.6752C77.3804 42.8351 77.1072 43.045 76.9073 43.3049C76.7141 43.5647 76.6174 43.8446 76.6174 44.1444H74.7684C74.7684 43.758 74.8683 43.3748 75.0682 42.995C75.2681 42.6152 75.5547 42.2721 75.9278 41.9656C76.3076 41.6524 76.7607 41.4058 77.2871 41.2259C77.8201 41.0394 78.4132 40.9461 79.0662 40.9461C79.8524 40.9461 80.5454 41.0793 81.1451 41.3459C81.7514 41.6124 82.2245 42.0155 82.5644 42.5552C82.9108 43.0883 83.0841 43.758 83.0841 44.5642V49.6016C83.0841 49.9614 83.1141 50.3445 83.174 50.751C83.2407 51.1575 83.3373 51.5073 83.4639 51.8005V51.9604H81.5349C81.4416 51.7472 81.3683 51.464 81.315 51.1108C81.2617 50.751 81.235 50.4178 81.235 50.1113ZM81.5549 45.4038L81.5749 46.7031H79.7058C79.1794 46.7031 78.7097 46.7464 78.2966 46.833C77.8834 46.913 77.537 47.0363 77.2571 47.2028C76.9773 47.3694 76.764 47.5793 76.6174 47.8325C76.4708 48.0791 76.3976 48.3689 76.3976 48.7021C76.3976 49.0419 76.4742 49.3517 76.6274 49.6316C76.7807 49.9114 77.0106 50.1347 77.3171 50.3012C77.6302 50.4612 78.0134 50.5411 78.4665 50.5411C79.0329 50.5411 79.5326 50.4212 79.9657 50.1813C80.3988 49.9414 80.742 49.6482 80.9952 49.3018C81.255 48.9553 81.395 48.6188 81.415 48.2923L82.2045 49.1818C82.1579 49.4617 82.0313 49.7715 81.8247 50.1113C81.6182 50.4512 81.3417 50.7777 80.9952 51.0908C80.6553 51.3973 80.2489 51.6539 79.7758 51.8604C79.3094 52.0603 78.783 52.1603 78.1966 52.1603C77.4637 52.1603 76.8207 52.017 76.2676 51.7305C75.7212 51.444 75.2948 51.0608 74.9883 50.5811C74.6884 50.0947 74.5385 49.5516 74.5385 48.9519C74.5385 48.3722 74.6518 47.8625 74.8783 47.4227C75.1049 46.9763 75.4314 46.6065 75.8578 46.3133C76.2843 46.0135 76.7973 45.7869 77.397 45.6337C77.9967 45.4804 78.6664 45.4038 79.406 45.4038H81.5549Z" fill="white"/>
<path d="M87.2275 43.4548V51.9604H85.3785V41.146H87.1276L87.2275 43.4548ZM86.7878 46.1434L86.0182 46.1134C86.0248 45.3738 86.1348 44.6908 86.348 44.0645C86.5612 43.4315 86.8611 42.8817 87.2475 42.4153C87.634 41.9489 88.0938 41.5891 88.6268 41.3359C89.1665 41.076 89.7629 40.9461 90.4159 40.9461C90.9489 40.9461 91.4287 41.0194 91.8551 41.166C92.2816 41.3059 92.6447 41.5324 92.9446 41.8456C93.2511 42.1588 93.4843 42.5652 93.6442 43.065C93.8041 43.5581 93.8841 44.1611 93.8841 44.874V51.9604H92.0251V44.8541C92.0251 44.2877 91.9418 43.8346 91.7752 43.4948C91.6086 43.1483 91.3654 42.8984 91.0456 42.7451C90.7257 42.5852 90.3326 42.5053 89.8662 42.5053C89.4064 42.5053 88.9866 42.6019 88.6068 42.7951C88.2337 42.9884 87.9105 43.2549 87.6373 43.5947C87.3708 43.9345 87.1609 44.3243 87.0077 44.7641C86.8611 45.1972 86.7878 45.657 86.7878 46.1434Z" fill="white"/>
<path d="M104.134 50.4412V51.9604H96.2685V50.4412H104.134ZM103.845 42.4553L96.6882 51.9604H95.5588V50.6011L102.665 41.146H103.845V42.4553ZM103.025 41.146V42.6752H95.6388V41.146H103.025Z" fill="white"/>
<path d="M119.188 50.3912V51.9604H111.912V50.3912H119.188ZM112.291 37.4079V51.9604H110.362V37.4079H112.291Z" fill="white"/>
<path d="M121.898 41.146V51.9604H120.039V41.146H121.898ZM119.899 38.2775C119.899 37.9776 119.989 37.7244 120.168 37.5179C120.355 37.3113 120.628 37.208 120.988 37.208C121.341 37.208 121.611 37.3113 121.798 37.5179C121.991 37.7244 122.087 37.9776 122.087 38.2775C122.087 38.564 121.991 38.8105 121.798 39.0171C121.611 39.217 121.341 39.3169 120.988 39.3169C120.628 39.3169 120.355 39.217 120.168 39.0171C119.989 38.8105 119.899 38.564 119.899 38.2775Z" fill="white"/>
<path d="M126.396 51.9604H124.547V40.0066C124.547 39.227 124.687 38.5706 124.967 38.0376C125.254 37.4979 125.663 37.0914 126.197 36.8182C126.73 36.5384 127.363 36.3984 128.096 36.3984C128.309 36.3984 128.522 36.4118 128.735 36.4384C128.955 36.4651 129.168 36.505 129.375 36.5584L129.275 38.0676C129.135 38.0343 128.975 38.0109 128.795 37.9976C128.622 37.9843 128.449 37.9776 128.275 37.9776C127.882 37.9776 127.543 38.0576 127.256 38.2175C126.976 38.3707 126.763 38.5973 126.616 38.8971C126.47 39.197 126.396 39.5668 126.396 40.0066V51.9604ZM128.695 41.146V42.5652H122.838V41.146H128.695Z" fill="white"/>
<path d="M133.774 52.1603C133.021 52.1603 132.338 52.0337 131.725 51.7805C131.119 51.5206 130.595 51.1575 130.156 50.691C129.723 50.2246 129.389 49.6716 129.156 49.0319C128.923 48.3922 128.806 47.6926 128.806 46.933V46.5132C128.806 45.6337 128.936 44.8507 129.196 44.1644C129.456 43.4714 129.809 42.8851 130.256 42.4053C130.702 41.9256 131.208 41.5624 131.775 41.3159C132.341 41.0694 132.928 40.9461 133.534 40.9461C134.307 40.9461 134.973 41.0793 135.533 41.3459C136.099 41.6124 136.562 41.9855 136.922 42.4653C137.282 42.9384 137.549 43.4981 137.722 44.1444C137.895 44.7841 137.982 45.4837 137.982 46.2433V47.0729H129.906V45.5637H136.133V45.4238C136.106 44.944 136.006 44.4776 135.833 44.0245C135.666 43.5714 135.4 43.1982 135.033 42.9051C134.667 42.6119 134.167 42.4653 133.534 42.4653C133.114 42.4653 132.728 42.5552 132.375 42.7352C132.021 42.9084 131.718 43.1683 131.465 43.5148C131.212 43.8612 131.015 44.2844 130.875 44.7841C130.735 45.2838 130.665 45.8602 130.665 46.5132V46.933C130.665 47.446 130.735 47.9291 130.875 48.3822C131.022 48.8287 131.232 49.2218 131.505 49.5616C131.785 49.9014 132.121 50.168 132.514 50.3612C132.914 50.5544 133.367 50.6511 133.874 50.6511C134.527 50.6511 135.08 50.5178 135.533 50.2513C135.986 49.9847 136.382 49.6283 136.722 49.1818L137.842 50.0714C137.609 50.4245 137.312 50.761 136.952 51.0808C136.592 51.4007 136.149 51.6605 135.623 51.8604C135.103 52.0603 134.487 52.1603 133.774 52.1603Z" fill="white"/>
<path d="M146.997 48.9942L152.645 37.5479H154.615L147.604 51.1416H146.194L146.997 48.9942ZM145.139 37.5479L147.202 49.1529L147.352 51.1416H146.045L143.3 37.5479H145.139Z" fill="#8A8A88"/>
<path d="M158.126 51.3283C157.435 51.3158 156.834 51.1789 156.324 50.9175C155.819 50.6498 155.406 50.292 155.082 49.8438C154.764 49.3894 154.537 48.8728 154.4 48.294C154.263 47.7151 154.223 47.1083 154.279 46.4734L154.316 46.0719C154.379 45.4246 154.537 44.7897 154.792 44.1673C155.048 43.5387 155.387 42.9723 155.81 42.4681C156.24 41.9639 156.744 41.5656 157.323 41.2731C157.908 40.9743 158.555 40.8342 159.265 40.8529C159.968 40.8654 160.553 41.0147 161.02 41.3011C161.487 41.5874 161.851 41.9671 162.112 42.4401C162.38 42.9069 162.554 43.4329 162.635 44.0179C162.716 44.5968 162.722 45.1912 162.654 45.8012L162.551 46.5761H155.222L155.446 45.1663L161.038 45.1756L161.066 45.0263C161.129 44.5781 161.104 44.1455 160.992 43.7285C160.88 43.3115 160.674 42.9692 160.376 42.7015C160.083 42.4276 159.688 42.2845 159.19 42.272C158.673 42.2534 158.225 42.3592 157.845 42.5895C157.466 42.8135 157.148 43.1185 156.893 43.5044C156.638 43.8841 156.436 44.3011 156.286 44.7555C156.143 45.2036 156.044 45.6425 155.988 46.0719L155.95 46.4641C155.913 46.8624 155.925 47.2639 155.988 47.6684C156.05 48.073 156.168 48.4434 156.342 48.7795C156.523 49.1094 156.772 49.3801 157.089 49.5917C157.407 49.7971 157.799 49.9061 158.266 49.9185C158.832 49.931 159.339 49.8096 159.787 49.5544C160.242 49.293 160.656 48.9631 161.029 48.5647L161.991 49.3863C161.698 49.8158 161.35 50.1768 160.945 50.4693C160.541 50.7619 160.099 50.9797 159.619 51.1229C159.14 51.266 158.642 51.3345 158.126 51.3283Z" fill="#8A8A88"/>
<path d="M167.125 43.299L165.762 51.1416H164.072L165.828 41.0396H167.424L167.125 43.299ZM166.341 45.7078L165.65 45.6891C165.737 45.0854 165.896 44.4941 166.126 43.9152C166.363 43.3302 166.671 42.8042 167.051 42.3374C167.437 41.8706 167.894 41.5033 168.423 41.2357C168.958 40.9618 169.568 40.8342 170.253 40.8529C170.795 40.8654 171.246 40.9712 171.607 41.1704C171.974 41.3633 172.26 41.6278 172.466 41.9639C172.671 42.3 172.808 42.6891 172.877 43.131C172.945 43.5667 172.951 44.0304 172.895 44.5221L171.794 51.1416H170.094L171.215 44.4941C171.258 44.0895 171.243 43.7254 171.168 43.4017C171.1 43.0719 170.944 42.8104 170.701 42.6175C170.465 42.4183 170.122 42.3125 169.674 42.3C169.201 42.2876 168.775 42.3779 168.395 42.5708C168.015 42.7638 167.682 43.0283 167.396 43.3644C167.116 43.6943 166.886 44.0646 166.705 44.4754C166.531 44.88 166.41 45.2908 166.341 45.7078Z" fill="#8A8A88"/>
<path d="M180.579 41.0396L180.345 42.3654H175.033L175.266 41.0396H180.579ZM177.488 38.5842H179.169L177.46 48.6581C177.442 48.8759 177.448 49.072 177.479 49.2463C177.51 49.4206 177.585 49.5606 177.703 49.6664C177.821 49.766 178.002 49.8189 178.245 49.8251C178.382 49.8251 178.515 49.8158 178.646 49.7971C178.783 49.7722 178.92 49.7504 179.057 49.7318L178.935 51.1509C178.736 51.2069 178.531 51.2474 178.319 51.2723C178.114 51.3034 177.908 51.3158 177.703 51.3096C177.186 51.3034 176.782 51.1727 176.489 50.9175C176.197 50.6623 175.998 50.3324 175.892 49.9278C175.786 49.5233 175.755 49.0907 175.798 48.6301L177.488 38.5842Z" fill="#8A8A88"/>
<path d="M187.581 48.7141L188.906 41.0396H190.606L188.85 51.1416H187.235L187.581 48.7141ZM188.215 46.6788L188.906 46.6508C188.825 47.2857 188.682 47.8894 188.477 48.462C188.271 49.0284 187.991 49.5326 187.637 49.9745C187.288 50.4102 186.852 50.7525 186.329 51.0015C185.813 51.2443 185.2 51.3563 184.49 51.3376C183.936 51.319 183.473 51.2069 183.099 51.0015C182.732 50.7961 182.442 50.5191 182.231 50.1706C182.019 49.822 181.879 49.4237 181.811 48.9755C181.742 48.5274 181.733 48.0543 181.783 47.5564L182.875 41.0396H184.565L183.473 47.5844C183.448 47.8583 183.445 48.129 183.463 48.3967C183.482 48.6581 183.538 48.8977 183.631 49.1156C183.725 49.3334 183.868 49.5108 184.061 49.6477C184.26 49.7785 184.521 49.85 184.845 49.8625C185.517 49.8874 186.087 49.7629 186.554 49.489C187.02 49.2089 187.391 48.823 187.665 48.3313C187.938 47.8396 188.122 47.2888 188.215 46.6788Z" fill="#8A8A88"/>
<path d="M194.928 42.7015L193.462 51.1416H191.772L193.527 41.0396H195.171L194.928 42.7015ZM198.205 40.9556L198.046 42.5801C197.916 42.5552 197.782 42.5335 197.645 42.5148C197.514 42.4961 197.383 42.4868 197.253 42.4868C196.848 42.4806 196.484 42.5428 196.16 42.6735C195.843 42.798 195.56 42.9754 195.311 43.2057C195.068 43.436 194.859 43.7067 194.685 44.0179C194.517 44.3291 194.383 44.6653 194.284 45.0263L193.752 45.3063C193.82 44.8022 193.932 44.2856 194.088 43.7565C194.249 43.2275 194.47 42.7389 194.751 42.2907C195.037 41.8426 195.395 41.4816 195.824 41.2077C196.26 40.9338 196.783 40.8062 197.393 40.8249C197.53 40.8249 197.663 40.8374 197.794 40.8623C197.931 40.8871 198.068 40.9183 198.205 40.9556Z" fill="#8A8A88"/>
<path d="M202.537 51.3283C201.846 51.3158 201.245 51.1789 200.735 50.9175C200.231 50.6498 199.817 50.292 199.493 49.8438C199.176 49.3894 198.948 48.8728 198.811 48.294C198.675 47.7151 198.634 47.1083 198.69 46.4734L198.727 46.0719C198.79 45.4246 198.948 44.7897 199.204 44.1673C199.459 43.5387 199.798 42.9723 200.221 42.4681C200.651 41.9639 201.155 41.5656 201.734 41.2731C202.319 40.9743 202.966 40.8342 203.676 40.8529C204.379 40.8654 204.964 41.0147 205.431 41.3011C205.898 41.5874 206.262 41.9671 206.523 42.4401C206.791 42.9069 206.965 43.4329 207.046 44.0179C207.127 44.5968 207.133 45.1912 207.065 45.8012L206.962 46.5761H199.633L199.857 45.1663L205.45 45.1756L205.478 45.0263C205.54 44.5781 205.515 44.1455 205.403 43.7285C205.291 43.3115 205.085 42.9692 204.787 42.7015C204.494 42.4276 204.099 42.2845 203.601 42.272C203.084 42.2534 202.636 42.3592 202.257 42.5895C201.877 42.8135 201.559 43.1185 201.304 43.5044C201.049 43.8841 200.847 44.3011 200.697 44.7555C200.554 45.2036 200.455 45.6425 200.399 46.0719L200.361 46.4641C200.324 46.8624 200.336 47.2639 200.399 47.6684C200.461 48.073 200.579 48.4434 200.753 48.7795C200.934 49.1094 201.183 49.3801 201.5 49.5917C201.818 49.7971 202.21 49.9061 202.677 49.9185C203.243 49.931 203.75 49.8096 204.199 49.5544C204.653 49.293 205.067 48.9631 205.44 48.5647L206.402 49.3863C206.109 49.8158 205.761 50.1768 205.356 50.4693C204.952 50.7619 204.51 50.9797 204.03 51.1229C203.551 51.266 203.053 51.3345 202.537 51.3283Z" fill="#8A8A88"/>
<path d="M214.72 48.406C214.776 48.0201 214.705 47.7182 214.505 47.5004C214.312 47.2825 214.057 47.1176 213.74 47.0056C213.429 46.8873 213.124 46.7908 212.825 46.7161C212.451 46.6228 212.075 46.5076 211.695 46.3707C211.316 46.2338 210.967 46.0595 210.65 45.8479C210.338 45.63 210.089 45.3624 209.903 45.0449C209.722 44.7213 209.641 44.3291 209.66 43.8686C209.685 43.3706 209.815 42.9318 210.052 42.5521C210.295 42.1725 210.606 41.855 210.986 41.5998C211.372 41.3446 211.792 41.1548 212.246 41.0303C212.7 40.9058 213.152 40.8467 213.6 40.8529C214.235 40.8654 214.81 40.9961 215.327 41.245C215.85 41.494 216.264 41.8519 216.569 42.3187C216.874 42.7855 217.017 43.3519 216.998 44.0179L215.327 44.0086C215.34 43.6538 215.268 43.3488 215.112 43.0936C214.957 42.8384 214.742 42.6424 214.468 42.5054C214.194 42.3623 213.883 42.2876 213.534 42.2814C213.205 42.2752 212.881 42.3281 212.563 42.4401C212.246 42.5459 211.975 42.714 211.751 42.9443C211.527 43.1683 211.39 43.4609 211.34 43.8219C211.303 44.0895 211.344 44.3105 211.462 44.4848C211.58 44.6528 211.742 44.7897 211.947 44.8956C212.159 44.9951 212.38 45.0792 212.61 45.1476C212.847 45.2099 213.061 45.2659 213.254 45.3157C213.765 45.4588 214.269 45.6393 214.767 45.8572C215.265 46.075 215.669 46.3769 215.981 46.7628C216.292 47.1425 216.432 47.6435 216.401 48.266C216.376 48.795 216.236 49.2556 215.981 49.6477C215.732 50.0336 215.408 50.3542 215.01 50.6094C214.617 50.8584 214.185 51.042 213.712 51.1602C213.239 51.2785 212.766 51.3345 212.293 51.3283C211.639 51.3158 211.029 51.182 210.463 50.9268C209.903 50.6654 209.454 50.292 209.118 49.8065C208.782 49.3148 208.624 48.7172 208.642 48.0139L210.332 48.0232C210.332 48.4278 210.416 48.7701 210.584 49.0502C210.758 49.3241 210.998 49.5326 211.303 49.6758C211.608 49.8189 211.957 49.8936 212.349 49.8998C212.679 49.9061 213.015 49.8625 213.357 49.7691C213.706 49.6758 214.004 49.5202 214.253 49.3023C214.509 49.0782 214.664 48.7795 214.72 48.406Z" fill="#8A8A88"/>
<path d="M20.5436 35.1417V33.79H24.681C25.4068 33.79 25.7782 33.9201 25.984 34.1247C26.1894 34.3289 26.3262 34.7033 26.3262 35.449V54.4687H22.055V37.0336C22.055 36.715 22.0426 36.437 22.0011 36.2029C21.9594 35.9681 21.8829 35.7433 21.729 35.5598C21.4418 35.2174 20.9996 35.1509 20.5436 35.1417Z" fill="white"/>
<path d="M29.3879 54.4681V38.0887H31.9636C32.6706 38.0887 33.0497 38.2232 33.264 38.4347C33.4772 38.645 33.6195 39.0227 33.6195 39.7453V54.4681H29.3879Z" fill="white"/>
<path d="M14.7725 39.7459C14.7725 39.0228 14.9141 38.645 15.1265 38.4348C15.3396 38.2238 15.7169 38.0893 16.4231 38.0893H19.0053V54.4687H14.7725V39.7459Z" fill="white"/>
</svg>
