<svg width="224" height="96" viewBox="0 0 224 96" fill="none" xmlns="http://www.w3.org/2000/svg">
<path fill-rule="evenodd" clip-rule="evenodd" d="M132.604 68H91.3271V67.1489H132.604V68Z" fill="#8A8A88"/>
<path fill-rule="evenodd" clip-rule="evenodd" d="M141.467 9.70213H82.5332V86.2979H141.467V9.70213ZM80.8311 8V88H143.169V8H80.8311Z" fill="white"/>
<path d="M122.914 60.0568V50.3263H126.709C127.562 50.3263 128.289 50.4607 128.892 50.7294C129.494 50.9982 129.957 51.3874 130.282 51.8971C130.606 52.4068 130.768 53.0138 130.768 53.7181C130.768 54.4224 130.606 55.0294 130.282 55.5391C129.957 56.0395 129.494 56.4241 128.892 56.6928C128.289 56.9616 127.562 57.0959 126.709 57.0959H123.679L124.304 56.4565V60.0568H122.914ZM129.42 60.0568L126.946 56.526H128.433L130.935 60.0568H129.42ZM124.304 56.5955L123.679 55.9144H126.668C127.557 55.9144 128.229 55.7244 128.683 55.3445C129.147 54.9552 129.378 54.4131 129.378 53.7181C129.378 53.023 129.147 52.4855 128.683 52.1056C128.229 51.7256 127.557 51.5357 126.668 51.5357H123.679L124.304 50.8406V56.5955Z" fill="white"/>
<path fill-rule="evenodd" clip-rule="evenodd" d="M122.773 50.1845H126.709C127.576 50.1845 128.324 50.321 128.949 50.5999C129.575 50.8789 130.061 51.2856 130.401 51.8209C130.743 52.3569 130.91 52.9913 130.91 53.7181C130.91 54.4448 130.743 55.0792 130.401 55.6152L130.401 55.6162C130.06 56.1421 129.574 56.5437 128.949 56.8224C128.916 56.8373 128.882 56.8519 128.848 56.866L131.209 60.1986H129.346L127.258 57.2184C127.08 57.2313 126.898 57.2378 126.709 57.2378H124.446V60.1986H122.773V50.1845ZM124.446 56.9541H126.709C126.831 56.9541 126.95 56.9513 127.067 56.9457L126.673 56.3842H128.506L128.679 56.6281C128.732 56.6075 128.783 56.5859 128.834 56.5633C129.414 56.3046 129.855 55.9372 130.162 55.4624C130.47 54.9791 130.626 54.3997 130.626 53.7181C130.626 53.0362 130.47 52.4566 130.162 51.9732C129.854 51.4892 129.413 51.1175 128.834 50.859C128.254 50.6003 127.548 50.4681 126.709 50.4681H123.056V59.915H124.163V57.2378H123.342L124.043 56.5207L123.356 55.7725H124.163V51.6775H123.36L124.446 50.471V51.3938H126.668C127.574 51.3938 128.284 51.5869 128.774 51.9963C129.275 52.4077 129.52 52.9884 129.52 53.7181C129.52 54.4481 129.275 55.0327 128.774 55.4531C128.285 55.8628 127.574 56.0562 126.668 56.0562H124.446V56.9541ZM124.163 56.2314V56.0562H124.002L124.163 56.2314ZM124.163 56.8043V56.9541H124.016L124.163 56.8043ZM124.446 55.7725H126.668C127.54 55.7725 128.173 55.5859 128.592 55.2358M124.446 55.7725V51.6775H126.668C127.54 51.6775 128.174 51.8642 128.592 52.2144L128.593 52.2153C129.018 52.5638 129.236 53.0579 129.236 53.7181C129.236 54.3781 129.018 54.8777 128.592 55.2358M124.163 51.3938V51.2103L123.997 51.3938H124.163ZM128.401 56.7257L128.36 56.6679H127.218L127.396 56.9218C127.76 56.886 128.095 56.8204 128.401 56.7257ZM127.582 57.1866L129.494 59.915H130.661L128.573 56.9684C128.267 57.07 127.937 57.1426 127.582 57.1866Z" fill="white"/>
<path d="M122.914 28.993V19.2625H126.709C127.562 19.2625 128.289 19.3968 128.892 19.6656C129.494 19.9343 129.957 20.3236 130.282 20.8332C130.606 21.3429 130.768 21.9499 130.768 22.6542C130.768 23.3585 130.606 23.9655 130.282 24.4752C129.957 24.9757 129.494 25.3602 128.892 25.629C128.289 25.8977 127.562 26.0321 126.709 26.0321H123.679L124.304 25.3927V28.993H122.914ZM129.42 28.993L126.946 25.4622H128.433L130.935 28.993H129.42ZM124.304 25.5317L123.679 24.8506H126.668C127.557 24.8506 128.229 24.6606 128.683 24.2806C129.147 23.8914 129.378 23.3493 129.378 22.6542C129.378 21.9592 129.147 21.4217 128.683 21.0418C128.229 20.6618 127.557 20.4718 126.668 20.4718H123.679L124.304 19.7768V25.5317Z" fill="white"/>
<path fill-rule="evenodd" clip-rule="evenodd" d="M122.773 19.1206H126.709C127.576 19.1206 128.324 19.2572 128.949 19.5361C129.575 19.8151 130.061 20.2218 130.401 20.7571C130.743 21.2931 130.91 21.9275 130.91 22.6542C130.91 23.381 130.743 24.0154 130.401 24.5514L130.401 24.5524C130.06 25.0782 129.574 25.4798 128.949 25.7585C128.916 25.7735 128.882 25.7881 128.848 25.8022L131.209 29.1348H129.346L127.258 26.1546C127.08 26.1675 126.898 26.174 126.709 26.174H124.446V29.1348H122.773V19.1206ZM124.446 25.8903H126.709C126.831 25.8903 126.95 25.8875 127.067 25.8819L126.673 25.3203H128.506L128.679 25.5643C128.732 25.5436 128.783 25.522 128.834 25.4995C129.414 25.2407 129.855 24.8733 130.162 24.3986C130.47 23.9153 130.626 23.3359 130.626 22.6542C130.626 21.9724 130.47 21.3928 130.162 20.9094C129.854 20.4253 129.413 20.0536 128.834 19.7951C128.254 19.5365 127.548 19.4043 126.709 19.4043H123.056V28.8511H124.163V26.174H123.342L124.043 25.4569L123.356 24.7087H124.163V20.6137H123.36L124.446 19.4072V20.33H126.668C127.574 20.33 128.284 20.5231 128.774 20.9325C129.275 21.3439 129.52 21.9246 129.52 22.6542C129.52 23.3842 129.275 23.9689 128.774 24.3892C128.285 24.799 127.574 24.9924 126.668 24.9924H124.446V25.8903ZM124.163 25.1675V24.9924H124.002L124.163 25.1675ZM124.163 25.7405V25.8903H124.016L124.163 25.7405ZM124.446 24.7087H126.668C127.54 24.7087 128.173 24.522 128.592 24.172M124.446 24.7087V20.6137H126.668C127.54 20.6137 128.174 20.8004 128.592 21.1505L128.593 21.1514C129.018 21.5 129.236 21.9941 129.236 22.6542C129.236 23.3143 129.018 23.8139 128.592 24.172M124.163 20.33V20.1464L123.997 20.33H124.163ZM128.401 25.6619L128.36 25.604H127.218L127.396 25.858C127.76 25.8221 128.095 25.7565 128.401 25.6619ZM127.582 26.1228L129.494 28.8511H130.661L128.573 25.9045C128.267 26.0062 127.937 26.0788 127.582 26.1228Z" fill="white"/>
<path d="M122.231 44.7376L126.638 35.0071H128.014L132.434 44.7376H130.975L127.041 35.7856H127.597L123.663 44.7376H122.231ZM124.108 42.305L124.483 41.193H129.96L130.363 42.305H124.108Z" fill="white"/>
<path fill-rule="evenodd" clip-rule="evenodd" d="M126.546 34.8653H128.105L132.655 44.8795H130.882L129.813 42.4469H124.825L123.756 44.8795H122.011L126.546 34.8653ZM124.949 42.1632H129.688L129.324 41.3348H125.313L124.949 42.1632ZM125.003 41.3348L124.639 42.1632H124.305L124.585 41.3348H125.003ZM125.128 41.0511H124.381L123.91 42.4469H124.515L123.57 44.5958H122.451L126.729 35.149H127.923L132.214 44.5958H131.067L130.123 42.4469H130.565L130.059 41.0511H129.51L127.474 36.4182L127.814 35.6437H126.824L127.164 36.4182L125.128 41.0511ZM125.438 41.0511H129.2L127.319 36.7708L125.438 41.0511ZM127.319 36.0657L127.38 35.9274H127.258L127.319 36.0657ZM129.634 41.3348L129.998 42.1632H130.161L129.861 41.3348H129.634Z" fill="white"/>
<path d="M91.3214 28.993L95.7279 19.2625H97.1041L101.525 28.993H100.065L96.1311 20.0409H96.6871L92.7532 28.993H91.3214ZM93.198 26.5603L93.5733 25.4483H99.0502L99.4533 26.5603H93.198Z" fill="white"/>
<path fill-rule="evenodd" clip-rule="evenodd" d="M95.6364 19.1206H97.1954L101.745 29.1348H99.9723L98.9033 26.7022H93.9148L92.8458 29.1348H91.1014L95.6364 19.1206ZM94.0394 26.4185H98.7787L98.4147 25.5901H94.4034L94.0394 26.4185ZM94.0936 25.5901L93.7296 26.4185H93.3956L93.6751 25.5901H94.0936ZM94.2182 25.3064H93.4715L93.0004 26.7022H93.6049L92.6606 28.8511H91.5413L95.8194 19.4043H97.0127L101.304 28.8511H100.158L99.2132 26.7022H99.6556L99.1496 25.3064H98.5999L96.564 20.6736L96.9043 19.8991H95.9138L96.2541 20.6736L94.2182 25.3064ZM94.5281 25.3064H98.29L96.409 21.0261L94.5281 25.3064ZM96.409 20.321L96.4698 20.1828H96.3483L96.409 20.321ZM98.7245 25.5901L99.0885 26.4185H99.251L98.9507 25.5901H98.7245Z" fill="white"/>
<path d="M112.263 60.168C111.522 60.168 110.831 60.0429 110.192 59.7927C109.562 59.5424 109.015 59.1949 108.552 58.7501C108.088 58.296 107.727 57.7678 107.468 57.1654C107.208 56.5631 107.078 55.9051 107.078 55.1915C107.078 54.4779 107.208 53.82 107.468 53.2176C107.727 52.6153 108.088 52.0917 108.552 51.6468C109.015 51.1927 109.562 50.8406 110.192 50.5904C110.822 50.3402 111.513 50.2151 112.263 50.2151C113.005 50.2151 113.686 50.3402 114.307 50.5904C114.937 50.8313 115.484 51.1788 115.947 51.6329C116.42 52.0778 116.781 52.6014 117.031 53.2037C117.291 53.8061 117.42 54.4687 117.42 55.1915C117.42 55.9144 117.291 56.577 117.031 57.1793C116.781 57.7817 116.42 58.3099 115.947 58.764C115.484 59.2088 114.937 59.5563 114.307 59.8066C113.686 60.0475 113.005 60.168 112.263 60.168ZM112.263 58.9308C112.801 58.9308 113.297 58.8381 113.751 58.6528C114.214 58.4675 114.612 58.208 114.946 57.8744C115.289 57.5315 115.553 57.133 115.738 56.6789C115.933 56.2248 116.03 55.729 116.03 55.1915C116.03 54.654 115.933 54.1582 115.738 53.7041C115.553 53.2501 115.289 52.8562 114.946 52.5226C114.612 52.1797 114.214 51.9156 113.751 51.7302C113.297 51.5449 112.801 51.4522 112.263 51.4522C111.716 51.4522 111.211 51.5449 110.748 51.7302C110.294 51.9156 109.895 52.1797 109.553 52.5226C109.21 52.8562 108.941 53.2501 108.746 53.7041C108.561 54.1582 108.468 54.654 108.468 55.1915C108.468 55.729 108.561 56.2248 108.746 56.6789C108.941 57.133 109.21 57.5315 109.553 57.8744C109.895 58.208 110.294 58.4675 110.748 58.6528C111.211 58.8381 111.716 58.9308 112.263 58.9308Z" fill="white"/>
<path fill-rule="evenodd" clip-rule="evenodd" d="M112.263 50.3569C111.529 50.3569 110.856 50.4793 110.244 50.7222C109.631 50.9658 109.1 51.3078 108.651 51.7481L108.65 51.7492C108.201 52.1806 107.85 52.6884 107.598 53.2737C107.347 53.8569 107.22 54.4955 107.22 55.1915C107.22 55.8875 107.347 56.5262 107.598 57.1093C107.85 57.6947 108.201 58.2074 108.651 58.6483C109.1 59.0794 109.63 59.417 110.244 59.6607C110.866 59.9039 111.538 60.0261 112.263 60.0261C112.989 60.0261 113.652 59.9083 114.255 59.6745C114.869 59.4307 115.399 59.093 115.849 58.6617C116.307 58.2211 116.658 57.7091 116.9 57.1249L116.901 57.1232C117.152 56.5403 117.279 55.897 117.279 55.1915C117.279 54.486 117.152 53.8427 116.901 53.2598L116.9 53.2581C116.658 52.6742 116.308 52.1673 115.85 51.7362L115.848 51.7343C115.399 51.2943 114.869 50.9572 114.256 50.7229L114.254 50.722C113.651 50.4792 112.988 50.3569 112.263 50.3569ZM110.14 50.4586C110.788 50.2011 111.497 50.0732 112.263 50.0732C113.02 50.0732 113.719 50.201 114.358 50.4583C115.005 50.7058 115.568 51.0632 116.045 51.5306C116.532 51.9888 116.904 52.5285 117.162 53.1484C117.429 53.77 117.562 54.4517 117.562 55.1915C117.562 55.9313 117.429 56.613 117.162 57.2346C116.904 57.8547 116.532 58.3989 116.045 58.8663C115.568 59.3245 115.005 59.6818 114.359 59.9384L114.358 59.9388C113.719 60.1868 113.02 60.3098 112.263 60.3098C111.506 60.3098 110.798 60.1819 110.14 59.9247L110.14 59.9245C109.493 59.6679 108.931 59.3107 108.454 58.8524L108.452 58.8514C107.976 58.3843 107.604 57.8406 107.337 57.2215C107.069 56.5999 106.936 55.9227 106.936 55.1915C106.936 54.4604 107.069 53.7831 107.337 53.1615C107.604 52.5424 107.976 52.0031 108.453 51.545C108.93 51.0774 109.493 50.7153 110.14 50.4586ZM110.695 51.5985C111.177 51.4059 111.7 51.3104 112.263 51.3104C112.817 51.3104 113.331 51.4059 113.804 51.5987C114.284 51.7908 114.699 52.0653 115.046 52.4223C115.403 52.7693 115.677 53.1788 115.869 53.6494C116.072 54.1223 116.172 54.637 116.172 55.1915C116.172 55.7461 116.072 56.2607 115.869 56.7337C115.677 57.2045 115.402 57.6186 115.046 57.9747C114.699 58.3225 114.284 58.5923 113.804 58.7843C113.331 58.9771 112.817 59.0727 112.263 59.0727C111.7 59.0727 111.177 58.9772 110.695 58.7845L110.694 58.7841C110.224 58.5921 109.81 58.3227 109.454 57.976L109.452 57.9747C109.096 57.6188 108.818 57.2051 108.616 56.7348L108.615 56.7325C108.422 56.2598 108.327 55.7456 108.327 55.1915C108.327 54.6374 108.422 54.1232 108.615 53.6505L108.616 53.6483C108.818 53.1779 109.097 52.7685 109.453 52.4216C109.453 52.4218 109.453 52.4221 109.452 52.4223L109.553 52.5226L109.454 52.4209C109.453 52.4211 109.453 52.4214 109.453 52.4216C109.809 52.0655 110.223 51.7912 110.694 51.5989L110.695 51.5985ZM110.801 51.8618C110.365 52.0401 109.982 52.2936 109.653 52.6229L109.652 52.6243C109.323 52.9441 109.065 53.3219 108.877 53.7589C108.7 54.1941 108.61 54.6711 108.61 55.1915C108.61 55.7119 108.7 56.189 108.877 56.6242C109.065 57.0612 109.323 57.4439 109.652 57.7734C109.981 58.0935 110.364 58.3428 110.801 58.5213C111.246 58.6992 111.733 58.789 112.263 58.789C112.784 58.789 113.262 58.6992 113.697 58.5215L113.698 58.5211C114.145 58.3425 114.527 58.0933 114.846 57.7741C115.175 57.4447 115.429 57.0621 115.607 56.6253L115.608 56.623C115.794 56.1881 115.888 55.7115 115.888 55.1915C115.888 54.6715 115.794 54.195 115.608 53.76L115.607 53.7578C115.429 53.3213 115.176 52.9439 114.847 52.6242L114.844 52.6215C114.525 52.2935 114.144 52.0402 113.698 51.8619L113.697 51.8616C113.262 51.6838 112.784 51.5941 112.263 51.5941C111.733 51.5941 111.246 51.6839 110.801 51.8618Z" fill="white"/>
<path d="M93.6076 78.6383L91.7846 74.468H92.6246L94.251 78.2391H93.7685L95.4127 74.468H96.1872L94.3702 78.6383H93.6076Z" fill="white"/>
<path d="M98.5096 76.2017H100.583V76.8391H98.5096V76.2017ZM98.5692 77.9889H100.922V78.6383H97.7948V74.468H100.839V75.1174H98.5692V77.9889Z" fill="white"/>
<path d="M102.947 78.6383V74.468H103.585L106.2 77.6791H105.885V74.468H106.653V78.6383H106.016L103.4 75.4272H103.716V78.6383H102.947Z" fill="white"/>
<path d="M109.778 78.6383V75.1234H108.396V74.468H111.935V75.1234H110.553V78.6383H109.778Z" fill="white"/>
<path d="M115.395 78.6978C114.823 78.6978 114.374 78.537 114.049 78.2153C113.727 77.8936 113.566 77.4289 113.566 76.8212V74.468H114.341V76.7914C114.341 77.2204 114.432 77.5322 114.615 77.7268C114.801 77.9214 115.064 78.0187 115.401 78.0187C115.739 78.0187 115.999 77.9214 116.182 77.7268C116.364 77.5322 116.456 77.2204 116.456 76.7914V74.468H117.218V76.8212C117.218 77.4289 117.055 77.8936 116.73 78.2153C116.408 78.537 115.963 78.6978 115.395 78.6978Z" fill="white"/>
<path d="M119.465 78.6383V74.468H121.18C121.55 74.468 121.865 74.5276 122.127 74.6468C122.394 74.7659 122.598 74.9367 122.741 75.1591C122.884 75.3815 122.956 75.6456 122.956 75.9514C122.956 76.2573 122.884 76.5214 122.741 76.7438C122.598 76.9622 122.394 77.131 122.127 77.2502C121.865 77.3653 121.55 77.4229 121.18 77.4229H119.893L120.239 77.0714V78.6383H119.465ZM122.193 78.6383L121.139 77.1251H121.967L123.027 78.6383H122.193ZM120.239 77.1549L119.893 76.7855H121.145C121.486 76.7855 121.742 76.712 121.913 76.5651C122.088 76.4181 122.175 76.2136 122.175 75.9514C122.175 75.6853 122.088 75.4808 121.913 75.3378C121.742 75.1948 121.486 75.1234 121.145 75.1234H119.893L120.239 74.7421V77.1549Z" fill="white"/>
<path d="M125.699 76.2017H127.772V76.8391H125.699V76.2017ZM125.758 77.9889H128.111V78.6383H124.984V74.468H128.028V75.1174H125.758V77.9889Z" fill="white"/>
<path d="M131.429 78.6978C131.104 78.6978 130.792 78.6522 130.494 78.5608C130.196 78.4655 129.96 78.3444 129.785 78.1974L130.053 77.5957C130.22 77.7268 130.426 77.836 130.673 77.9234C130.919 78.0107 131.171 78.0544 131.429 78.0544C131.648 78.0544 131.824 78.0306 131.959 77.9829C132.094 77.9353 132.194 77.8717 132.257 77.7923C132.321 77.7089 132.353 77.6156 132.353 77.5123C132.353 77.3852 132.307 77.2839 132.216 77.2085C132.124 77.129 132.005 77.0675 131.858 77.0238C131.715 76.9761 131.554 76.9324 131.376 76.8927C131.201 76.853 131.024 76.8073 130.845 76.7557C130.671 76.7001 130.51 76.6306 130.363 76.5472C130.22 76.4598 130.103 76.3446 130.011 76.2017C129.92 76.0587 129.874 75.876 129.874 75.6536C129.874 75.4272 129.934 75.2207 130.053 75.034C130.176 74.8434 130.361 74.6924 130.607 74.5812C130.857 74.4661 131.173 74.4085 131.554 74.4085C131.805 74.4085 132.053 74.4402 132.299 74.5038C132.545 74.5673 132.76 74.6587 132.942 74.7778L132.698 75.3795C132.512 75.2683 132.319 75.1869 132.12 75.1353C131.922 75.0797 131.731 75.0519 131.548 75.0519C131.334 75.0519 131.159 75.0777 131.024 75.1293C130.893 75.1809 130.796 75.2485 130.732 75.3319C130.673 75.4153 130.643 75.5106 130.643 75.6178C130.643 75.7449 130.687 75.8482 130.774 75.9276C130.865 76.0031 130.982 76.0627 131.125 76.1063C131.272 76.15 131.435 76.1937 131.614 76.2374C131.793 76.2771 131.969 76.3228 132.144 76.3744C132.323 76.4261 132.484 76.4936 132.627 76.577C132.774 76.6604 132.891 76.7736 132.978 76.9166C133.07 77.0595 133.115 77.2402 133.115 77.4587C133.115 77.6811 133.054 77.8876 132.931 78.0783C132.811 78.2649 132.627 78.4158 132.376 78.531C132.126 78.6422 131.811 78.6978 131.429 78.6978Z" fill="white"/>
<path d="M95.902 60.0568V51.5357H92.5659V50.3263H100.614V51.5357H97.2782V60.0568H95.902Z" fill="white"/>
<path fill-rule="evenodd" clip-rule="evenodd" d="M92.424 50.1845H100.756V51.6775H97.4201V60.1986H95.7602V51.6775H92.424V50.1845ZM92.7077 50.4681V51.3938H96.0439V59.915H97.1364V51.3938H100.473V50.4681H92.7077Z" fill="white"/>
<path d="M96.5884 44.707C95.847 44.707 95.1566 44.5819 94.5172 44.3317C93.887 44.0815 93.3403 43.7339 92.8769 43.2891C92.4135 42.835 92.0521 42.3068 91.7926 41.7044C91.5332 41.1021 91.4034 40.4441 91.4034 39.7305C91.4034 39.017 91.5332 38.359 91.7926 37.7566C92.0521 37.1543 92.4135 36.6307 92.8769 36.1858C93.3403 35.7318 93.887 35.3796 94.5172 35.1294C95.1473 34.8792 95.8377 34.7541 96.5884 34.7541C97.3298 34.7541 98.0109 34.8792 98.6318 35.1294C99.262 35.3703 99.8087 35.7179 100.272 36.1719C100.745 36.6168 101.106 37.1404 101.356 37.7427C101.616 38.3451 101.746 39.0077 101.746 39.7305C101.746 40.4534 101.616 41.116 101.356 41.7183C101.106 42.3207 100.745 42.8489 100.272 43.303C99.8087 43.7478 99.262 44.0953 98.6318 44.3456C98.0109 44.5865 97.3298 44.707 96.5884 44.707ZM96.5884 43.4698C97.1259 43.4698 97.6217 43.3771 98.0758 43.1918C98.5391 43.0065 98.9376 42.747 99.2712 42.4134C99.6141 42.0705 99.8782 41.672 100.064 41.2179C100.258 40.7638 100.355 40.268 100.355 39.7305C100.355 39.193 100.258 38.6972 100.064 38.2432C99.8782 37.7891 99.6141 37.3952 99.2712 37.0616C98.9376 36.7187 98.5391 36.4546 98.0758 36.2692C97.6217 36.0839 97.1259 35.9912 96.5884 35.9912C96.0416 35.9912 95.5366 36.0839 95.0732 36.2692C94.6191 36.4546 94.2206 36.7187 93.8777 37.0616C93.5349 37.3952 93.2661 37.7891 93.0715 38.2432C92.8862 38.6972 92.7935 39.193 92.7935 39.7305C92.7935 40.268 92.8862 40.7638 93.0715 41.2179C93.2661 41.672 93.5349 42.0705 93.8777 42.4134C94.2206 42.747 94.6191 43.0065 95.0732 43.1918C95.5366 43.3771 96.0416 43.4698 96.5884 43.4698Z" fill="white"/>
<path fill-rule="evenodd" clip-rule="evenodd" d="M96.5884 34.8959C95.8537 34.8959 95.1813 35.0183 94.5695 35.2612C93.9561 35.5048 93.4255 35.8468 92.9762 36.2872L92.9751 36.2882C92.5257 36.7196 92.1751 37.2274 91.9229 37.8127C91.6717 38.3959 91.5453 39.0345 91.5453 39.7305C91.5453 40.4265 91.6717 41.0652 91.9229 41.6483C92.1751 42.2337 92.5259 42.7464 92.9757 43.1873C93.4249 43.6184 93.9556 43.956 94.5693 44.1997C95.1908 44.4429 95.8634 44.5651 96.5884 44.5651C97.314 44.5651 97.9774 44.4473 98.58 44.2135C99.1938 43.9697 99.7246 43.632 100.174 43.2007C100.632 42.7601 100.983 42.2481 101.225 41.6639L101.226 41.6622C101.477 41.0793 101.604 40.436 101.604 39.7305C101.604 39.025 101.477 38.3818 101.226 37.7988L101.225 37.7971C100.983 37.2132 100.633 36.7063 100.175 36.2752L100.173 36.2733C99.7239 35.8333 99.1939 35.4962 98.5811 35.2619L98.5788 35.261C97.9764 35.0182 97.3135 34.8959 96.5884 34.8959ZM94.4648 34.9976C95.1134 34.7401 95.8217 34.6122 96.5884 34.6122C97.3455 34.6122 98.0445 34.74 98.6836 34.9974C99.3303 35.2448 99.893 35.6022 100.37 36.0696C100.857 36.5278 101.229 37.0675 101.487 37.6874C101.755 38.309 101.887 38.9907 101.887 39.7305C101.887 40.4704 101.755 41.152 101.487 41.7736C101.229 42.3937 100.857 42.938 100.37 43.4053C99.893 43.8635 99.3304 44.2208 98.6841 44.4774L98.6831 44.4778C98.0441 44.7258 97.3453 44.8488 96.5884 44.8488C95.8307 44.8488 95.1227 44.7209 94.4655 44.4638L94.4648 44.4635C93.8186 44.2069 93.256 43.8497 92.7787 43.3914L92.7776 43.3904C92.3009 42.9233 91.9291 42.3797 91.6624 41.7605C91.3946 41.139 91.2616 40.4617 91.2616 39.7305C91.2616 38.9994 91.3946 38.3221 91.6624 37.7005C91.9291 37.0814 92.3011 36.5421 92.7781 36.084C93.2555 35.6164 93.8182 35.2543 94.4648 34.9976ZM95.0205 36.1376C95.5022 35.9449 96.0253 35.8494 96.5884 35.8494C97.1423 35.8494 97.6563 35.9449 98.1288 36.1377C98.609 36.3298 99.0238 36.6043 99.3715 36.9613C99.7278 37.3083 100.002 37.7178 100.194 38.1884C100.397 38.6613 100.497 39.176 100.497 39.7305C100.497 40.2851 100.397 40.7997 100.194 41.2727C100.002 41.7435 99.7276 42.1576 99.3715 42.5137C99.0236 42.8615 98.6088 43.1313 98.1289 43.3233C97.6563 43.5161 97.1423 43.6117 96.5884 43.6117C96.0253 43.6117 95.5022 43.5162 95.0205 43.3235L95.0196 43.3231C94.5491 43.1311 94.1351 42.8617 93.7788 42.515L93.7774 42.5137C93.4216 42.1578 93.1427 41.7441 92.9411 41.2738L92.9402 41.2715C92.7472 40.7988 92.6516 40.2846 92.6516 39.7305C92.6516 39.1764 92.7472 38.6622 92.9402 38.1895L92.9411 38.1873C93.1427 37.7169 93.4217 37.3075 93.7781 36.9606C93.7779 36.9608 93.7777 36.9611 93.7774 36.9613L93.8777 37.0616L93.7788 36.9599C93.7786 36.9602 93.7784 36.9604 93.7781 36.9606C94.1344 36.6046 94.5485 36.3302 95.0196 36.1379L95.0205 36.1376ZM95.1263 36.4008C94.6897 36.5791 94.3073 36.8326 93.978 37.1619L93.9767 37.1633C93.6479 37.4831 93.3898 37.8609 93.2024 38.2979C93.0249 38.7331 92.9353 39.2101 92.9353 39.7305C92.9353 40.251 93.0249 40.728 93.2024 41.1632C93.3898 41.6002 93.6481 41.9829 93.9774 42.3124C94.3066 42.6325 94.6892 42.8818 95.1263 43.0603C95.5712 43.2382 96.0581 43.328 96.5884 43.328C97.1093 43.328 97.5866 43.2382 98.0222 43.0605L98.0231 43.0601C98.4696 42.8815 98.8517 42.6323 99.1709 42.3131C99.5003 41.9837 99.7539 41.6011 99.9322 41.1643L99.9332 41.162C100.12 40.7271 100.214 40.2505 100.214 39.7305C100.214 39.2105 100.12 38.734 99.9332 38.299L99.9322 38.2968C99.7541 37.8603 99.5008 37.4829 99.1723 37.1633L99.1695 37.1605C98.8504 36.8325 98.4688 36.5792 98.0231 36.4009L98.0222 36.4006C97.5866 36.2228 97.1093 36.1331 96.5884 36.1331C96.0581 36.1331 95.5712 36.2229 95.1263 36.4008Z" fill="white"/>
<path d="M108.447 44.7376V35.0071H112.812C113.934 35.0071 114.795 35.2342 115.398 35.6883C116 36.1331 116.301 36.7447 116.301 37.5232C116.301 38.0514 116.181 38.4962 115.94 38.8576C115.708 39.2191 115.393 39.4971 114.995 39.6917C114.596 39.8863 114.165 39.9836 113.702 39.9836L113.952 39.5666C114.508 39.5666 114.999 39.6639 115.426 39.8585C115.852 40.0531 116.19 40.3404 116.44 40.7203C116.691 41.091 116.816 41.5544 116.816 42.1104C116.816 42.9445 116.501 43.5932 115.87 44.0565C115.249 44.5106 114.323 44.7376 113.09 44.7376H108.447ZM109.837 43.6117H113.035C113.804 43.6117 114.392 43.4819 114.8 43.2225C115.208 42.963 115.412 42.5552 115.412 41.9992C115.412 41.4339 115.208 41.0215 114.8 40.762C114.392 40.5026 113.804 40.3728 113.035 40.3728H109.712V39.2469H112.687C113.391 39.2469 113.938 39.1171 114.327 38.8576C114.717 38.5982 114.911 38.2089 114.911 37.69C114.911 37.171 114.717 36.7818 114.327 36.5223C113.938 36.2628 113.391 36.1331 112.687 36.1331H109.837V43.6117Z" fill="white"/>
<path fill-rule="evenodd" clip-rule="evenodd" d="M108.306 34.8653H112.812C113.95 34.8653 114.846 35.0952 115.483 35.5746C116.122 36.0473 116.443 36.7021 116.443 37.5232C116.443 38.0728 116.318 38.5461 116.059 38.9353C115.869 39.2313 115.626 39.4745 115.331 39.6646C115.383 39.6849 115.434 39.7065 115.484 39.7295C115.934 39.9347 116.293 40.2391 116.558 40.6417C116.828 41.0409 116.957 41.5334 116.957 42.1104C116.957 42.9861 116.624 43.6787 115.954 44.1708C115.299 44.6505 114.336 44.8795 113.09 44.8795H108.306V34.8653ZM114.968 39.5467C114.654 39.4651 114.315 39.4247 113.952 39.4247H113.872L113.451 40.1255H113.702C114.162 40.1255 114.593 40.0335 114.995 39.8487C115.124 39.8872 115.248 39.9335 115.367 39.9875C115.769 40.1714 116.087 40.4414 116.322 40.7984L116.323 40.7997C116.554 41.1418 116.674 41.5758 116.674 42.1104C116.674 42.9028 116.377 43.5076 115.786 43.9422C115.2 44.3706 114.309 44.5958 113.09 44.5958H108.589V35.149H112.812C113.917 35.149 114.744 35.3731 115.312 35.8015L115.314 35.8024C115.878 36.2192 116.159 36.7877 116.159 37.5232C116.159 38.0295 116.044 38.4455 115.822 38.779L115.82 38.7811C115.61 39.1093 115.327 39.3642 114.968 39.5467ZM114.47 39.7399C114.305 39.7857 114.135 39.8161 113.959 39.831L114.032 39.7091C114.184 39.7118 114.329 39.7221 114.47 39.7399ZM109.696 35.9913H112.687C113.406 35.9913 113.985 36.1233 114.406 36.4043C114.84 36.6933 115.053 37.1297 115.053 37.69C115.053 38.2503 114.84 38.6867 114.406 38.9757C113.985 39.2567 113.406 39.3887 112.687 39.3887H109.979V40.231H113.035C113.816 40.231 114.436 40.3622 114.876 40.6424C115.332 40.9327 115.554 41.395 115.554 41.9992C115.554 42.5952 115.332 43.0523 114.876 43.3421C114.436 43.6223 113.816 43.7535 113.035 43.7535H109.696V40.5147H109.571V39.105H109.696V35.9913ZM109.979 39.105H112.687C113.377 39.105 113.892 38.9776 114.249 38.7396C114.594 38.5097 114.769 38.1676 114.769 37.69C114.769 37.2123 114.594 36.8703 114.249 36.6403C113.892 36.4024 113.377 36.275 112.687 36.275H109.979V39.105ZM109.979 40.5147V43.4698H113.035C113.791 43.4698 114.349 43.3416 114.724 43.1028C115.084 42.8736 115.27 42.5153 115.27 41.9992C115.27 41.4728 115.083 41.1104 114.724 40.8817C114.349 40.6429 113.791 40.5147 113.035 40.5147H109.979Z" fill="white"/>
<path d="M112.669 29.1041C111.927 29.1041 111.242 28.9837 110.611 28.7427C109.99 28.4925 109.448 28.145 108.985 27.7002C108.531 27.2461 108.174 26.7179 107.915 26.1155C107.655 25.5131 107.525 24.8505 107.525 24.1277C107.525 23.4049 107.655 22.7423 107.915 22.1399C108.174 21.5375 108.536 21.0139 108.999 20.5691C109.462 20.115 110.004 19.7675 110.625 19.5266C111.255 19.2763 111.941 19.1512 112.683 19.1512C113.433 19.1512 114.124 19.281 114.754 19.5405C115.393 19.7907 115.935 20.166 116.38 20.6664L115.477 21.5422C115.106 21.1529 114.689 20.8657 114.226 20.6803C113.762 20.4857 113.266 20.3884 112.738 20.3884C112.191 20.3884 111.682 20.4811 111.209 20.6664C110.746 20.8518 110.343 21.1112 110 21.4449C109.657 21.7785 109.388 22.177 109.194 22.6403C109.008 23.0944 108.915 23.5902 108.915 24.1277C108.915 24.6652 109.008 25.1656 109.194 25.629C109.388 26.0831 109.657 26.4769 110 26.8105C110.343 27.1441 110.746 27.4036 111.209 27.589C111.682 27.7743 112.191 27.867 112.738 27.867C113.266 27.867 113.762 27.7743 114.226 27.589C114.689 27.3944 115.106 27.0978 115.477 26.6993L116.38 27.5751C115.935 28.0755 115.393 28.4554 114.754 28.7149C114.124 28.9744 113.429 29.1041 112.669 29.1041Z" fill="white"/>
<path fill-rule="evenodd" clip-rule="evenodd" d="M112.683 19.2931C111.957 19.2931 111.29 19.4154 110.678 19.6584L110.677 19.6588C110.073 19.893 109.547 20.2301 109.098 20.6704L109.097 20.6714C108.648 21.1029 108.297 21.6107 108.045 22.196C107.794 22.7789 107.667 23.4222 107.667 24.1277C107.667 24.8332 107.794 25.4765 108.045 26.0594C108.297 26.6451 108.644 27.158 109.084 27.5988C109.533 28.0298 110.059 28.3672 110.663 28.6107C111.275 28.8446 111.943 28.9623 112.669 28.9623C113.412 28.9623 114.089 28.8354 114.7 28.5838L114.7 28.5835C115.277 28.3496 115.77 28.0154 116.182 27.5809L115.48 26.9003C115.122 27.2604 114.722 27.5342 114.28 27.7197L114.278 27.7207C113.797 27.9131 113.283 28.0088 112.738 28.0088C112.175 28.0088 111.648 27.9133 111.157 27.721L111.156 27.7207C110.677 27.5287 110.258 27.2593 109.901 26.9122C109.544 26.5651 109.265 26.1555 109.063 25.6848L109.062 25.6817C108.869 25.2003 108.774 24.6818 108.774 24.1277C108.774 23.5736 108.869 23.0594 109.062 22.5867L109.063 22.5854C109.264 22.1054 109.544 21.6908 109.901 21.3432C110.258 20.9961 110.677 20.7266 111.156 20.5347L111.157 20.5344C111.648 20.3421 112.175 20.2466 112.738 20.2466C113.284 20.2466 113.798 20.3471 114.279 20.5491C114.721 20.7259 115.121 20.9909 115.479 21.3424L116.182 20.6607C115.771 20.2271 115.278 19.8978 114.702 19.6725L114.7 19.6716C114.088 19.4199 113.417 19.2931 112.683 19.2931ZM110.573 19.3945C111.222 19.1372 111.925 19.0094 112.683 19.0094C113.449 19.0094 114.158 19.1419 114.807 19.4088C115.466 19.667 116.026 20.0549 116.486 20.5722L116.576 20.6737L115.473 21.7436L115.374 21.64C115.016 21.2644 114.616 20.9892 114.173 20.812L114.171 20.8111C113.726 20.6242 113.249 20.5302 112.738 20.5302C112.208 20.5302 111.716 20.62 111.261 20.7983C110.815 20.977 110.428 21.2265 110.099 21.5465C109.77 21.866 109.512 22.2482 109.325 22.6946C109.147 23.1299 109.057 23.6071 109.057 24.1277C109.057 24.6479 109.147 25.1298 109.325 25.5747C109.512 26.0115 109.77 26.3891 110.099 26.7089C110.428 27.0289 110.815 27.2784 111.261 27.4571C111.716 27.6354 112.208 27.7251 112.738 27.7251C113.249 27.7251 113.726 27.6357 114.172 27.4577C114.615 27.2715 115.015 26.9874 115.373 26.6027L115.471 26.4967L116.576 27.5678L116.486 27.6693C116.027 28.1865 115.466 28.5789 114.807 28.8463C114.158 29.1134 113.445 29.246 112.669 29.246C111.912 29.246 111.209 29.1229 110.561 28.8752L110.558 28.8743C109.921 28.6176 109.364 28.2604 108.887 27.8025L108.885 27.8005C108.418 27.3334 108.051 26.7901 107.784 26.1716C107.517 25.5498 107.384 24.8678 107.384 24.1277C107.384 23.3875 107.517 22.7056 107.784 22.0838C108.051 21.4646 108.423 20.9254 108.9 20.4673C109.377 19.9998 109.936 19.6421 110.573 19.3945Z" fill="white"/>
</svg>
