<svg width="224" height="96" viewBox="0 0 224 96" fill="none" xmlns="http://www.w3.org/2000/svg">
<path d="M133.144 51.4511C136.597 51.4511 138.211 49.5328 138.451 47.3588C138.451 47.183 138.323 47.0231 138.147 47.0231H136.277C136.101 47.0231 135.989 47.167 135.957 47.3588C135.701 48.7176 134.391 49.2291 133.16 49.2291C132.728 49.2291 130.106 49.2291 130.106 45.5205C130.106 41.8118 132.728 41.8118 133.16 41.8118C134.391 41.8118 135.701 42.3234 135.957 43.6821C135.989 43.874 136.101 44.0178 136.277 44.0178H138.147C138.323 44.0178 138.451 43.858 138.451 43.6821C138.211 41.5081 136.597 39.5898 133.144 39.5898C128.252 39.5898 127.597 43.8899 127.597 45.5205C127.597 47.151 128.252 51.4511 133.144 51.4511Z" fill="white"/>
<path d="M164.172 50.9555C164.172 51.1314 164.332 51.2912 164.508 51.2912H166.346C166.522 51.2912 166.682 51.1314 166.682 50.9555V40.0854C166.682 39.9096 166.522 39.7497 166.346 39.7497H164.508C164.332 39.7497 164.172 39.9096 164.172 40.0854V50.9555Z" fill="white"/>
<path d="M169.323 39.7497C169.147 39.7497 168.988 39.9096 168.988 40.0854V41.636C168.988 41.8118 169.147 41.9717 169.323 41.9717H172.494V50.9555C172.494 51.1314 172.654 51.2912 172.83 51.2912H174.668C174.844 51.2912 175.004 51.1314 175.004 50.9555V41.9717H178.175C178.351 41.9717 178.511 41.8118 178.511 41.636V40.0854C178.511 39.9096 178.351 39.7497 178.175 39.7497H169.323Z" fill="white"/>
<path d="M192.098 50.9555C192.098 51.1314 192.257 51.2912 192.433 51.2912H199.681C199.856 51.2912 200.016 51.1314 200.016 50.9555V49.5503C200.016 49.3744 199.856 49.2146 199.681 49.2146H194.607V40.0854C194.607 39.9096 194.448 39.7497 194.272 39.7497H192.433C192.257 39.7497 192.098 39.9096 192.098 40.0854V50.9555Z" fill="white"/>
<path fill-rule="evenodd" clip-rule="evenodd" d="M143.787 39.7497C143.581 39.7497 143.454 39.9106 143.391 40.0862L139.739 49.4848C139.723 49.5268 139.714 49.5714 139.714 49.6164L139.714 51.0168C139.714 51.2174 139.877 51.3801 140.077 51.3801H141.27C141.444 51.3801 141.571 51.2192 141.65 51.0729L142.296 49.1964C142.346 49.0497 142.484 48.9512 142.639 48.9512H146.927C147.078 48.9512 147.213 49.0442 147.267 49.1848L148.003 51.1108C148.082 51.2571 148.209 51.418 148.383 51.418H149.537C149.738 51.418 149.9 51.2554 149.9 51.0547V49.76C149.9 49.7151 149.892 49.6706 149.876 49.6288L146.182 40.0862C146.119 39.9106 145.992 39.7497 145.786 39.7497H143.787ZM146.087 46.9178C146.239 46.9178 146.344 46.7665 146.292 46.6241L144.855 42.7471C144.831 42.6839 144.742 42.6839 144.719 42.7471L143.282 46.6241C143.229 46.7665 143.334 46.9178 143.486 46.9178H146.087Z" fill="white"/>
<path fill-rule="evenodd" clip-rule="evenodd" d="M183.315 39.7497C183.109 39.7497 182.982 39.9106 182.919 40.0862L179.267 49.4848C179.25 49.5268 179.242 49.5714 179.242 49.6164L179.242 51.0168C179.242 51.2174 179.404 51.3801 179.605 51.3801H180.798C180.972 51.3801 181.099 51.2192 181.178 51.0729L181.823 49.1964C181.874 49.0497 182.012 48.9512 182.167 48.9512H186.455C186.606 48.9512 186.741 49.0442 186.795 49.1848L187.531 51.1108C187.61 51.2571 187.737 51.418 187.911 51.418H189.065C189.265 51.418 189.428 51.2554 189.428 51.0547V49.76C189.428 49.7151 189.42 49.6706 189.404 49.6288L185.71 40.0862C185.647 39.9106 185.52 39.7497 185.314 39.7497H183.315ZM185.615 46.9178C185.767 46.9178 185.872 46.7665 185.819 46.6241L184.383 42.7471C184.359 42.6839 184.27 42.6839 184.246 42.7471L182.81 46.6241C182.757 46.7665 182.862 46.9178 183.014 46.9178H185.615Z" fill="white"/>
<path d="M159.771 43.2104C159.771 44.153 159.151 44.8891 158.299 44.8891H154.816C154.616 44.8891 154.453 44.7264 154.453 44.5258V41.9079C154.453 41.7073 154.616 41.5446 154.816 41.5446H158.299C159.151 41.5446 159.771 42.2677 159.771 43.2104ZM152.426 51.0924C152.426 51.2344 152.555 51.3636 152.697 51.3636H154.182C154.324 51.3636 154.453 51.2344 154.453 51.0924V46.684H158.531C160.481 46.684 161.798 45.1473 161.798 43.1975C161.798 41.2863 160.481 39.7497 158.531 39.7497H152.697C152.555 39.7497 152.426 39.8788 152.426 40.0209V51.0924Z" fill="white"/>
<path fill-rule="evenodd" clip-rule="evenodd" d="M158.299 44.7437C159.052 44.7437 159.626 44.093 159.626 43.2104C159.626 42.3293 159.053 41.6899 158.299 41.6899H154.816C154.696 41.6899 154.598 41.7875 154.598 41.9079V44.5258C154.598 44.6461 154.696 44.7437 154.816 44.7437H158.299ZM152.697 51.5089C152.475 51.5089 152.28 51.3147 152.28 51.0924V40.0209C152.28 39.7986 152.475 39.6044 152.697 39.6044H158.531C160.573 39.6044 161.944 41.2178 161.944 43.1975C161.944 45.2148 160.574 46.8293 158.531 46.8293H154.598V51.0924C154.598 51.3147 154.404 51.5089 154.182 51.5089H152.697ZM158.299 44.8891C159.151 44.8891 159.771 44.153 159.771 43.2104C159.771 42.2677 159.151 41.5446 158.299 41.5446H154.816C154.616 41.5446 154.453 41.7073 154.453 41.9079V44.5258C154.453 44.7264 154.616 44.8891 154.816 44.8891H158.299ZM152.697 51.3636C152.555 51.3636 152.426 51.2344 152.426 51.0924V40.0209C152.426 39.8788 152.555 39.7497 152.697 39.7497H158.531C160.481 39.7497 161.798 41.2863 161.798 43.1975C161.798 45.1473 160.481 46.684 158.531 46.684H154.453V51.0924C154.453 51.2344 154.324 51.3636 154.182 51.3636H152.697Z" fill="white"/>
<path fill-rule="evenodd" clip-rule="evenodd" d="M9.16406 19H112V67.1194H214.836V71H9.16406V19ZM51.8952 45.1636C51.8952 44.9513 52.0863 44.7602 52.2986 44.7602H58.8373C59.0496 44.7602 59.2406 44.9513 59.2406 45.1636V52.8095C59.2406 53.0218 59.0496 53.2128 58.8373 53.2128H57.1389C56.9266 53.2128 56.777 53.0308 56.729 52.8095L56.5176 51.7692C55.2226 53.0642 54.0361 53.4251 52.359 53.4251C45.8628 53.4251 44.9924 47.7144 44.9924 45.549C44.9924 43.3836 45.8628 37.6729 52.359 37.6729C56.6049 37.6729 58.3882 39.6684 59.0251 42.0461C59.0251 42.2584 58.8552 42.4495 58.6429 42.4495H56.4351C56.2228 42.4495 56.0742 42.2584 56.0317 42.0461C55.3524 40.2629 52.8261 40.2629 52.3802 40.2629C51.7646 40.2629 48.007 40.2629 48.007 45.549C48.007 50.8351 51.7646 50.8351 52.3802 50.8351C54.7555 50.8351 56.0187 49.8695 56.1432 47.7142C56.1548 47.5139 55.9907 47.3502 55.7901 47.3502H52.2986C52.0863 47.3502 51.8952 47.1591 51.8952 46.9469V45.1636ZM38.8605 53.2128C38.6482 53.2128 38.4572 53.0218 38.4572 52.8095V38.2885C38.4572 38.0762 38.6482 37.8852 38.8605 37.8852H41.0684C41.2807 37.8852 41.4718 38.0762 41.4718 38.2885V52.8095C41.4718 53.0218 41.2807 53.2128 41.0684 53.2128H38.8605ZM72.455 52.8095C72.455 53.0218 72.6461 53.2128 72.8584 53.2128H75.0662C75.2785 53.2128 75.4696 53.0218 75.4696 52.8095V38.2885C75.4696 38.0762 75.2785 37.8852 75.0662 37.8852H72.8584C72.6461 37.8852 72.455 38.0762 72.455 38.2885V43.9885H66.0479V38.2885C66.0479 38.0762 65.8568 37.8852 65.6445 37.8852H63.4366C63.2243 37.8852 63.0333 38.0762 63.0333 38.2885V52.8095C63.0333 53.0218 63.2243 53.2128 63.4366 53.2128H65.6445C65.8568 53.2128 66.0479 53.0218 66.0479 52.8095V46.5785H72.455V52.8095ZM83.4229 53.2128C83.2106 53.2128 83.0196 53.0218 83.0196 52.8095V40.4751H78.7991C78.5868 40.4751 78.3957 40.2841 78.3957 40.0718V38.2885C78.3957 38.0762 78.5868 37.8852 78.7991 37.8852H90.4C90.6123 37.8852 90.8033 38.0762 90.8033 38.2885V40.0718C90.8033 40.2841 90.6123 40.4751 90.4 40.4751H86.0342V52.8095C86.0342 53.0218 85.8431 53.2128 85.6308 53.2128H83.4229ZM95.8636 38.3612C95.7787 38.1489 95.6088 37.9578 95.3965 37.9578H94.0679C93.8673 37.9578 93.7046 38.1205 93.7046 38.3211V40.0812C93.7046 40.1482 93.7231 40.2138 93.7581 40.271L98.0796 47.3266V52.8095C98.0796 53.0218 98.2706 53.2128 98.4829 53.2128H100.691C100.903 53.2128 101.094 53.0218 101.094 52.8095V47.3266L105.351 40.2646C105.385 40.208 105.403 40.1431 105.403 40.077V38.3211C105.403 38.1205 105.24 37.9578 105.04 37.9578H103.704C103.492 37.9578 103.322 38.1489 103.237 38.3612L99.8578 44.1167H99.3159L95.8636 38.3612ZM17.1195 52.7038V38.2805C17.1195 38.0799 17.2821 37.9172 17.4828 37.9172H20.3267C20.4744 37.9172 20.6073 38.0066 20.6631 38.1433L25.0759 48.9618H25.4755L29.8524 38.1443C29.9079 38.0071 30.0411 37.9172 30.1891 37.9172H33.0323C33.233 37.9172 33.3956 38.0799 33.3956 38.2805V52.7038C33.3956 52.9045 33.233 53.0672 33.0323 53.0672H30.9251C30.7245 53.0672 30.5618 52.9045 30.5618 52.7038V44.2751H30.1622L26.586 52.8438C26.5296 52.9791 26.3973 53.0672 26.2507 53.0672H24.3007C24.1541 53.0672 24.0219 52.9791 23.9654 52.8438L20.3892 44.2751H19.9533V52.7038C19.9533 52.9045 19.7906 53.0672 19.59 53.0672H17.4828C17.2821 53.0672 17.1195 52.9045 17.1195 52.7038Z" fill="white"/>
</svg>
