<svg width="224" height="96" viewBox="0 0 224 96" fill="none" xmlns="http://www.w3.org/2000/svg">
<path d="M10 24H58V72H10V24Z" fill="white"/>
<path d="M32.4019 51.1996L24.084 35.6797H27.9244L32.7244 45.4399C32.7244 45.6002 32.8846 45.7604 33.0449 45.9207C33.2051 46.081 33.2051 46.2412 33.3654 46.5598L33.5256 46.7201V46.8803C33.6859 47.2008 33.6859 47.3611 33.8461 47.6816C34.0064 47.8418 34.0064 48.1624 34.1667 48.3207C34.3269 47.8399 34.6474 47.5194 34.8058 46.8803C34.966 46.3996 35.2865 45.9207 35.607 45.4399L40.407 35.6797H43.9269L35.6089 51.3617V61.2822H32.4096L32.4019 51.1996Z" fill="#131013"/>
<path d="M77.2144 37.0798C79.2366 37.0798 80.9918 37.6197 82.3425 38.7014L80.9937 40.3231C79.7785 39.5142 78.5651 38.9742 77.0827 38.9742C74.7877 38.9742 73.0344 40.1895 72.0901 42.4846C71.5502 43.8334 71.2812 45.5886 71.2812 47.8836C71.2812 49.6388 71.5482 51.1231 71.9565 52.2029C73.0363 54.7669 74.7915 55.9803 77.4891 55.9803C78.9734 55.9803 80.3241 55.5758 81.5374 54.6315L82.8862 56.3866C81.1311 57.4664 79.2614 58.0083 77.2201 58.0083C74.7915 58.0083 72.7673 57.0639 71.1476 55.0397C69.526 53.132 68.8525 50.587 68.8525 47.4849C68.8525 44.3828 69.6614 41.9523 71.2812 39.93C72.7654 38.1749 74.7915 37.0951 77.2201 37.0951L77.2144 37.0798ZM84.9066 50.4401C84.9066 48.0114 85.4465 46.1208 86.6618 44.7739C87.877 43.427 89.3613 42.6143 91.25 42.6143C93.4096 42.6143 95.161 43.4232 96.3781 45.1784C97.3225 46.5272 97.7269 48.4178 97.7269 50.711C97.7269 53.4105 96.918 55.5701 95.4319 56.9189C94.3144 57.9006 92.8707 58.4299 91.3835 58.4032C89.3613 58.4032 87.8732 57.7278 86.6599 56.2436C85.4446 54.8948 84.9047 52.8706 84.9047 50.4401H84.9066ZM94.354 46.5291C93.6786 45.3138 92.7323 44.6213 91.25 44.6213C89.7676 44.6213 88.8214 45.1612 88.146 46.2429C87.6061 47.0518 87.4707 48.4025 87.4707 50.1539C87.4707 52.449 87.7377 54.0649 88.415 55.013C89.0923 55.9612 90.0366 56.4973 91.3835 56.4973C93.0052 56.4973 94.0831 55.6884 94.623 54.2022C94.8901 53.3933 95.0274 52.2944 95.0274 50.9628C95.161 48.9405 94.8939 47.4525 94.3521 46.51L94.354 46.5291ZM102.042 46.7962C102.042 45.3119 101.909 44.0967 101.502 43.1714L103.798 42.6315C104.202 43.3068 104.337 44.1157 104.337 44.7911V44.9246C104.877 44.3847 105.417 43.8448 106.245 43.4404C107.19 42.9005 108 42.6315 108.809 42.6315C110.025 42.6315 111.104 43.1714 111.778 44.1157C111.911 44.3828 112.182 44.7911 112.318 45.0601C113.939 43.4385 115.422 42.6315 117.041 42.6315C118.121 42.6315 119.064 43.0359 119.741 43.7113C120.416 44.5202 120.821 45.4665 120.821 46.5463V57.745H118.356V46.6798C118.356 45.1955 117.681 44.5202 116.448 44.5202C115.773 44.5202 114.964 44.7873 114.288 45.3291C114.021 45.5962 113.48 46.0045 112.804 46.5444L112.537 46.8114V57.7431H109.973V47.2006C109.973 46.2563 109.84 45.579 109.569 45.2928C109.164 44.8884 108.76 44.7529 108.084 44.7529C107.005 44.7529 105.789 45.4283 104.307 46.7752V57.8404H102.044L102.042 46.7962ZM124.987 36.5399L127.416 36C127.683 37.0798 127.82 38.2951 127.82 39.7774V44.7701C129.169 43.4213 130.655 42.7479 132.14 42.7479C133.895 42.7479 135.379 43.4232 136.323 44.7701C137.403 46.1189 137.945 48.0095 137.945 50.3027C137.945 52.7313 137.405 54.6219 136.323 56.1062C135.242 57.5905 133.759 58.2658 132.004 58.2658C131.206 58.2808 130.417 58.0951 129.709 57.7259C128.9 57.3215 128.36 56.917 127.954 56.3771L127.55 57.9987H125.254C125.522 57.3234 125.659 56.0909 125.659 54.2213V40.0464C125.525 38.4248 125.392 37.2114 124.984 36.5361L124.987 36.5399ZM128.898 45.6973C128.494 45.9644 128.089 46.3727 127.819 46.7771V54.5075C128.763 55.7227 129.978 56.2626 131.443 56.2626C132.659 56.2626 133.603 55.8582 134.143 54.9138C134.818 53.834 135.223 52.3498 135.223 50.1901C135.223 48.2824 134.956 46.9507 134.278 46.1418C133.738 45.3329 132.794 44.9266 131.443 44.9266C130.634 44.793 129.688 45.0601 128.879 45.7355L128.898 45.6973ZM141.452 38.4477C141.452 37.9078 141.585 37.5033 141.991 37.0989C142.398 36.6944 142.8 36.559 143.34 36.559C143.88 36.559 144.285 36.6925 144.689 37.0989C145.094 37.5052 145.229 37.9078 145.229 38.4477C145.229 38.9876 145.095 39.3921 144.689 39.7965C144.283 40.201 143.88 40.3364 143.34 40.3364C142.8 40.3364 142.396 40.2029 141.991 39.7965C141.587 39.3901 141.452 38.9876 141.452 38.4477ZM142.012 57.8652V43.0226L144.441 42.6181V57.869L142.012 57.8652ZM149.686 46.7962C149.686 45.7164 149.686 45.041 149.552 44.7739C149.552 44.3695 149.285 43.965 149.012 43.2897L151.307 42.6143C151.676 43.3221 151.862 44.1112 151.847 44.9094C153.331 43.4251 154.951 42.6143 156.571 42.6143C157.38 42.6143 158.055 42.7479 158.73 43.1542C159.406 43.5606 159.946 44.0986 160.215 44.7758C160.482 45.3157 160.619 45.8556 160.619 46.531V57.8671H158.324V47.7463C158.324 46.531 158.191 45.724 157.784 45.3176C157.574 45.1015 157.322 44.9302 157.043 44.8141C156.765 44.698 156.466 44.6396 156.164 44.6423C155.625 44.6423 154.816 44.9094 154.005 45.3176C153.255 45.7008 152.572 46.2019 151.981 46.8019V57.8671H149.686V46.7962ZM166.016 46.2563L164.801 44.6347C166.823 43.2859 168.849 42.6124 171.009 42.6124C173.169 42.6124 174.519 43.4213 175.193 44.9075C175.46 45.4474 175.46 46.2563 175.46 47.4715V48.2804L175.326 53.1396V53.8149C175.326 54.6238 175.326 55.1638 175.46 55.5701C175.593 56.11 176 56.5145 176.54 56.7854L175.324 58.407C174.245 58.0025 173.569 57.3272 173.302 56.2474C171.953 57.5962 170.467 58.2696 168.983 58.2696C167.499 58.2696 166.283 57.8652 165.358 57.0544C164.549 56.379 164.143 55.2992 164.143 53.9504C164.107 53.1779 164.276 52.4097 164.631 51.7229C164.986 51.0361 165.516 50.4548 166.167 50.0375C167.516 49.0932 169.54 48.6887 171.97 48.6887H173.05V47.6089C173.05 46.3936 172.917 45.5866 172.51 45.3138C172.255 45.0373 171.94 44.8213 171.59 44.6814C171.241 44.5414 170.864 44.4812 170.488 44.5049C169.679 44.5049 168.733 44.772 167.653 45.1803L166.032 46.2601L166.016 46.2563ZM173.17 54.2194L173.304 50.3084H172.089C169.929 50.3084 168.578 50.7129 167.77 51.5237C167.23 52.0636 166.961 52.8725 166.961 53.9523C166.961 55.7075 167.77 56.6518 169.525 56.6518C170.291 56.608 171.031 56.3595 171.669 55.9324C172.306 55.5053 172.818 54.9151 173.15 54.2232L173.17 54.2194ZM183.156 43.0169H186.933L186.258 44.9246H183.154V54.5075C183.154 55.3164 183.288 55.8563 183.558 56.2626C183.826 56.5297 184.367 56.8025 185.043 56.8025C185.583 56.8025 186.122 56.669 186.527 56.5355L186.794 58.0197C185.985 58.4242 185.172 58.5596 184.23 58.5596C181.935 58.5596 180.857 57.4798 180.857 55.1866V44.9304H178.833V43.0226H180.741V42.7555C180.741 42.4884 180.874 41.4067 181.008 39.6515V39.2452L183.436 38.7052C183.169 40.3269 183.169 41.8092 183.169 43.0245L183.156 43.0169ZM189.364 50.4382C189.364 48.0095 189.904 46.1189 191.119 44.772C192.199 43.4232 193.819 42.6124 195.707 42.6124C197.867 42.6124 199.618 43.4213 200.835 45.1765C201.78 46.5253 202.184 48.4159 202.184 50.7091C202.184 53.4086 201.375 55.5682 199.889 56.917C198.772 57.8987 197.328 58.428 195.841 58.4013C193.819 58.4013 192.33 57.7259 191.117 56.2416C190.037 54.8928 189.362 52.8687 189.362 50.4382H189.364ZM198.947 46.5272C198.271 45.3119 197.325 44.6194 195.843 44.6194C194.36 44.6194 193.414 45.1593 192.739 46.241C192.199 47.0499 192.063 48.4006 192.063 50.152C192.063 52.4471 192.33 54.063 193.008 55.0111C193.685 55.9593 194.629 56.4954 195.976 56.4954C197.598 56.4954 198.676 55.6865 199.216 54.2003C199.483 53.3914 199.62 52.2925 199.62 50.9609C199.62 48.9386 199.353 47.4506 198.945 46.5081L198.947 46.5272ZM206.635 46.5234C206.635 45.1746 206.502 44.0948 206.095 43.2839L208.39 42.6086C208.759 43.3164 208.945 44.1055 208.93 44.9037V45.1707C210.145 43.5491 211.494 42.7421 213.114 42.7421C213.381 42.7421 213.654 42.7421 213.923 42.8757L212.978 45.4397C212.711 45.3062 212.439 45.3062 212.303 45.3062C211.763 45.3062 211.088 45.4397 210.548 45.8461C210.008 46.2525 209.468 46.655 209.199 47.1949C209.021 47.7165 208.931 48.2636 208.93 48.8146V58.1246H206.635V46.5234Z" fill="white"/>
</svg>
