<svg width="224" height="96" viewBox="0 0 224 96" fill="none" xmlns="http://www.w3.org/2000/svg">
<path d="M99.5742 41.2498H85.4064V44.5014H85.871C85.9871 44.0369 86.8 43.1079 87.8452 43.1079H90.9806V59.7143H94.1161V43.1079H97.3677C98.4129 43.1079 99.1097 43.6885 99.2258 44.2691V44.3853H99.6903L99.5742 41.2498ZM7.25161 40.2046C5.16129 42.295 4 45.3143 4 48.2175C4 51.5853 5.39355 54.6046 7.71613 56.695C10.0387 58.7853 13.1742 59.9466 16.4258 59.9466C18.1677 59.9466 21.5355 59.5982 24.9032 57.624L25.0194 57.5079L25.3677 52.8627L24.7871 52.7466L24.671 52.9788C22.2323 57.9724 18.5161 57.9724 17.0065 57.9724C10.6194 57.9724 7.71613 52.6304 7.71613 47.753C7.71613 42.9917 10.6194 38.1143 17.0065 38.1143C18.9806 38.1143 22.5806 38.8111 24.4387 43.1079L24.5548 43.3401L25.1355 43.1079L24.9032 38.3466L24.7871 38.2304C21.7677 36.953 19.329 36.3724 16.8903 36.3724C12.9419 36.4885 9.57419 37.7659 7.25161 40.2046ZM28.5032 41.2498L28.3871 41.7143C28.6194 41.8304 28.9677 42.5272 28.9677 43.3401V59.5982H31.9871V51.2369H33.2645C34.4258 51.353 34.8903 52.0498 35.5871 53.095L35.7032 53.2111L36.0516 53.9079C36.7484 54.953 37.5613 56.4627 38.4903 57.8562C39.1871 58.9014 40 59.3659 41.0452 59.5982C41.7419 59.7143 43.2516 59.7143 43.8323 59.482L44.529 59.3659L44.7613 59.2498L43.8323 59.0175C43.4839 58.9014 42.9032 58.6691 42.0903 57.7401C41.6258 57.1595 40.8129 55.882 39.6516 54.024L38.4903 52.1659C38.1419 51.7014 37.6774 51.0046 36.7484 50.424C38.4903 49.8433 40.1161 48.3337 40.1161 46.0111C40.1161 45.3143 40 44.0369 38.8387 42.9917C37.6774 41.9466 35.9355 41.3659 33.4968 41.3659L28.5032 41.2498ZM33.729 42.9917C36.8645 43.1079 36.9806 45.7788 36.9806 46.1272C36.9806 48.7982 35.0065 49.7272 33.3806 49.7272H32.1032V43.1079C32.4516 42.9917 33.0323 42.8756 33.729 42.9917ZM59.7419 41.2498V41.7143C59.9742 41.8304 60.2065 42.5272 60.2065 43.1079V59.5982H65.4323C68.9161 59.5982 71.7032 58.553 73.6774 56.4627C75.3032 54.7208 76.2323 52.5143 76.2323 50.0756C76.2323 48.682 75.7677 46.4756 74.3742 44.7337C72.5161 42.4111 69.729 41.1337 65.8968 41.1337L59.7419 41.2498ZM63.3419 43.1079H64.9677C65.4323 43.1079 66.4774 43.1079 67.2903 43.224C72.4 44.0369 72.9806 48.3337 72.9806 50.1917C72.9806 51.7014 72.7484 53.7917 71.471 55.5337C70.1935 57.1595 68.2194 57.9724 65.5484 57.9724H63.3419V43.1079ZM82.6193 41.2498H79.0193V41.7143C79.3677 41.8304 79.6 42.5272 79.6 43.224V59.5982H82.6193V41.2498ZM144.168 41.2498H140.568V41.7143C140.916 41.8304 141.148 42.5272 141.148 43.224V59.5982H144.168V41.2498ZM55.7935 41.2498H45.5742L45.6903 41.7143C45.9226 41.8304 46.271 42.5272 46.271 43.3401V59.5982H56.4903L57.1871 56.3466L56.7226 56.2304L56.6064 56.4627C55.7935 57.7401 54.8645 57.9724 51.9613 57.9724C50.9161 57.9724 49.871 57.8562 49.1742 57.8562V50.424H54.4V48.682H49.1742V42.9917H53.3548C54.2839 42.9917 55.329 43.9208 55.4452 44.5014V44.6175H55.9097L55.7935 41.2498ZM186.787 41.2498H176.568V41.7143C176.8 41.8304 177.148 42.4111 177.148 43.3401V59.5982H187.368L188.065 56.3466L187.6 56.2304L187.484 56.4627C186.671 57.7401 185.742 57.9724 182.839 57.9724C181.794 57.9724 180.748 57.8562 180.052 57.8562V50.424H185.277V48.682H180.052V42.9917H184.232C185.394 42.9917 186.206 43.9208 186.206 44.5014V44.6175H186.671L186.787 41.2498ZM108.516 37.882C107.471 38.695 106.194 40.0885 106.077 42.5272V42.6433C106.077 45.5466 107.935 47.1724 110.955 48.682C111.071 48.7982 111.303 48.9143 112.116 49.2627C114.671 50.5401 116.413 51.4691 116.413 54.024C116.413 54.953 116.065 56.2304 115.135 57.1595C114.323 57.9724 113.277 58.3208 112 58.3208C108.168 58.3208 106.774 54.953 106.426 53.4433L106.31 53.2111L105.613 53.3272L105.845 58.0885L106.194 57.9724C107.471 58.6691 109.445 59.8304 112.465 59.9466C114.555 59.9466 116.645 59.1337 118.155 57.624C119.432 56.3466 120.129 54.7208 120.129 52.9788C120.129 49.1466 117.342 47.6369 114.439 46.1272L113.858 45.7788C110.839 44.2691 109.445 43.3401 109.445 41.482C109.445 40.2046 110.49 38.1143 113.045 38.1143C116.065 38.1143 117.69 40.4369 118.039 41.8304L118.155 42.0627L118.852 41.9466L118.619 37.7659L118.503 37.6498C116.761 36.4885 114.555 36.2562 113.626 36.2562C111.535 36.3724 109.794 36.953 108.516 37.882ZM149.161 45.895C149.161 48.4498 150.671 49.7272 153.11 51.0046L154.039 51.4691C156.013 52.3982 157.29 53.095 157.29 54.953C157.29 55.3014 157.174 56.3466 156.361 57.2756C155.781 57.8562 154.968 58.2046 153.923 58.0885C151.019 58.0885 149.974 55.7659 149.51 54.4885L149.394 54.2562L148.813 54.3724L148.929 58.2046L149.045 58.3208C149.974 58.9014 151.6 59.8304 154.039 59.8304C155.665 59.8304 157.406 59.1337 158.568 57.9724C159.613 56.9272 160.077 55.6498 160.077 54.2562C160.077 51.0046 157.871 49.8433 155.548 48.682L155.084 48.4498C152.529 47.1724 151.716 46.5917 151.716 45.1982C151.716 44.153 152.413 42.7595 154.503 42.7595C156.942 42.7595 157.987 44.6175 158.219 45.5466L158.335 45.7788L158.916 45.6627L158.684 42.295L158.568 42.1788C157.174 41.2498 155.432 41.1337 154.735 41.1337C152.065 41.1337 149.161 42.7595 149.161 45.895ZM162.865 45.895C162.865 48.4498 164.374 49.7272 166.813 51.0046L167.742 51.4691C169.716 52.3982 170.994 53.095 170.994 54.953C170.994 55.3014 170.877 56.3466 170.065 57.2756C169.484 57.8562 168.671 58.2046 167.626 58.0885C164.723 58.0885 163.677 55.7659 163.213 54.4885L163.097 54.2562L162.516 54.3724L162.632 58.2046L162.748 58.3208C163.677 58.9014 165.303 59.8304 167.742 59.8304C169.368 59.8304 171.11 59.1337 172.271 57.9724C173.316 56.9272 173.781 55.6498 173.781 54.2562C173.781 51.0046 171.574 49.8433 169.252 48.682L168.787 48.4498C166.232 47.1724 165.419 46.5917 165.419 45.1982C165.419 44.6175 165.652 43.9208 166.116 43.4562C166.581 42.9917 167.277 42.7595 168.09 42.7595C170.529 42.7595 171.574 44.6175 171.806 45.5466L171.923 45.7788L172.503 45.6627L172.271 42.295L172.155 42.1788C170.761 41.2498 169.019 41.1337 168.323 41.1337C165.884 41.1337 162.865 42.7595 162.865 45.895ZM136.619 41.2498H134.181V41.7143C134.297 41.8304 134.645 42.0627 134.645 43.224V53.6756C134.645 55.6498 133.948 58.0885 130.348 58.0885C126.981 58.0885 126.284 56.1143 126.284 53.095V41.2498H122.452V41.7143C122.684 41.8304 123.148 42.295 123.148 43.3401V53.095C123.148 59.1337 127.097 59.8304 130.116 59.8304C131.626 59.8304 136.387 59.3659 136.387 53.6756L136.619 41.2498ZM213.148 36.024C215.355 36.7208 217.561 37.6498 220 39.0433C214.077 29.2885 203.626 18.7208 193.29 11.8691C195.961 14.5401 200.258 20.3466 201.419 26.5014C205.6 29.5208 209.548 32.7724 213.148 36.024ZM213.148 36.024C208.039 34.3982 203.742 34.282 200.606 34.6304C201.768 31.9595 201.884 29.1724 201.419 26.5014C193.639 20.9272 184.929 16.0498 176.684 12.4498C182.723 16.5143 189.458 28.4756 192.245 41.2498C198.284 39.5079 207.458 38.2304 219.419 42.295C217.445 40.2046 215.355 38.1143 213.148 36.024Z" fill="white"/>
</svg>
