<svg width="224" height="96" viewBox="0 0 224 96" fill="none" xmlns="http://www.w3.org/2000/svg">
<path d="M82.8034 44.8601C82.8034 44.6083 83.0085 44.4041 83.2615 44.4041H179.69C179.943 44.4041 180.148 44.6083 180.148 44.8601V46.6839C180.148 46.9358 179.943 47.1399 179.69 47.1399H83.2615C83.0085 47.1399 82.8034 46.9358 82.8034 46.6839V44.8601Z" fill="#4F4F4F"/>
<path fill-rule="evenodd" clip-rule="evenodd" d="M194.807 5.19171C194.807 4.93989 194.602 4.73575 194.349 4.73575H29.2066C28.9536 4.73575 28.7486 4.93989 28.7486 5.19171V86.8083C28.7486 87.0601 28.9536 87.2642 29.2066 87.2642H194.349C194.602 87.2642 194.807 87.0601 194.807 86.8083V5.19171ZM26.9162 2C26.4102 2 26 2.40828 26 2.91192V89.0881C26 89.5917 26.4102 90 26.9162 90H196.639C197.145 90 197.556 89.5917 197.556 89.0881V2.91192C197.556 2.40828 197.145 2 196.639 2H26.9162Z" fill="#4F4F4F"/>
<path d="M89.4733 36.6985C89.3121 36.6985 89.2094 36.6255 89.1655 36.4796L85.2735 21.6628V21.5752C85.2735 21.4439 85.3541 21.3782 85.5154 21.3782H87.6922C87.8388 21.3782 87.9341 21.4512 87.9781 21.5971L90.5727 32.6058C90.5874 32.6641 90.6094 32.6933 90.6387 32.6933C90.668 32.6933 90.69 32.6641 90.7047 32.6058L93.2333 21.619C93.2773 21.4585 93.3726 21.3782 93.5192 21.3782H95.6521C95.8426 21.3782 95.9159 21.4731 95.8719 21.6628L91.98 36.4796C91.936 36.6255 91.8334 36.6985 91.6721 36.6985H89.4733Z" fill="#F5F5F5"/>
<path d="M109.068 23.3042C109.068 23.3772 109.039 23.4428 108.98 23.5012C108.936 23.545 108.877 23.5668 108.804 23.5668H103.378C103.305 23.5668 103.268 23.6033 103.268 23.6763V27.7908C103.268 27.8638 103.305 27.9003 103.378 27.9003H108.438C108.511 27.9003 108.57 27.9295 108.613 27.9878C108.672 28.0316 108.701 28.09 108.701 28.1629V29.8262C108.701 29.8992 108.672 29.9649 108.613 30.0232C108.57 30.067 108.511 30.0889 108.438 30.0889H103.378C103.305 30.0889 103.268 30.1254 103.268 30.1983V34.4004C103.268 34.4734 103.305 34.5099 103.378 34.5099H109.033C109.106 34.5099 109.165 34.539 109.209 34.5974C109.268 34.6412 109.297 34.6995 109.297 34.7725V36.4358C109.297 36.5088 109.268 36.5744 109.209 36.6328C109.165 36.6766 109.106 36.6985 109.033 36.6985H100.982C100.908 36.6985 100.842 36.6766 100.784 36.6328C100.74 36.5744 100.718 36.5088 100.718 36.4358V21.6409C100.718 21.5679 100.74 21.5096 100.784 21.4658C100.842 21.4074 100.908 21.3782 100.982 21.3782H108.804C108.877 21.3782 108.936 21.4074 108.98 21.4658C109.039 21.5096 109.068 21.5679 109.068 21.6409V23.3042Z" fill="#F5F5F5"/>
<path d="M120.86 21.6409C120.86 21.5679 120.882 21.5096 120.926 21.4658C120.984 21.4074 121.05 21.3782 121.124 21.3782H122.918C122.991 21.3782 123.05 21.4074 123.093 21.4658C123.152 21.5096 123.181 21.5679 123.181 21.6409V36.4358C123.181 36.5088 123.152 36.5744 123.093 36.6328C123.05 36.6766 122.991 36.6985 122.918 36.6985H120.785C120.653 36.6985 120.55 36.6328 120.477 36.5015L116.141 26.4686C116.112 26.4248 116.083 26.4102 116.054 26.4248C116.024 26.4248 116.01 26.454 116.01 26.5123L116.032 36.4358C116.032 36.5088 116.002 36.5744 115.944 36.6328C115.9 36.6766 115.841 36.6985 115.768 36.6985H113.974C113.901 36.6985 113.835 36.6766 113.776 36.6328C113.732 36.5744 113.71 36.5088 113.71 36.4358V21.6409C113.71 21.5679 113.732 21.5096 113.776 21.4658C113.835 21.4074 113.901 21.3782 113.974 21.3782H116.085C116.231 21.3782 116.334 21.4439 116.393 21.5752L120.75 31.6519C120.779 31.6957 120.809 31.7176 120.838 31.7176C120.867 31.703 120.882 31.6665 120.882 31.6081L120.86 21.6409Z" fill="#F5F5F5"/>
<path d="M137.164 21.3782C137.237 21.3782 137.296 21.4074 137.34 21.4658C137.398 21.5096 137.428 21.5679 137.428 21.6409V23.3261C137.428 23.399 137.398 23.4647 137.34 23.5231C137.296 23.5668 137.237 23.5887 137.164 23.5887H133.755C133.682 23.5887 133.646 23.6252 133.646 23.6982V36.4358C133.646 36.5088 133.616 36.5744 133.558 36.6328C133.514 36.6766 133.455 36.6985 133.382 36.6985H131.359C131.285 36.6985 131.219 36.6766 131.161 36.6328C131.117 36.5744 131.095 36.5088 131.095 36.4358V23.6982C131.095 23.6252 131.058 23.5887 130.985 23.5887H127.709C127.635 23.5887 127.569 23.5668 127.511 23.5231C127.467 23.4647 127.445 23.399 127.445 23.3261V21.6409C127.445 21.5679 127.467 21.5096 127.511 21.4658C127.569 21.4074 127.635 21.3782 127.709 21.3782H137.164Z" fill="#F5F5F5"/>
<path d="M146.413 36.8735C145.46 36.8735 144.617 36.6766 143.884 36.2826C143.151 35.8887 142.579 35.3342 142.169 34.6193C141.773 33.8897 141.575 33.0508 141.575 32.1024V21.6409C141.575 21.5679 141.597 21.5096 141.641 21.4658C141.7 21.4074 141.766 21.3782 141.839 21.3782H143.862C143.935 21.3782 143.994 21.4074 144.038 21.4658C144.096 21.5096 144.126 21.5679 144.126 21.6409V32.2337C144.126 32.9632 144.331 33.5542 144.741 34.0065C145.167 34.4588 145.724 34.6849 146.413 34.6849C147.102 34.6849 147.659 34.4588 148.084 34.0065C148.509 33.5542 148.721 32.9632 148.721 32.2337V21.6409C148.721 21.5679 148.743 21.5096 148.787 21.4658C148.846 21.4074 148.912 21.3782 148.985 21.3782H151.008C151.081 21.3782 151.14 21.4074 151.184 21.4658C151.243 21.5096 151.272 21.5679 151.272 21.6409V32.1024C151.272 33.0508 151.067 33.8897 150.656 34.6193C150.261 35.3342 149.696 35.8887 148.963 36.2826C148.23 36.6766 147.38 36.8735 146.413 36.8735Z" fill="#F5F5F5"/>
<path d="M163.032 36.6985C162.87 36.6985 162.768 36.6255 162.724 36.4796L160.349 30.1983C160.32 30.1399 160.283 30.1108 160.239 30.1108H158.577C158.504 30.1108 158.467 30.1472 158.467 30.2202V36.4358C158.467 36.5088 158.438 36.5744 158.379 36.6328C158.335 36.6766 158.277 36.6985 158.203 36.6985H156.409C156.336 36.6985 156.27 36.6766 156.212 36.6328C156.168 36.5744 156.146 36.5088 156.146 36.4358V21.6409C156.146 21.5679 156.168 21.5096 156.212 21.4658C156.27 21.4074 156.336 21.3782 156.409 21.3782H161.031C161.866 21.3782 162.606 21.5679 163.251 21.9473C163.896 22.312 164.395 22.8373 164.747 23.5231C165.098 24.1942 165.274 24.9675 165.274 25.843C165.274 26.7914 165.055 27.6158 164.615 28.3161C164.175 29.0165 163.574 29.5125 162.812 29.8044C162.738 29.8335 162.716 29.8846 162.746 29.9576L165.34 36.392C165.355 36.4212 165.362 36.465 165.362 36.5234C165.362 36.6401 165.289 36.6985 165.142 36.6985H163.032ZM158.577 23.5668C158.504 23.5668 158.467 23.6033 158.467 23.6763V28.0316C158.467 28.1045 158.504 28.141 158.577 28.141H160.657C161.273 28.141 161.771 27.9367 162.152 27.5282C162.533 27.1051 162.724 26.5506 162.724 25.8649C162.724 25.1645 162.533 24.6101 162.152 24.2015C161.771 23.7784 161.273 23.5668 160.657 23.5668H158.577Z" fill="#F5F5F5"/>
<path d="M178.878 23.3917C178.878 23.4647 178.849 23.5304 178.79 23.5887C178.746 23.6325 178.688 23.6544 178.614 23.6544H173.189C173.115 23.6544 173.079 23.6909 173.079 23.7638V27.8784C173.079 27.9513 173.115 27.9878 173.189 27.9878H178.248C178.321 27.9878 178.38 28.017 178.424 28.0754C178.482 28.1191 178.512 28.1775 178.512 28.2504V29.9138C178.512 29.9867 178.482 30.0524 178.424 30.1108C178.38 30.1545 178.321 30.1764 178.248 30.1764H173.189C173.115 30.1764 173.079 30.2129 173.079 30.2858V34.488C173.079 34.5609 173.115 34.5974 173.189 34.5974H178.843C178.917 34.5974 178.975 34.6266 179.019 34.6849C179.078 34.7287 179.107 34.7871 179.107 34.86V36.5234C179.107 36.5963 179.078 36.662 179.019 36.7203C178.975 36.7641 178.917 36.786 178.843 36.786H170.792C170.719 36.786 170.653 36.7641 170.594 36.7203C170.55 36.662 170.528 36.5963 170.528 36.5234V21.7284C170.528 21.6555 170.55 21.5971 170.594 21.5533C170.653 21.495 170.719 21.4658 170.792 21.4658H178.614C178.688 21.4658 178.746 21.495 178.79 21.5533C178.849 21.5971 178.878 21.6555 178.878 21.7284V23.3917Z" fill="#F5F5F5"/>
<path d="M90.8475 70.3409C89.8947 70.3409 89.0518 70.1512 88.3189 69.7719C87.5859 69.3779 87.0142 68.8308 86.6038 68.1304C86.208 67.4301 86.0101 66.6203 86.0101 65.7011V59.2666C86.0101 58.3474 86.208 57.5449 86.6038 56.8591C87.0142 56.1588 87.5859 55.6189 88.3189 55.2395C89.0518 54.8602 89.8947 54.6705 90.8475 54.6705C91.8004 54.6705 92.6433 54.8602 93.3762 55.2395C94.1092 55.6043 94.6735 56.1296 95.0693 56.8153C95.4798 57.4865 95.685 58.2744 95.685 59.179V59.3103C95.685 59.3833 95.6557 59.449 95.597 59.5073C95.5531 59.5657 95.4944 59.5949 95.4211 59.5949L93.3762 59.6824C93.2003 59.6824 93.1123 59.5949 93.1123 59.4198V59.1571C93.1123 58.4714 92.8998 57.9169 92.4747 57.4938C92.0642 57.0707 91.5219 56.8591 90.8475 56.8591C90.1586 56.8591 89.6015 57.0707 89.1764 57.4938C88.766 57.9169 88.5607 58.4714 88.5607 59.1571V65.8761C88.5607 66.5619 88.766 67.1163 89.1764 67.5395C89.6015 67.948 90.1586 68.1523 90.8475 68.1523C91.5219 68.1523 92.0642 67.948 92.4747 67.5395C92.8998 67.1163 93.1123 66.5619 93.1123 65.8761V65.5916C93.1123 65.4311 93.2003 65.3509 93.3762 65.3509L95.4211 65.4384C95.4944 65.4384 95.5531 65.4676 95.597 65.526C95.6557 65.5697 95.685 65.6281 95.685 65.7011V65.7886C95.685 66.6932 95.4798 67.4957 95.0693 68.1961C94.6735 68.8818 94.1092 69.4144 93.3762 69.7937C92.6433 70.1585 91.8004 70.3409 90.8475 70.3409Z" fill="#F5F5F5"/>
<path d="M107.945 70.1658C107.784 70.1658 107.681 70.0928 107.637 69.9469L107.066 67.6051C107.051 67.5468 107.014 67.5176 106.956 67.5176H102.426C102.368 67.5176 102.331 67.5468 102.316 67.6051L101.767 69.9469C101.723 70.0928 101.62 70.1658 101.459 70.1658H99.3698C99.1793 70.1658 99.106 70.071 99.1499 69.8813L103.152 55.0645C103.196 54.9185 103.298 54.8456 103.46 54.8456H105.966C106.128 54.8456 106.23 54.9185 106.274 55.0645L110.276 69.8813L110.298 69.9688C110.298 70.1001 110.217 70.1658 110.056 70.1658H107.945ZM102.844 65.3946C102.829 65.4384 102.837 65.4749 102.866 65.5041C102.895 65.5187 102.925 65.526 102.954 65.526H106.428C106.457 65.526 106.487 65.5187 106.516 65.5041C106.545 65.4749 106.553 65.4384 106.538 65.3946L104.735 58.216C104.72 58.1723 104.698 58.1504 104.669 58.1504C104.64 58.1504 104.618 58.1723 104.603 58.216L102.844 65.3946Z" fill="#F5F5F5"/>
<path d="M119.849 54.8237C120.699 54.8237 121.446 55.0134 122.091 55.3927C122.751 55.7721 123.257 56.312 123.609 57.0123C123.975 57.6981 124.158 58.486 124.158 59.376C124.158 60.2514 123.975 61.0247 123.609 61.6959C123.257 62.3671 122.751 62.8923 122.091 63.2717C121.446 63.6365 120.706 63.8189 119.871 63.8189H117.166C117.093 63.8189 117.056 63.8553 117.056 63.9283V69.9032C117.056 69.9761 117.027 70.0418 116.968 70.1001C116.924 70.1439 116.865 70.1658 116.792 70.1658H114.769C114.696 70.1658 114.63 70.1439 114.571 70.1001C114.527 70.0418 114.505 69.9761 114.505 69.9032V55.0863C114.505 55.0134 114.527 54.955 114.571 54.9113C114.63 54.8529 114.696 54.8237 114.769 54.8237H119.849ZM119.475 61.7835C120.12 61.7835 120.633 61.5719 121.014 61.1488C121.41 60.711 121.608 60.1347 121.608 59.4198C121.608 58.6902 121.41 58.1066 121.014 57.6689C120.633 57.2312 120.12 57.0123 119.475 57.0123H117.166C117.093 57.0123 117.056 57.0488 117.056 57.1217V61.674C117.056 61.747 117.093 61.7835 117.166 61.7835H119.475Z" fill="#F5F5F5"/>
<path d="M151.282 54.8456C151.355 54.8456 151.414 54.8748 151.458 54.9331C151.516 54.9769 151.546 55.0353 151.546 55.1082V56.7934C151.546 56.8664 151.516 56.9321 151.458 56.9904C151.414 57.0342 151.355 57.0561 151.282 57.0561H147.873C147.8 57.0561 147.764 57.0926 147.764 57.1655V69.9032C147.764 69.9761 147.734 70.0418 147.676 70.1001C147.632 70.1439 147.573 70.1658 147.5 70.1658H145.477C145.403 70.1658 145.338 70.1439 145.279 70.1001C145.235 70.0418 145.213 69.9761 145.213 69.9032V57.1655C145.213 57.0926 145.176 57.0561 145.103 57.0561H141.827C141.753 57.0561 141.687 57.0342 141.629 56.9904C141.585 56.9321 141.563 56.8664 141.563 56.7934V55.1082C141.563 55.0353 141.585 54.9769 141.629 54.9331C141.687 54.8748 141.753 54.8456 141.827 54.8456H151.282Z" fill="#F5F5F5"/>
<path d="M163.414 70.1658C163.253 70.1658 163.15 70.0928 163.106 69.9469L162.535 67.6051C162.52 67.5468 162.483 67.5176 162.425 67.5176H157.895C157.837 67.5176 157.8 67.5468 157.785 67.6051L157.236 69.9469C157.192 70.0928 157.089 70.1658 156.928 70.1658H154.839C154.648 70.1658 154.575 70.071 154.619 69.8813L158.621 55.0645C158.665 54.9185 158.767 54.8456 158.929 54.8456H161.435C161.597 54.8456 161.699 54.9185 161.743 55.0645L165.745 69.8813L165.767 69.9688C165.767 70.1001 165.686 70.1658 165.525 70.1658H163.414ZM158.313 65.3946C158.298 65.4384 158.306 65.4749 158.335 65.5041C158.364 65.5187 158.394 65.526 158.423 65.526H161.897C161.926 65.526 161.956 65.5187 161.985 65.5041C162.014 65.4749 162.022 65.4384 162.007 65.3946L160.204 58.216C160.189 58.1723 160.167 58.1504 160.138 58.1504C160.109 58.1504 160.087 58.1723 160.072 58.216L158.313 65.3946Z" fill="#F5F5F5"/>
<path d="M170.555 70.1658C170.482 70.1658 170.416 70.1439 170.357 70.1001C170.313 70.0418 170.291 69.9761 170.291 69.9032V55.1082C170.291 55.0353 170.313 54.9769 170.357 54.9331C170.416 54.8748 170.482 54.8456 170.555 54.8456H172.578C172.651 54.8456 172.71 54.8748 172.754 54.9331C172.813 54.9769 172.842 55.0353 172.842 55.1082V67.8678C172.842 67.9407 172.879 67.9772 172.952 67.9772H178.999C179.072 67.9772 179.131 68.0064 179.175 68.0648C179.233 68.1085 179.263 68.1669 179.263 68.2398V69.9032C179.263 69.9761 179.233 70.0418 179.175 70.1001C179.131 70.1439 179.072 70.1658 178.999 70.1658H170.555Z" fill="#F5F5F5"/>
<path d="M136.614 54.8456C136.687 54.8456 136.746 54.8748 136.79 54.9331C136.848 54.9769 136.878 55.0353 136.878 55.1082V56.7934C136.878 56.8664 136.848 56.9321 136.79 56.9904C136.746 57.0342 136.687 57.0561 136.614 57.0561H133.893C133.819 57.0561 133.783 57.0926 133.783 57.1655V69.9032C133.783 69.9761 133.753 70.0418 133.695 70.1001C133.651 70.1439 133.592 70.1658 133.519 70.1658H131.496C131.423 70.1658 131.357 70.1439 131.298 70.1001C131.254 70.0418 131.232 69.9761 131.232 69.9032V57.1655C131.232 57.0926 131.195 57.0561 131.122 57.0561H128.533C128.46 57.0561 128.394 57.0342 128.335 56.9904C128.291 56.9321 128.269 56.8664 128.269 56.7934V55.1082C128.269 55.0353 128.291 54.9769 128.335 54.9331C128.394 54.8748 128.46 54.8456 128.533 54.8456H136.614Z" fill="#F5F5F5"/>
<path d="M131.496 70.1658C131.423 70.1658 131.357 70.1439 131.298 70.1001C131.254 70.0418 131.232 69.9761 131.232 69.9032V67.8459C131.232 67.9188 131.195 67.9553 131.122 67.9553L128.533 67.9553C128.46 67.9553 128.401 67.9772 128.357 68.021C128.298 68.0793 128.269 68.145 128.269 68.2179V69.9032C128.269 69.9761 128.298 70.0345 128.357 70.0783C128.401 70.1366 128.46 70.1658 128.533 70.1658H131.496Z" fill="#F5F5F5"/>
<path d="M133.783 67.8459V69.9032C133.783 69.9761 133.753 70.0418 133.695 70.1001C133.651 70.1439 133.592 70.1658 133.519 70.1658H136.614C136.687 70.1658 136.753 70.1366 136.812 70.0783C136.856 70.0345 136.878 69.9761 136.878 69.9032V68.2179C136.878 68.145 136.856 68.0793 136.812 68.021C136.753 67.9772 136.687 67.9553 136.614 67.9553L133.893 67.9553C133.819 67.9553 133.783 67.9188 133.783 67.8459Z" fill="#F5F5F5"/>
<path fill-rule="evenodd" clip-rule="evenodd" d="M53.1463 25.801C52.141 26.8761 51.4245 28.7732 51.4245 32.0932V43.9481C51.4245 44.1999 51.6296 44.4041 51.8826 44.4041H57.1507C57.4037 44.4041 57.6088 44.6082 57.6088 44.86V46.6839C57.6088 46.9357 57.4037 47.1398 57.1507 47.1398H51.8826C51.6296 47.1398 51.4245 47.344 51.4245 47.5958V59.7927C51.4245 63.426 50.6522 66.1456 48.9662 67.9487C47.3583 69.6683 45.1454 70.3167 42.7208 70.3872C42.4679 70.3945 42.2627 70.1896 42.2627 69.9378V68.1139C42.2627 67.8621 42.4682 67.659 42.7211 67.6501C44.6797 67.5813 46.0412 67.0613 46.9542 66.0849C47.9595 65.0098 48.676 63.1127 48.676 59.7927V47.5958C48.676 47.344 48.4709 47.1398 48.2179 47.1398H42.8353C42.5823 47.1398 42.3772 46.9357 42.3772 46.6839V44.86C42.3772 44.6082 42.5823 44.4041 42.8353 44.4041H48.2179C48.4709 44.4041 48.676 44.1999 48.676 43.9481V32.0932C48.676 28.4599 49.4483 25.7403 51.1343 23.9372C52.7422 22.2176 54.9551 21.5692 57.3797 21.4987C57.6326 21.4914 57.8378 21.6963 57.8378 21.9481V23.772C57.8378 24.0238 57.6323 24.2269 57.3794 24.2358C55.4208 24.3045 54.0593 24.8246 53.1463 25.801Z" fill="#F5F5F5"/>
<path fill-rule="evenodd" clip-rule="evenodd" d="M73.3016 25.801C72.2963 26.8761 71.5798 28.7732 71.5798 32.0932V43.9481C71.5798 44.1999 71.7849 44.4041 72.0379 44.4041H77.306C77.559 44.4041 77.7641 44.6082 77.7641 44.86V46.6839C77.7641 46.9357 77.559 47.1398 77.306 47.1398H72.0379C71.7849 47.1398 71.5798 47.344 71.5798 47.5958V59.7927C71.5798 63.426 70.8075 66.1456 69.1215 67.9487C67.5136 69.6683 65.3007 70.3167 62.8761 70.3872C62.6232 70.3945 62.418 70.1896 62.418 69.9378V68.1139C62.418 67.8621 62.6235 67.659 62.8764 67.6501C64.835 67.5813 66.1965 67.0613 67.1095 66.0849C68.1148 65.0098 68.8313 63.1127 68.8313 59.7927V47.5958C68.8313 47.344 68.6262 47.1398 68.3732 47.1398H62.9906C62.7376 47.1398 62.5325 46.9357 62.5325 46.6839V44.86C62.5325 44.6082 62.7376 44.4041 62.9906 44.4041H68.3732C68.6262 44.4041 68.8313 44.1999 68.8313 43.9481V32.0932C68.8313 28.4599 69.6036 25.7403 71.2896 23.9372C72.8975 22.2176 75.1104 21.5692 77.535 21.4987C77.7879 21.4914 77.9931 21.6963 77.9931 21.9481V23.772C77.9931 24.0238 77.7876 24.2269 77.5347 24.2358C75.5761 24.3045 74.2146 24.8246 73.3016 25.801Z" fill="#F5F5F5"/>
</svg>
