<svg width="224" height="96" viewBox="0 0 224 96" fill="none" xmlns="http://www.w3.org/2000/svg">
<path d="M82.2976 40.3783H89.1715V42.8182H82.2976V40.3783ZM82.5415 48.7625H79.6581V33.2363H90.1252V35.6539H82.5415V48.7625Z" fill="white"/>
<path d="M108.366 48.9843C107.154 48.9843 106.037 48.7847 105.017 48.3854C103.997 47.9862 103.109 47.4317 102.355 46.7219C101.601 45.9974 101.017 45.1545 100.603 44.1934C100.189 43.2174 99.9819 42.1528 99.9819 40.9994C99.9819 39.846 100.189 38.7887 100.603 37.8276C101.017 36.8517 101.601 36.0088 102.355 35.299C103.109 34.5745 103.997 34.0126 105.017 33.6133C106.037 33.2141 107.146 33.0145 108.344 33.0145C109.556 33.0145 110.665 33.2141 111.671 33.6133C112.691 34.0126 113.578 34.5745 114.333 35.299C115.087 36.0088 115.671 36.8517 116.085 37.8276C116.499 38.7887 116.706 39.846 116.706 40.9994C116.706 42.1528 116.499 43.2174 116.085 44.1934C115.671 45.1693 115.087 46.0121 114.333 46.7219C113.578 47.4317 112.691 47.9862 111.671 48.3854C110.665 48.7847 109.564 48.9843 108.366 48.9843ZM108.344 46.4558C109.128 46.4558 109.852 46.3227 110.518 46.0565C111.183 45.7903 111.76 45.4133 112.248 44.9253C112.736 44.4226 113.113 43.8459 113.379 43.1952C113.66 42.5298 113.8 41.7979 113.8 40.9994C113.8 40.2009 113.66 39.4763 113.379 38.8257C113.113 38.1603 112.736 37.5836 112.248 37.0956C111.76 36.5929 111.183 36.2084 110.518 35.9423C109.852 35.6761 109.128 35.543 108.344 35.543C107.56 35.543 106.836 35.6761 106.17 35.9423C105.52 36.2084 104.943 36.5929 104.44 37.0956C103.952 37.5836 103.568 38.1603 103.287 38.8257C103.021 39.4763 102.887 40.2009 102.887 40.9994C102.887 41.7831 103.021 42.5076 103.287 43.1731C103.568 43.8385 103.952 44.4226 104.44 44.9253C104.928 45.4133 105.505 45.7903 106.17 46.0565C106.836 46.3227 107.56 46.4558 108.344 46.4558Z" fill="white"/>
<path d="M127.814 48.7625V33.2363H134.202C135.578 33.2363 136.753 33.4581 137.729 33.9017C138.72 34.3453 139.481 34.9811 140.014 35.8092C140.546 36.6372 140.812 37.6206 140.812 38.7592C140.812 39.8978 140.546 40.8811 140.014 41.7092C139.481 42.5224 138.72 43.1509 137.729 43.5945C136.753 44.0233 135.578 44.2377 134.202 44.2377H129.411L130.698 42.9291V48.7625H127.814ZM137.973 48.7625L134.047 43.1287H137.13L141.078 48.7625H137.973ZM130.698 43.2396L129.411 41.8644H134.069C135.341 41.8644 136.295 41.5909 136.931 41.0437C137.581 40.4966 137.906 39.7351 137.906 38.7592C137.906 37.7684 137.581 37.0069 136.931 36.4746C136.295 35.9423 135.341 35.6761 134.069 35.6761H129.411L130.698 34.2565V43.2396Z" fill="white"/>
<path d="M152.375 48.7625V33.2363H155.317L161.251 44.5704H160.009L165.832 33.2363H168.774L168.796 48.7625H166.068L166.046 37.5171H166.054L161.229 46.9881H159.942L155.028 37.5171H155.125V48.7625H152.375Z" fill="white"/>
<path d="M181.904 48.7625V33.2363H184.788V48.7625H181.904Z" fill="white"/>
<path d="M203.937 48.9843C202.754 48.9843 201.652 48.7921 200.632 48.4076C199.627 48.0084 198.747 47.4539 197.993 46.7441C197.253 46.0195 196.677 45.1693 196.263 44.1934C195.849 43.2174 195.642 42.1528 195.642 40.9994C195.642 39.846 195.849 38.7813 196.263 37.8054C196.677 36.8295 197.261 35.9866 198.015 35.2768C198.769 34.5523 199.649 33.9978 200.654 33.6133C201.66 33.2141 202.761 33.0145 203.959 33.0145C205.231 33.0145 206.392 33.2363 207.441 33.6799C208.491 34.1087 209.379 34.7519 210.103 35.6096L208.24 37.3618C207.678 36.7555 207.05 36.3045 206.355 36.0088C205.66 35.6983 204.906 35.543 204.092 35.543C203.279 35.543 202.532 35.6761 201.852 35.9423C201.187 36.2084 200.603 36.5855 200.1 37.0735C199.612 37.5614 199.227 38.1381 198.946 38.8035C198.68 39.4689 198.547 40.2009 198.547 40.9994C198.547 41.7979 198.68 42.5298 198.946 43.1952C199.227 43.8607 199.612 44.4373 200.1 44.9253C200.603 45.4133 201.187 45.7903 201.852 46.0565C202.532 46.3227 203.279 46.4558 204.092 46.4558C204.906 46.4558 205.66 46.3079 206.355 46.0121C207.05 45.7016 207.678 45.2358 208.24 44.6148L210.103 46.3892C209.379 47.2321 208.491 47.8753 207.441 48.3189C206.392 48.7625 205.223 48.9843 203.937 48.9843Z" fill="white"/>
<path d="M128.611 62.7486L125.475 55.6676H126.284L129.217 62.3338H128.772L131.726 55.6676H132.485L129.349 62.7486H128.611Z" fill="white"/>
<path d="M138.327 58.8338H142.07V59.4711H138.327V58.8338ZM138.408 62.1012H142.667V62.7486H137.66V55.6676H142.515V56.315H138.408V62.1012Z" fill="white"/>
<path d="M148.574 62.7486V55.6676H149.191L154.077 61.8179H153.753V55.6676H154.492V62.7486H153.875L148.999 56.5983H149.323V62.7486H148.574Z" fill="white"/>
<path d="M162.326 62.7486V56.315H159.838V55.6676H165.563V56.315H163.075V62.7486H162.326Z" fill="white"/>
<path d="M173.621 62.8093C172.717 62.8093 172.005 62.5496 171.486 62.0304C170.967 61.5111 170.707 60.7423 170.707 59.724V55.6676H171.456V59.6937C171.456 60.5299 171.645 61.1469 172.022 61.5448C172.4 61.9427 172.933 62.1416 173.621 62.1416C174.315 62.1416 174.851 61.9427 175.229 61.5448C175.607 61.1469 175.795 60.5299 175.795 59.6937V55.6676H176.524V59.724C176.524 60.7423 176.264 61.5111 175.745 62.0304C175.232 62.5496 174.524 62.8093 173.621 62.8093Z" fill="white"/>
<path d="M182.927 62.7486V55.6676H185.577C186.177 55.6676 186.693 55.7654 187.125 55.961C187.556 56.1498 187.887 56.4263 188.116 56.7905C188.352 57.1479 188.47 57.5829 188.47 58.0954C188.47 58.5944 188.352 59.026 188.116 59.3902C187.887 59.7476 187.556 60.0241 187.125 60.2197C186.693 60.4085 186.177 60.5029 185.577 60.5029H183.342L183.675 60.159V62.7486H182.927ZM187.762 62.7486L185.941 60.1792H186.751L188.581 62.7486H187.762ZM183.675 60.2197L183.342 59.8656H185.557C186.265 59.8656 186.801 59.7105 187.165 59.4003C187.536 59.0901 187.722 58.6551 187.722 58.0954C187.722 57.5289 187.536 57.0906 187.165 56.7804C186.801 56.4701 186.265 56.315 185.557 56.315H183.342L183.675 55.961V60.2197Z" fill="white"/>
<path d="M195.052 58.8338H198.795V59.4711H195.052V58.8338ZM195.133 62.1012H199.392V62.7486H194.384V55.6676H199.24V56.315H195.133V62.1012Z" fill="white"/>
<path d="M207.251 62.8093C206.725 62.8093 206.219 62.725 205.733 62.5564C205.255 62.381 204.884 62.1585 204.621 61.8887L204.914 61.3122C205.164 61.5549 205.497 61.7606 205.916 61.9292C206.34 62.0911 206.786 62.172 207.251 62.172C207.696 62.172 208.057 62.118 208.333 62.0101C208.616 61.8955 208.822 61.7438 208.95 61.5549C209.085 61.3661 209.153 61.157 209.153 60.9278C209.153 60.6513 209.072 60.4287 208.91 60.2601C208.755 60.0915 208.549 59.96 208.293 59.8656C208.036 59.7645 207.753 59.6768 207.443 59.6026C207.133 59.5284 206.823 59.4509 206.512 59.37C206.202 59.2823 205.916 59.1676 205.653 59.026C205.396 58.8844 205.187 58.699 205.025 58.4697C204.87 58.2336 204.793 57.9268 204.793 57.5491C204.793 57.1985 204.884 56.8781 205.066 56.5882C205.255 56.2914 205.541 56.0554 205.926 55.8801C206.31 55.698 206.802 55.6069 207.403 55.6069C207.8 55.6069 208.195 55.6643 208.586 55.7789C208.977 55.8868 209.314 56.0385 209.598 56.2341L209.345 56.8309C209.041 56.6286 208.718 56.4803 208.374 56.3859C208.036 56.2914 207.709 56.2442 207.392 56.2442C206.968 56.2442 206.617 56.3016 206.34 56.4162C206.064 56.5308 205.858 56.6859 205.723 56.8815C205.595 57.0703 205.531 57.2861 205.531 57.5289C205.531 57.8054 205.609 58.028 205.764 58.1965C205.926 58.3651 206.135 58.4966 206.391 58.5911C206.654 58.6855 206.941 58.7698 207.251 58.8439C207.561 58.9181 207.868 58.999 208.171 59.0867C208.482 59.1744 208.765 59.289 209.021 59.4306C209.284 59.5655 209.493 59.7476 209.648 59.9769C209.81 60.2062 209.891 60.5063 209.891 60.8772C209.891 61.2211 209.797 61.5414 209.608 61.8382C209.419 62.1281 209.129 62.3642 208.738 62.5463C208.353 62.7216 207.858 62.8093 207.251 62.8093Z" fill="white"/>
<path fill-rule="evenodd" clip-rule="evenodd" d="M38.8965 65.1329C52.2247 65.1329 63.0294 54.3283 63.0294 41C63.0294 27.6717 52.2247 16.8671 38.8965 16.8671C25.5682 16.8671 14.7635 27.6717 14.7635 41C14.7635 54.3283 25.5682 65.1329 38.8965 65.1329ZM38.8965 66C52.7036 66 63.8965 54.8071 63.8965 41C63.8965 27.1929 52.7036 16 38.8965 16C25.0894 16 13.8965 27.1929 13.8965 41C13.8965 54.8071 25.0894 66 38.8965 66Z" fill="white"/>
<path d="M29.5395 47.0694V41.5058H44.9297L39.3661 47.0694H29.5395Z" fill="white"/>
<path d="M29.5395 51.4046V56.896L35.0309 51.4046H29.5395Z" fill="white"/>
<path d="M49.265 37.1705H29.5395V31.6792H54.7563L49.265 37.1705Z" fill="white"/>
</svg>
