<svg width="224" height="96" viewBox="0 0 224 96" fill="none" xmlns="http://www.w3.org/2000/svg">
<path fill-rule="evenodd" clip-rule="evenodd" d="M162.717 20.1496C160.694 20.6418 158.357 22.524 157.446 24.3955C156.428 26.4853 156.37 29.2675 157.298 31.4422C158.197 33.5505 160.324 35.3748 162.597 35.9879C163.617 36.2632 165.924 36.2608 166.974 35.9834C169.6 35.2895 171.822 33.2323 172.636 30.7434C173.051 29.473 173.145 27.6978 172.868 26.3805C172.232 23.3565 169.874 20.9139 166.845 20.1404C165.857 19.888 163.774 19.8927 162.717 20.1496ZM166.799 23.5262C167.145 23.6815 167.687 24.0701 168.005 24.3898C170.242 26.638 169.697 31.1862 167.026 32.562C166.192 32.9913 164.924 33.1581 163.952 32.9661C162.899 32.7579 162.311 32.4599 161.644 31.7969C160.032 30.1936 159.806 26.9499 161.168 24.9607C161.651 24.2559 162.389 23.6945 163.231 23.3922C164.145 23.0643 165.921 23.131 166.799 23.5262Z" fill="white"/>
<path d="M103.704 23.3639V35.6506L105.541 35.6133L107.379 35.576L107.414 29.7701L107.448 23.9642H111.522H115.596V22.221V20.4779L111.515 20.4423L107.434 20.4069V17.5207V14.6345L111.649 14.5991L115.864 14.5636V12.8204V11.0771H109.784H103.704V23.3639Z" fill="white"/>
<path d="M119.739 25.5685C119.739 28.9963 119.792 31.1882 119.888 31.6429C120.367 33.9345 122.066 35.5419 124.41 35.9211C125.862 36.1559 127.558 35.649 128.657 34.6518C128.951 34.3849 129.229 34.1665 129.275 34.1665C129.322 34.1665 129.359 34.4987 129.359 34.9048V35.6431H131.096H132.833V27.9243V20.2055H131.104H129.374L129.333 25.2731C129.293 30.2332 129.286 30.3549 128.985 31.0102C128.358 32.3772 127.55 32.8768 126.086 32.8026C124.845 32.7396 124.198 32.3407 123.697 31.3301C123.697 31.3301 123.346 30.5 123.346 29.5V25.4145V20.2055H121.543H119.739V25.5685Z" fill="white"/>
<path d="M140.015 19.8143C138.682 20.1298 137.393 21.1419 136.827 22.3179C136.45 23.0996 136.33 24.76 136.583 25.6763C136.882 26.7575 137.897 27.6364 140.071 28.6973C142.628 29.945 143.218 30.6216 142.818 31.8506C142.522 32.763 141.234 33.1012 140.125 32.5584C139.768 32.3842 139.422 32.0491 139.117 31.5852C138.862 31.196 138.646 30.8624 138.638 30.844C138.592 30.7388 135.64 32.2305 135.64 32.3588C135.64 32.676 136.683 34.1198 137.342 34.7142C139.464 36.629 143.206 36.4216 145.201 34.2787C146.151 33.2583 146.521 32.327 146.526 30.9447C146.534 28.6679 145.788 27.7662 142.619 26.22C140.44 25.1567 139.782 24.6637 139.782 24.0955C139.782 23.5289 139.906 23.3046 140.349 23.0749C140.96 22.7573 141.551 22.93 142.114 23.5906C142.375 23.8964 142.588 24.1974 142.588 24.2594C142.588 24.3467 145.249 23.0189 145.522 22.7954C145.664 22.6785 145.006 21.6925 144.316 20.99C143.696 20.3595 143.416 20.1831 142.664 19.9496C141.719 19.6564 140.866 19.6128 140.015 19.8143Z" fill="white"/>
<path d="M149.937 27.8572V35.6431H151.674H153.411V27.8572V20.0712H151.674H149.937V27.8572Z" fill="white"/>
<path d="M150.953 12.4247C150.5 12.561 149.859 13.1399 149.591 13.6546C149.071 14.6545 149.559 16.1236 150.593 16.6716C151.301 17.0468 151.952 17.0643 152.689 16.728C153.456 16.3783 153.853 15.7671 153.92 14.8327C154.041 13.1471 152.557 11.9425 150.953 12.4247Z" fill="white"/>
<path d="M182.708 19.8759C181.818 20.1166 181.069 20.5 180.489 21.0117C180.238 21.2328 179.996 21.4137 179.951 21.4137C179.905 21.4137 179.868 21.1099 179.868 20.7386V20.0635L178.098 20.1009L176.327 20.1384V27.8572V35.576L178.098 35.6135L179.868 35.6509L179.871 31.3178C179.874 26.5051 179.97 25.4474 180.505 24.3669C181.028 23.3102 181.695 22.9551 183.142 22.964C184.334 22.9714 184.888 23.1821 185.321 23.7944C185.877 24.5805 185.922 25.0349 185.98 30.4451L186.036 35.6508L187.796 35.6133L189.556 35.576L189.546 30.0722C189.535 24.2195 189.469 23.4964 188.833 22.2429C187.842 20.2926 185.094 19.2305 182.708 19.8759Z" fill="white"/>
<path fill-rule="evenodd" clip-rule="evenodd" d="M165.203 60.3361L165.838 60.9031V50.1411H169.446V74.5728H165.838V73.0738L165.47 73.361C163.902 74.5865 162.738 75.0096 160.959 74.9998C159.413 74.9914 158.207 74.6053 156.981 73.7262C154.936 72.2599 153.82 69.81 153.814 66.7748C153.81 64.2998 154.544 62.4269 156.162 60.7824C157.69 59.229 159.24 58.639 161.457 58.7659C162.431 58.8216 162.781 58.9093 163.595 59.3008C164.13 59.5584 164.854 60.0243 165.203 60.3361ZM163.652 62.3967C165.852 63.5255 166.722 66.77 165.527 69.3921C164.168 72.3728 160.157 72.7163 158.326 70.0086C157.199 68.3414 157.12 65.7967 158.141 64.0464C158.606 63.2488 159.602 62.3951 160.347 62.1548C161.292 61.8502 162.802 61.9608 163.652 62.3967Z" fill="white"/>
<path d="M143.724 58.9118C142.986 59.1577 142.462 59.4449 141.737 60.001L141.118 60.4758V59.8054V59.1352H139.314H137.51V66.854V74.5728H139.305H141.1L141.15 69.6395C141.192 65.4235 141.232 64.6045 141.429 64.0077C141.881 62.6356 142.81 61.9626 144.259 61.9572C145.296 61.9534 145.883 62.129 146.356 62.5838C147.097 63.297 147.161 63.7988 147.231 69.4381L147.295 74.5728H149.024H150.754L150.707 68.6998C150.667 63.6534 150.629 62.7323 150.437 62.1556C149.945 60.6787 148.999 59.6697 147.555 59.0846C146.748 58.7573 144.492 58.6555 143.724 58.9118Z" fill="white"/>
<path d="M119.766 64.9372C119.805 70.6655 119.81 70.7578 120.117 71.5231C121.016 73.76 123.06 75.0751 125.444 74.9498C126.689 74.8843 127.628 74.5097 128.656 73.6684L129.359 73.0931V73.9V74.7071H131.096H132.833V66.9211V59.1352H131.105H129.376L129.334 64.2699L129.293 69.4046L128.915 70.1775C128.707 70.6027 128.346 71.0928 128.113 71.2665C126.961 72.1252 125.356 72.0878 124.325 71.178C123.418 70.3783 123.421 70.3927 123.346 64.5048L123.28 59.2023L121.503 59.1649L119.725 59.1273L119.766 64.9372Z" fill="white"/>
<path d="M103.704 62.3607V74.5803L105.541 74.543L107.379 74.5057L107.408 68.7334L107.437 62.961L111.521 62.9256L115.604 62.89L115.567 61.1805L115.53 59.4708L111.454 59.4037L107.379 59.3365V56.5175V53.6984L111.588 53.6313L115.797 53.5642L115.834 51.8526L115.872 50.1411H109.788H103.704V62.3607Z" fill="white"/>
<path fill-rule="evenodd" clip-rule="evenodd" d="M162.717 20.1498C160.694 20.6419 158.357 22.5241 157.446 24.3956C156.429 26.4854 156.37 29.2676 157.298 31.4423C158.198 33.5506 160.324 35.3749 162.597 35.988C163.618 36.2633 165.924 36.2609 166.974 35.9835C169.6 35.2896 171.823 33.2324 172.636 30.7435C173.051 29.4732 173.146 27.698 172.868 26.3807C172.232 23.3566 169.875 20.914 166.846 20.1405C165.858 19.8881 163.774 19.8928 162.717 20.1498ZM166.8 23.5263C167.145 23.6816 167.688 24.0702 168.006 24.3899C170.242 26.6381 169.697 31.1863 167.026 32.5622C166.192 32.9915 164.924 33.1582 163.952 32.9662C162.899 32.758 162.311 32.46 161.644 31.797C160.032 30.1937 159.807 26.95 161.169 24.9608C161.651 24.256 162.39 23.6946 163.232 23.3923C164.145 23.0644 165.921 23.1311 166.8 23.5263Z" fill="white"/>
<path fill-rule="evenodd" clip-rule="evenodd" d="M34.6776 31.0544C35.0904 25.6413 35.4271 21.1007 35.4259 20.9643C35.4254 20.9009 35.3884 20.8256 35.4093 20.8019C35.4923 20.708 36.4866 21.4261 44.2853 26.914C48.7415 30.0499 52.3438 32.6586 52.2904 32.711C52.089 32.9088 34.0772 41.0472 34.0039 40.9735C33.9617 40.9311 34.2649 36.4675 34.6776 31.0544Z" fill="#505350"/>
<path d="M53.8983 17.0679C50.2864 20.5286 47.3353 23.4205 47.3401 23.4944C47.3539 23.7007 64.6118 29.1743 64.6595 28.9873C64.7024 28.8191 60.748 11.4462 60.5714 11.0271C60.482 10.815 59.438 11.76 53.8983 17.0679Z" fill="#5B5E5B"/>
<path fill-rule="evenodd" clip-rule="evenodd" d="M67.1349 24.5468C67.1637 24.5178 71.0891 24.1708 75.8581 23.7756C85.109 23.0091 85.7097 22.9691 85.6269 23.1252C85.5976 23.1806 83.7206 27.0473 81.456 31.718C79.1912 36.3887 77.3239 40.1944 77.3062 40.1752C77.0892 39.9385 67.0967 24.585 67.1349 24.5468Z" fill="#676A67"/>
<path fill-rule="evenodd" clip-rule="evenodd" d="M78.2003 48.5974L82.2935 41.6507C84.5448 37.83 86.4311 34.7491 86.4855 34.8044C86.6918 35.014 94.6337 48.5586 94.5812 48.6112C94.5508 48.6417 90.8528 48.6511 86.3632 48.632L78.2003 48.5974Z" fill="#727572"/>
<path d="M48.4859 63.3722C48.9889 62.8506 51.0788 60.6807 53.1302 58.5505C55.1817 56.4202 56.8751 54.7288 56.8935 54.7917C57.4812 56.7996 60.277 67.2334 60.2379 67.2727C60.2074 67.3035 57.3449 66.6517 53.8769 65.8247L47.5713 64.3208L48.4859 63.3722Z" fill="#939693"/>
<path d="M45.6443 48.9577C45.679 48.9227 47.6781 48.5814 50.0865 48.1994C52.9477 47.7454 54.477 47.5544 54.4991 47.6483C54.5391 47.8192 51.4031 55.7837 51.2812 55.8209C51.1659 55.8561 45.5652 49.0371 45.6443 48.9577Z" fill="#9FA29F"/>
<path d="M50.6836 45.5116C50.6359 45.4682 51.1909 39.2671 51.2635 39.0326C51.2919 38.9404 51.3624 38.8687 51.4198 38.8733C51.6017 38.8882 56.7148 42.6876 56.7254 42.8158C56.7346 42.9291 50.7704 45.5904 50.6836 45.5116Z" fill="#AAADAA"/>
<path d="M57.4669 39.4614L59.8407 37.6923C61.1462 36.7194 62.2594 35.9208 62.3146 35.9176C62.3697 35.9143 62.4146 36.0176 62.4145 36.1467C62.4144 36.2758 62.5425 37.6071 62.6991 39.105C62.8559 40.6028 62.9526 41.8597 62.9142 41.8982C62.8513 41.9615 59.1759 40.3421 57.961 39.716L57.4669 39.4614Z" fill="#B5B8B5"/>
<path d="M66.8814 45.349C66.7939 45.3743 65.2335 40.5784 65.2256 40.2601C65.2233 40.1647 66.1665 40.3016 67.861 40.6427C69.3125 40.9348 70.5217 41.1947 70.5482 41.2201C70.6041 41.2738 67.0204 45.3092 66.8814 45.349Z" fill="#C0C3C0"/>
<path d="M68.1909 50.2091C68.1707 50.1927 68.3507 49.2043 68.5909 48.0125C68.8312 46.8207 69.0674 45.8457 69.1158 45.8457C69.232 45.8457 72.359 48.5092 72.4078 48.6499C72.4414 48.7464 68.2832 50.2838 68.1909 50.2091Z" fill="#CBCECB"/>
<path d="M69.9394 57.3036C69.9868 57.2559 73.379 56.0246 77.4777 54.5675C81.5765 53.1103 84.9751 51.911 85.0302 51.9021C85.0854 51.8934 85.1321 51.9315 85.1339 51.987C85.1395 52.1455 82.5568 67.9228 82.5174 67.9719C82.4978 67.9961 79.6655 65.645 76.2233 62.7473C72.7809 59.8496 69.9395 57.4587 69.9088 57.4344C69.8782 57.41 69.8919 57.3512 69.9394 57.3036Z" fill="#7D807D"/>
<path d="M64.7206 74.2487C64.6914 74.2193 63.2205 60.4452 63.2178 60.1754C63.2172 60.1199 63.2496 60.0747 63.2897 60.0747C63.4049 60.0747 75.6982 65.7367 75.8177 65.8448C75.8768 65.8982 73.4117 67.8186 70.3398 70.1123C67.2678 72.406 64.7392 74.2675 64.7206 74.2487Z" fill="#888B88"/>
</svg>
