<svg width="224" height="96" viewBox="0 0 224 96" fill="none" xmlns="http://www.w3.org/2000/svg">
<g opacity="0.7">
<g filter="url(#filter0_i_1466_264)">
<ellipse cx="10.4138" cy="43" rx="5.52508" ry="29.5" fill="#828282"/>
</g>
<g filter="url(#filter1_i_1466_264)">
<ellipse cx="10.4138" cy="43" rx="5.52508" ry="29.5" fill="#828282"/>
</g>
<ellipse cx="10.4138" cy="43" rx="5.52508" ry="29.5" fill="url(#paint0_radial_1466_264)"/>
</g>
<g opacity="0.7">
<g filter="url(#filter2_i_1466_264)">
<ellipse cx="32.7114" cy="43" rx="5.52508" ry="29.5" fill="#828282"/>
</g>
<g filter="url(#filter3_i_1466_264)">
<ellipse cx="32.7114" cy="43" rx="5.52508" ry="29.5" fill="#828282"/>
</g>
<ellipse cx="32.7114" cy="43" rx="5.52508" ry="29.5" fill="url(#paint1_radial_1466_264)"/>
</g>
<g opacity="0.7">
<g filter="url(#filter4_i_1466_264)">
<ellipse cx="55.0087" cy="43" rx="5.52508" ry="29.5" fill="#828282"/>
</g>
<g filter="url(#filter5_i_1466_264)">
<ellipse cx="55.0087" cy="43" rx="5.52508" ry="29.5" fill="#828282"/>
</g>
<ellipse cx="55.0087" cy="43" rx="5.52508" ry="29.5" fill="url(#paint2_radial_1466_264)"/>
</g>
<path d="M82.8451 37.179V23.9762H84.8372V29.7137H91.4192V23.9762H93.4177V37.179H91.4192V31.4221H84.8372V37.179H82.8451Z" fill="white"/>
<path d="M99.318 37.3982C98.6905 37.3982 98.1232 37.2821 97.616 37.0501C97.1089 36.8137 96.7071 36.472 96.4105 36.025C96.1183 35.5781 95.9721 35.0301 95.9721 34.3811C95.9721 33.8224 96.0796 33.3626 96.2945 33.0015C96.5094 32.6405 96.7995 32.3547 97.1648 32.1441C97.5301 31.9335 97.9384 31.7745 98.3896 31.6671C98.8409 31.5596 99.3008 31.478 99.7692 31.4221C100.362 31.3533 100.844 31.2975 101.213 31.2545C101.583 31.2072 101.852 31.132 102.019 31.0289C102.187 30.9257 102.271 30.7581 102.271 30.526V30.4809C102.271 29.9179 102.112 29.4817 101.793 29.1722C101.48 28.8628 101.011 28.7081 100.388 28.7081C99.7391 28.7081 99.2277 28.852 98.8538 29.14C98.4842 29.4236 98.2285 29.7395 98.0866 30.0876L96.2751 29.6751C96.49 29.0734 96.8038 28.5877 97.2163 28.2181C97.6332 27.8442 98.1124 27.5734 98.654 27.4058C99.1955 27.2339 99.7649 27.148 100.362 27.148C100.758 27.148 101.177 27.1952 101.619 27.2898C102.066 27.38 102.483 27.5477 102.87 27.7926C103.261 28.0376 103.581 28.3879 103.831 28.8434C104.08 29.2947 104.205 29.8813 104.205 30.6034V37.179H102.322V35.8252H102.245C102.12 36.0745 101.933 36.3194 101.684 36.5601C101.435 36.8008 101.114 37.0006 100.723 37.1596C100.332 37.3187 99.8638 37.3982 99.318 37.3982ZM99.737 35.851C100.27 35.851 100.725 35.7457 101.104 35.5351C101.486 35.3245 101.776 35.0494 101.974 34.7099C102.176 34.3661 102.277 33.9986 102.277 33.6075V32.3311C102.208 32.3999 102.075 32.4643 101.877 32.5245C101.684 32.5804 101.463 32.6298 101.213 32.6728C100.964 32.7114 100.721 32.748 100.485 32.7824C100.248 32.8124 100.051 32.8382 99.8917 32.8597C99.5178 32.907 99.1761 32.9865 98.8667 33.0982C98.5616 33.21 98.3166 33.3712 98.1318 33.5817C97.9513 33.788 97.861 34.0631 97.861 34.4069C97.861 34.884 98.0372 35.245 98.3896 35.49C98.7421 35.7306 99.1912 35.851 99.737 35.851Z" fill="white"/>
<path d="M109.409 33.8203L109.396 31.4672H109.731L113.085 27.2769H115.393L109.242 34.9549L109.409 33.8203ZM107.636 37.179V24.9628L109.564 23.5815V37.179H107.636ZM113.889 37.179L111.202 31.0224L112.728 29.6751L116.058 37.179H113.889Z" fill="white"/>
<path d="M124.484 33.0725V27.2769H126.418V37.179H124.522V35.4642H124.419C124.191 35.9928 123.826 36.4333 123.323 36.7857C122.825 37.1339 122.204 37.3079 121.46 37.3079C120.824 37.3079 120.261 37.1682 119.771 36.8889C119.285 36.6052 118.903 36.1862 118.624 35.6318C118.349 35.0774 118.211 34.3919 118.211 33.5753V27.2769H120.139V33.3432C120.139 34.018 120.326 34.5552 120.699 34.9549C121.073 35.3546 121.559 35.5544 122.156 35.5544C122.517 35.5544 122.876 35.4642 123.233 35.2837C123.594 35.1032 123.893 34.8302 124.129 34.4649C124.37 34.0996 124.488 33.6355 124.484 33.0725Z" fill="white"/>
<path d="M131.602 31.2996V37.179H129.675V24.9628L131.576 23.5815V28.8886H131.699C131.931 28.3556 132.285 27.9323 132.763 27.6186C133.24 27.3048 133.863 27.148 134.632 27.148C135.311 27.148 135.904 27.2876 136.411 27.567C136.923 27.8463 137.318 28.2632 137.598 28.8176C137.881 29.3678 138.023 30.0554 138.023 30.8806V37.179H136.095V31.1127C136.095 30.3863 135.908 29.8233 135.535 29.4236C135.161 29.0196 134.641 28.8176 133.974 28.8176C133.519 28.8176 133.111 28.9143 132.75 29.1077C132.393 29.3011 132.111 29.5848 131.905 29.9587C131.703 30.3283 131.602 30.7753 131.602 31.2996Z" fill="white"/>
<path d="M145.039 37.3788C144.11 37.3788 143.3 37.1661 142.608 36.7406C141.916 36.3151 141.379 35.7199 140.996 34.9549C140.614 34.1899 140.423 33.2959 140.423 32.2731C140.423 31.2459 140.614 30.3477 140.996 29.5784C141.379 28.8091 141.916 28.2117 142.608 27.7862C143.3 27.3607 144.11 27.148 145.039 27.148C145.967 27.148 146.777 27.3607 147.469 27.7862C148.161 28.2117 148.698 28.8091 149.081 29.5784C149.463 30.3477 149.654 31.2459 149.654 32.2731C149.654 33.2959 149.463 34.1899 149.081 34.9549C148.698 35.7199 148.161 36.3151 147.469 36.7406C146.777 37.1661 145.967 37.3788 145.039 37.3788ZM145.045 35.7607C145.647 35.7607 146.145 35.6017 146.541 35.2837C146.936 34.9656 147.228 34.5423 147.417 34.0137C147.611 33.485 147.707 32.9027 147.707 32.2666C147.707 31.6348 147.611 31.0546 147.417 30.526C147.228 29.9931 146.936 29.5655 146.541 29.2431C146.145 28.9208 145.647 28.7596 145.045 28.7596C144.439 28.7596 143.936 28.9208 143.536 29.2431C143.141 29.5655 142.847 29.9931 142.653 30.526C142.464 31.0546 142.37 31.6348 142.37 32.2666C142.37 32.9027 142.464 33.485 142.653 34.0137C142.847 34.5423 143.141 34.9656 143.536 35.2837C143.936 35.6017 144.439 35.7607 145.045 35.7607Z" fill="white"/>
<path d="M154.996 37.3724C154.196 37.3724 153.483 37.1682 152.855 36.76C152.232 36.3474 151.742 35.7607 151.386 35C151.033 34.235 150.857 33.3174 150.857 32.2473C150.857 31.1771 151.035 30.2617 151.392 29.501C151.753 28.7403 152.247 28.1579 152.875 27.7539C153.502 27.35 154.214 27.148 155.009 27.148C155.623 27.148 156.117 27.2511 156.491 27.4574C156.87 27.6594 157.162 27.8958 157.368 28.1665C157.579 28.4373 157.742 28.6758 157.858 28.8821H157.974V24.9628L159.902 23.5815V37.179H158.019V35.6382H157.858C157.742 35.8488 157.574 36.0895 157.355 36.3603C157.14 36.631 156.844 36.8674 156.466 37.0694C156.087 37.2714 155.597 37.3724 154.996 37.3724ZM155.421 35.7285C155.976 35.7285 156.444 35.5824 156.827 35.2901C157.213 34.9936 157.506 34.5831 157.703 34.0588C157.905 33.5345 158.006 32.9242 158.006 32.2279C158.006 31.5403 157.908 30.9386 157.71 30.4229C157.512 29.9071 157.222 29.5053 156.84 29.2173C156.457 28.9294 155.984 28.7854 155.421 28.7854C154.841 28.7854 154.358 28.9358 153.971 29.2367C153.584 29.5375 153.292 29.948 153.094 30.468C152.901 30.988 152.804 31.5747 152.804 32.2279C152.804 32.8898 152.903 33.485 153.1 34.0137C153.298 34.5423 153.59 34.9613 153.977 35.2708C154.368 35.5759 154.85 35.7285 155.421 35.7285Z" fill="white"/>
<path d="M166.899 37.3788C165.97 37.3788 165.16 37.1661 164.468 36.7406C163.776 36.3151 163.239 35.7199 162.857 34.9549C162.474 34.1899 162.283 33.2959 162.283 32.2731C162.283 31.2459 162.474 30.3477 162.857 29.5784C163.239 28.8091 163.776 28.2117 164.468 27.7862C165.16 27.3607 165.97 27.148 166.899 27.148C167.827 27.148 168.637 27.3607 169.329 27.7862C170.021 28.2117 170.558 28.8091 170.941 29.5784C171.323 30.3477 171.515 31.2459 171.515 32.2731C171.515 33.2959 171.323 34.1899 170.941 34.9549C170.558 35.7199 170.021 36.3151 169.329 36.7406C168.637 37.1661 167.827 37.3788 166.899 37.3788ZM166.905 35.7607C167.507 35.7607 168.005 35.6017 168.401 35.2837C168.796 34.9656 169.089 34.5423 169.278 34.0137C169.471 33.485 169.568 32.9027 169.568 32.2666C169.568 31.6348 169.471 31.0546 169.278 30.526C169.089 29.9931 168.796 29.5655 168.401 29.2431C168.005 28.9208 167.507 28.7596 166.905 28.7596C166.299 28.7596 165.796 28.9208 165.397 29.2431C165.001 29.5655 164.707 29.9931 164.514 30.526C164.324 31.0546 164.23 31.6348 164.23 32.2666C164.23 32.9027 164.324 33.485 164.514 34.0137C164.707 34.5423 165.001 34.9656 165.397 35.2837C165.796 35.6017 166.299 35.7607 166.905 35.7607Z" fill="white"/>
<path d="M182.169 37.179H177.895V23.9762H182.305C183.598 23.9762 184.709 24.2405 185.638 24.7691C186.566 25.2935 187.277 26.0477 187.772 27.0319C188.27 28.0118 188.519 29.1873 188.519 30.5583C188.519 31.9335 188.268 33.1154 187.765 34.1039C187.267 35.0924 186.545 35.8531 185.599 36.386C184.653 36.9147 183.51 37.179 182.169 37.179ZM179.887 35.4384H182.06C183.065 35.4384 183.901 35.2493 184.568 34.8711C185.234 34.4886 185.732 33.9363 186.063 33.2143C186.394 32.488 186.56 31.6026 186.56 30.5583C186.56 29.5225 186.394 28.6436 186.063 27.9216C185.737 27.1995 185.249 26.6516 184.6 26.2777C183.951 25.9037 183.145 25.7168 182.182 25.7168H179.887V35.4384Z" fill="white"/>
<path d="M189.304 23.9762H191.567L195.016 29.978H195.158L198.607 23.9762H200.87L196.08 31.9959V37.179H194.094V31.9959L189.304 23.9762Z" fill="white"/>
<path d="M82.6904 59.082V49.1799H84.5406V50.7916H84.6631C84.8694 50.2458 85.2068 49.8203 85.6752 49.5151C86.1437 49.2057 86.7046 49.051 87.3578 49.051C88.0197 49.051 88.5741 49.2057 89.0211 49.5151C89.4723 49.8246 89.8054 50.25 90.0203 50.7916H90.1234C90.3598 50.2629 90.7359 49.8418 91.2516 49.528C91.7674 49.21 92.3819 49.051 93.0954 49.051C93.9936 49.051 94.7264 49.3325 95.2937 49.8955C95.8653 50.4585 96.1511 51.3073 96.1511 52.4419V59.082H94.2235V52.6224C94.2235 51.952 94.0409 51.4663 93.6756 51.1655C93.3103 50.8646 92.874 50.7142 92.3669 50.7142C91.7394 50.7142 91.2516 50.9076 90.9035 51.2944C90.5554 51.6769 90.3813 52.169 90.3813 52.7707V59.082H88.4602V52.4999C88.4602 51.9627 88.2926 51.5308 87.9574 51.2042C87.6221 50.8775 87.1859 50.7142 86.6487 50.7142C86.2834 50.7142 85.946 50.8109 85.6366 51.0043C85.3314 51.1934 85.0843 51.4577 84.8952 51.7973C84.7104 52.1368 84.618 52.53 84.618 52.977V59.082H82.6904Z" fill="white"/>
<path d="M103.184 59.2818C102.208 59.2818 101.368 59.0734 100.663 58.6565C99.9626 58.2353 99.4211 57.6444 99.0386 56.8837C98.6604 56.1187 98.4713 55.2226 98.4713 54.1954C98.4713 53.1811 98.6604 52.2872 99.0386 51.5136C99.4211 50.74 99.9541 50.1362 100.637 49.7021C101.325 49.268 102.129 49.051 103.048 49.051C103.607 49.051 104.149 49.1434 104.673 49.3282C105.197 49.513 105.668 49.8031 106.085 50.1985C106.502 50.5939 106.831 51.1075 107.071 51.7392C107.312 52.3667 107.432 53.1296 107.432 54.0278V54.7112H99.5608V53.2671H105.543C105.543 52.76 105.44 52.3108 105.234 51.9197C105.028 51.5243 104.737 51.2128 104.364 50.985C103.994 50.7572 103.56 50.6433 103.061 50.6433C102.52 50.6433 102.047 50.7765 101.643 51.043C101.243 51.3052 100.934 51.649 100.715 52.0745C100.5 52.4956 100.392 52.9534 100.392 53.4476V54.5758C100.392 55.2376 100.508 55.8006 100.741 56.2648C100.977 56.729 101.306 57.0835 101.727 57.3285C102.148 57.5692 102.64 57.6895 103.203 57.6895C103.568 57.6895 103.902 57.6379 104.202 57.5348C104.503 57.4274 104.763 57.2683 104.982 57.0577C105.202 56.8472 105.369 56.5871 105.485 56.2777L107.31 56.6065C107.164 57.1437 106.901 57.6143 106.523 58.0183C106.149 58.418 105.679 58.7296 105.111 58.9531C104.548 59.1723 103.906 59.2818 103.184 59.2818Z" fill="white"/>
<path d="M113.459 59.2754C112.66 59.2754 111.946 59.0713 111.319 58.663C110.696 58.2504 110.206 57.6637 109.849 56.903C109.497 56.138 109.32 55.2204 109.32 54.1503C109.32 53.0801 109.499 52.1647 109.856 51.404C110.217 50.6433 110.711 50.0609 111.338 49.657C111.966 49.253 112.677 49.051 113.472 49.051C114.087 49.051 114.581 49.1541 114.955 49.3604C115.333 49.5624 115.625 49.7988 115.832 50.0695C116.042 50.3403 116.206 50.5788 116.322 50.7851H116.438V46.8658L118.365 45.4846V59.082H116.483V57.5412H116.322C116.206 57.7518 116.038 57.9925 115.819 58.2633C115.604 58.534 115.307 58.7704 114.929 58.9724C114.551 59.1744 114.061 59.2754 113.459 59.2754ZM113.885 57.6315C114.439 57.6315 114.908 57.4854 115.29 57.1931C115.677 56.8966 115.969 56.4861 116.167 55.9618C116.369 55.4375 116.47 54.8272 116.47 54.131C116.47 53.4433 116.371 52.8416 116.173 52.3259C115.976 51.8101 115.686 51.4083 115.303 51.1204C114.921 50.8324 114.448 50.6884 113.885 50.6884C113.305 50.6884 112.821 50.8388 112.434 51.1397C112.047 51.4405 111.755 51.851 111.557 52.371C111.364 52.891 111.267 53.4777 111.267 54.131C111.267 54.7928 111.366 55.3881 111.564 55.9167C111.762 56.4453 112.054 56.8643 112.441 57.1738C112.832 57.4789 113.313 57.6315 113.885 57.6315Z" fill="white"/>
<path d="M121.298 59.082V49.1799H123.225V59.082H121.298ZM122.271 47.652C121.936 47.652 121.648 47.5403 121.407 47.3168C121.171 47.089 121.053 46.8183 121.053 46.5045C121.053 46.1865 121.171 45.9157 121.407 45.6922C121.648 45.4645 121.936 45.3506 122.271 45.3506C122.607 45.3506 122.892 45.4645 123.129 45.6922C123.369 45.9157 123.49 46.1865 123.49 46.5045C123.49 46.8183 123.369 47.089 123.129 47.3168C122.892 47.5403 122.607 47.652 122.271 47.652Z" fill="white"/>
<path d="M128.882 59.3012C128.254 59.3012 127.687 59.1851 127.18 58.9531C126.673 58.7167 126.271 58.375 125.974 57.928C125.682 57.4811 125.536 56.9331 125.536 56.2841C125.536 55.7254 125.643 55.2656 125.858 54.9046C126.073 54.5435 126.363 54.2577 126.729 54.0471C127.094 53.8366 127.502 53.6775 127.953 53.5701C128.405 53.4626 128.865 53.381 129.333 53.3251C129.926 53.2564 130.407 53.2005 130.777 53.1575C131.147 53.1102 131.415 53.035 131.583 52.9319C131.751 52.8287 131.834 52.6611 131.834 52.429V52.3839C131.834 51.8209 131.675 51.3847 131.357 51.0752C131.044 50.7658 130.575 50.6111 129.952 50.6111C129.303 50.6111 128.792 50.755 128.418 51.043C128.048 51.3266 127.792 51.6425 127.65 51.9907L125.839 51.5781C126.054 50.9764 126.368 50.4907 126.78 50.1211C127.197 49.7472 127.676 49.4764 128.218 49.3088C128.759 49.1369 129.329 49.051 129.926 49.051C130.322 49.051 130.741 49.0982 131.183 49.1928C131.63 49.2831 132.047 49.4507 132.434 49.6956C132.825 49.9406 133.145 50.2909 133.394 50.7464C133.644 51.1977 133.768 51.7844 133.768 52.5064V59.082H131.886V57.7282H131.809C131.684 57.9775 131.497 58.2224 131.248 58.4631C130.998 58.7038 130.678 58.9036 130.287 59.0627C129.896 59.2217 129.428 59.3012 128.882 59.3012ZM129.301 57.754C129.834 57.754 130.289 57.6487 130.668 57.4381C131.05 57.2275 131.34 56.9524 131.538 56.6129C131.74 56.2691 131.841 55.9016 131.841 55.5105V54.2341C131.772 54.3029 131.639 54.3673 131.441 54.4275C131.248 54.4834 131.026 54.5328 130.777 54.5758C130.528 54.6145 130.285 54.651 130.049 54.6854C129.812 54.7155 129.615 54.7412 129.456 54.7627C129.082 54.81 128.74 54.8895 128.431 55.0013C128.125 55.113 127.88 55.2742 127.696 55.4848C127.515 55.6911 127.425 55.9661 127.425 56.3099C127.425 56.787 127.601 57.148 127.953 57.393C128.306 57.6336 128.755 57.754 129.301 57.754Z" fill="white"/>
<path d="M142.095 62.7953V49.1799H143.978V50.7851H144.139C144.251 50.5788 144.412 50.3403 144.622 50.0695C144.833 49.7988 145.125 49.5624 145.499 49.3604C145.873 49.1541 146.367 49.051 146.982 49.051C147.781 49.051 148.495 49.253 149.122 49.657C149.75 50.0609 150.242 50.6433 150.598 51.404C150.959 52.1647 151.14 53.0801 151.14 54.1503C151.14 55.2204 150.962 56.138 150.605 56.903C150.248 57.6637 149.758 58.2504 149.135 58.663C148.512 59.0713 147.8 59.2754 147.001 59.2754C146.399 59.2754 145.907 59.1744 145.525 58.9724C145.147 58.7704 144.85 58.534 144.635 58.2633C144.42 57.9925 144.255 57.7518 144.139 57.5412H144.023V62.7953H142.095ZM143.984 54.131C143.984 54.8272 144.085 55.4375 144.287 55.9618C144.489 56.4861 144.781 56.8966 145.164 57.1931C145.546 57.4854 146.015 57.6315 146.569 57.6315C147.145 57.6315 147.626 57.4789 148.013 57.1738C148.4 56.8643 148.692 56.4453 148.89 55.9167C149.092 55.3881 149.193 54.7928 149.193 54.131C149.193 53.4777 149.094 52.891 148.896 52.371C148.703 51.851 148.411 51.4405 148.02 51.1397C147.633 50.8388 147.149 50.6884 146.569 50.6884C146.01 50.6884 145.538 50.8324 145.151 51.1204C144.768 51.4083 144.478 51.8101 144.281 52.3259C144.083 52.8416 143.984 53.4433 143.984 54.131Z" fill="white"/>
<path d="M156.907 59.3012C156.28 59.3012 155.713 59.1851 155.205 58.9531C154.698 58.7167 154.296 58.375 154 57.928C153.708 57.4811 153.562 56.9331 153.562 56.2841C153.562 55.7254 153.669 55.2656 153.884 54.9046C154.099 54.5435 154.389 54.2577 154.754 54.0471C155.119 53.8366 155.528 53.6775 155.979 53.5701C156.43 53.4626 156.89 53.381 157.359 53.3251C157.952 53.2564 158.433 53.2005 158.803 53.1575C159.172 53.1102 159.441 53.035 159.608 52.9319C159.776 52.8287 159.86 52.6611 159.86 52.429V52.3839C159.86 51.8209 159.701 51.3847 159.383 51.0752C159.069 50.7658 158.601 50.6111 157.977 50.6111C157.329 50.6111 156.817 50.755 156.443 51.043C156.074 51.3266 155.818 51.6425 155.676 51.9907L153.865 51.5781C154.079 50.9764 154.393 50.4907 154.806 50.1211C155.223 49.7472 155.702 49.4764 156.243 49.3088C156.785 49.1369 157.354 49.051 157.952 49.051C158.347 49.051 158.766 49.0982 159.209 49.1928C159.656 49.2831 160.073 49.4507 160.459 49.6956C160.851 49.9406 161.171 50.2909 161.42 50.7464C161.669 51.1977 161.794 51.7844 161.794 52.5064V59.082H159.911V57.7282H159.834C159.709 57.9775 159.523 58.2224 159.273 58.4631C159.024 58.7038 158.704 58.9036 158.313 59.0627C157.922 59.2217 157.453 59.3012 156.907 59.3012ZM157.326 57.754C157.859 57.754 158.315 57.6487 158.693 57.4381C159.076 57.2275 159.366 56.9524 159.563 56.6129C159.765 56.2691 159.866 55.9016 159.866 55.5105V54.2341C159.798 54.3029 159.664 54.3673 159.467 54.4275C159.273 54.4834 159.052 54.5328 158.803 54.5758C158.553 54.6145 158.311 54.651 158.074 54.6854C157.838 54.7155 157.64 54.7412 157.481 54.7627C157.107 54.81 156.766 54.8895 156.456 55.0013C156.151 55.113 155.906 55.2742 155.721 55.4848C155.541 55.6911 155.45 55.9661 155.45 56.3099C155.45 56.787 155.627 57.148 155.979 57.393C156.331 57.6336 156.781 57.754 157.326 57.754Z" fill="white"/>
<path d="M165.087 59.082V49.1799H166.951V50.7529H167.054C167.234 50.22 167.552 49.8009 168.008 49.4958C168.468 49.1863 168.988 49.0316 169.568 49.0316C169.688 49.0316 169.83 49.0359 169.993 49.0445C170.161 49.0531 170.292 49.0639 170.387 49.0768V50.9205C170.309 50.899 170.172 50.8754 169.974 50.8496C169.776 50.8195 169.579 50.8045 169.381 50.8045C168.925 50.8045 168.519 50.9012 168.163 51.0946C167.81 51.2837 167.531 51.548 167.324 51.8875C167.118 52.2227 167.015 52.6052 167.015 53.035V59.082H165.087Z" fill="white"/>
<path d="M177.988 49.1799V50.7271H172.579V49.1799H177.988ZM174.03 47.2022L175.957 45.8209V56.1745C175.957 56.5485 176.013 56.83 176.125 57.0191C176.237 57.2039 176.381 57.3307 176.557 57.3994C176.738 57.4639 176.933 57.4961 177.144 57.4961C177.298 57.4961 177.434 57.4854 177.55 57.4639C177.666 57.4424 177.756 57.4252 177.821 57.4123L178.169 59.0046C178.057 59.0476 177.898 59.0906 177.692 59.1336C177.485 59.1809 177.227 59.2066 176.918 59.2109C176.411 59.2195 175.938 59.1293 175.5 58.9402C175.061 58.7511 174.707 58.4588 174.436 58.0634C174.165 57.668 174.03 57.1716 174.03 56.5742V47.2022Z" fill="white"/>
<path d="M182.774 53.2026V59.082H180.847V49.1799H182.697V50.7916H182.819C183.047 50.2672 183.404 49.8461 183.889 49.528C184.379 49.21 184.996 49.051 185.74 49.051C186.414 49.051 187.005 49.1928 187.512 49.4764C188.02 49.7558 188.413 50.1727 188.692 50.7271C188.972 51.2815 189.111 51.967 189.111 52.7836V59.082H187.184V53.0157C187.184 52.2979 186.997 51.7371 186.623 51.3331C186.249 50.9248 185.735 50.7207 185.082 50.7207C184.635 50.7207 184.238 50.8174 183.889 51.0108C183.546 51.2042 183.273 51.4878 183.071 51.8617C182.873 52.2313 182.774 52.6783 182.774 53.2026Z" fill="white"/>
<path d="M196.69 59.2818C195.715 59.2818 194.874 59.0734 194.17 58.6565C193.469 58.2353 192.927 57.6444 192.545 56.8837C192.167 56.1187 191.978 55.2226 191.978 54.1954C191.978 53.1811 192.167 52.2872 192.545 51.5136C192.927 50.74 193.46 50.1362 194.144 49.7021C194.831 49.268 195.635 49.051 196.555 49.051C197.114 49.051 197.655 49.1434 198.179 49.3282C198.704 49.513 199.174 49.8031 199.591 50.1985C200.008 50.5939 200.337 51.1075 200.578 51.7392C200.818 52.3667 200.939 53.1296 200.939 54.0278V54.7112H193.067V53.2671H199.05C199.05 52.76 198.947 52.3108 198.74 51.9197C198.534 51.5243 198.244 51.2128 197.87 50.985C197.5 50.7572 197.066 50.6433 196.568 50.6433C196.026 50.6433 195.553 50.7765 195.149 51.043C194.75 51.3052 194.44 51.649 194.221 52.0745C194.006 52.4956 193.899 52.9534 193.899 53.4476V54.5758C193.899 55.2376 194.015 55.8006 194.247 56.2648C194.483 56.729 194.812 57.0835 195.233 57.3285C195.654 57.5692 196.146 57.6895 196.71 57.6895C197.075 57.6895 197.408 57.6379 197.709 57.5348C198.01 57.4274 198.27 57.2683 198.489 57.0577C198.708 56.8472 198.876 56.5871 198.992 56.2777L200.816 56.6065C200.67 57.1437 200.408 57.6143 200.03 58.0183C199.656 58.418 199.185 58.7296 198.618 58.9531C198.055 59.1723 197.412 59.2818 196.69 59.2818Z" fill="white"/>
<path d="M203.803 59.082V49.1799H205.666V50.7529H205.77C205.95 50.22 206.268 49.8009 206.724 49.4958C207.184 49.1863 207.704 49.0316 208.284 49.0316C208.404 49.0316 208.546 49.0359 208.709 49.0445C208.877 49.0531 209.008 49.0639 209.103 49.0768V50.9205C209.025 50.899 208.888 50.8754 208.69 50.8496C208.492 50.8195 208.295 50.8045 208.097 50.8045C207.641 50.8045 207.235 50.9012 206.878 51.0946C206.526 51.2837 206.247 51.548 206.04 51.8875C205.834 52.2227 205.731 52.6052 205.731 53.035V59.082H203.803Z" fill="white"/>
<path d="M218.917 51.5974L217.17 51.9068C217.097 51.6834 216.981 51.4706 216.822 51.2686C216.667 51.0666 216.456 50.9012 216.19 50.7722C215.924 50.6433 215.59 50.5788 215.191 50.5788C214.645 50.5788 214.189 50.7013 213.824 50.9463C213.459 51.187 213.276 51.4986 213.276 51.8811C213.276 52.212 213.399 52.4785 213.644 52.6804C213.889 52.8824 214.284 53.0479 214.83 53.1768L216.403 53.5379C217.314 53.7484 217.993 54.0729 218.44 54.5113C218.887 54.9497 219.11 55.5191 219.11 56.2197C219.11 56.8128 218.938 57.3414 218.595 57.8056C218.255 58.2654 217.78 58.6264 217.17 58.8886C216.564 59.1508 215.861 59.2818 215.062 59.2818C213.953 59.2818 213.048 59.0455 212.348 58.5727C211.647 58.0957 211.217 57.4188 211.058 56.542L212.921 56.2584C213.038 56.744 213.276 57.1115 213.637 57.3607C213.998 57.6057 214.469 57.7282 215.049 57.7282C215.681 57.7282 216.186 57.5971 216.564 57.335C216.942 57.0685 217.131 56.744 217.131 56.3615C217.131 56.0521 217.015 55.792 216.783 55.5815C216.555 55.3709 216.205 55.2118 215.732 55.1044L214.056 54.7369C213.132 54.5263 212.449 54.1911 212.006 53.7313C211.568 53.2714 211.349 52.689 211.349 51.9842C211.349 51.3997 211.512 50.8883 211.838 50.4499C212.165 50.0115 212.616 49.6698 213.192 49.4249C213.768 49.1756 214.428 49.051 215.171 49.051C216.242 49.051 217.084 49.2831 217.698 49.7472C218.313 50.2071 218.719 50.8238 218.917 51.5974Z" fill="white"/>
<defs>
<filter id="filter0_i_1466_264" x="4.88867" y="13.5" width="11.05" height="59" filterUnits="userSpaceOnUse" color-interpolation-filters="sRGB">
<feFlood flood-opacity="0" result="BackgroundImageFix"/>
<feBlend mode="normal" in="SourceGraphic" in2="BackgroundImageFix" result="shape"/>
<feColorMatrix in="SourceAlpha" type="matrix" values="0 0 0 0 0 0 0 0 0 0 0 0 0 0 0 0 0 0 127 0" result="hardAlpha"/>
<feOffset/>
<feGaussianBlur stdDeviation="1.5786"/>
<feComposite in2="hardAlpha" operator="arithmetic" k2="-1" k3="1"/>
<feColorMatrix type="matrix" values="0 0 0 0 0 0 0 0 0 0 0 0 0 0 0 0 0 0 0.4 0"/>
<feBlend mode="normal" in2="shape" result="effect1_innerShadow_1466_264"/>
</filter>
<filter id="filter1_i_1466_264" x="4.88867" y="13.5" width="11.05" height="59" filterUnits="userSpaceOnUse" color-interpolation-filters="sRGB">
<feFlood flood-opacity="0" result="BackgroundImageFix"/>
<feBlend mode="normal" in="SourceGraphic" in2="BackgroundImageFix" result="shape"/>
<feColorMatrix in="SourceAlpha" type="matrix" values="0 0 0 0 0 0 0 0 0 0 0 0 0 0 0 0 0 0 127 0" result="hardAlpha"/>
<feOffset/>
<feGaussianBlur stdDeviation="1.18395"/>
<feComposite in2="hardAlpha" operator="arithmetic" k2="-1" k3="1"/>
<feColorMatrix type="matrix" values="0 0 0 0 0 0 0 0 0 0 0 0 0 0 0 0 0 0 1 0"/>
<feBlend mode="normal" in2="shape" result="effect1_innerShadow_1466_264"/>
</filter>
<filter id="filter2_i_1466_264" x="27.1863" y="13.5" width="11.05" height="59" filterUnits="userSpaceOnUse" color-interpolation-filters="sRGB">
<feFlood flood-opacity="0" result="BackgroundImageFix"/>
<feBlend mode="normal" in="SourceGraphic" in2="BackgroundImageFix" result="shape"/>
<feColorMatrix in="SourceAlpha" type="matrix" values="0 0 0 0 0 0 0 0 0 0 0 0 0 0 0 0 0 0 127 0" result="hardAlpha"/>
<feOffset/>
<feGaussianBlur stdDeviation="1.5786"/>
<feComposite in2="hardAlpha" operator="arithmetic" k2="-1" k3="1"/>
<feColorMatrix type="matrix" values="0 0 0 0 0 0 0 0 0 0 0 0 0 0 0 0 0 0 0.4 0"/>
<feBlend mode="normal" in2="shape" result="effect1_innerShadow_1466_264"/>
</filter>
<filter id="filter3_i_1466_264" x="27.1863" y="13.5" width="11.05" height="59" filterUnits="userSpaceOnUse" color-interpolation-filters="sRGB">
<feFlood flood-opacity="0" result="BackgroundImageFix"/>
<feBlend mode="normal" in="SourceGraphic" in2="BackgroundImageFix" result="shape"/>
<feColorMatrix in="SourceAlpha" type="matrix" values="0 0 0 0 0 0 0 0 0 0 0 0 0 0 0 0 0 0 127 0" result="hardAlpha"/>
<feOffset/>
<feGaussianBlur stdDeviation="1.18395"/>
<feComposite in2="hardAlpha" operator="arithmetic" k2="-1" k3="1"/>
<feColorMatrix type="matrix" values="0 0 0 0 0 0 0 0 0 0 0 0 0 0 0 0 0 0 1 0"/>
<feBlend mode="normal" in2="shape" result="effect1_innerShadow_1466_264"/>
</filter>
<filter id="filter4_i_1466_264" x="49.4836" y="13.5" width="11.05" height="59" filterUnits="userSpaceOnUse" color-interpolation-filters="sRGB">
<feFlood flood-opacity="0" result="BackgroundImageFix"/>
<feBlend mode="normal" in="SourceGraphic" in2="BackgroundImageFix" result="shape"/>
<feColorMatrix in="SourceAlpha" type="matrix" values="0 0 0 0 0 0 0 0 0 0 0 0 0 0 0 0 0 0 127 0" result="hardAlpha"/>
<feOffset/>
<feGaussianBlur stdDeviation="1.5786"/>
<feComposite in2="hardAlpha" operator="arithmetic" k2="-1" k3="1"/>
<feColorMatrix type="matrix" values="0 0 0 0 0 0 0 0 0 0 0 0 0 0 0 0 0 0 0.4 0"/>
<feBlend mode="normal" in2="shape" result="effect1_innerShadow_1466_264"/>
</filter>
<filter id="filter5_i_1466_264" x="49.4836" y="13.5" width="11.05" height="59" filterUnits="userSpaceOnUse" color-interpolation-filters="sRGB">
<feFlood flood-opacity="0" result="BackgroundImageFix"/>
<feBlend mode="normal" in="SourceGraphic" in2="BackgroundImageFix" result="shape"/>
<feColorMatrix in="SourceAlpha" type="matrix" values="0 0 0 0 0 0 0 0 0 0 0 0 0 0 0 0 0 0 127 0" result="hardAlpha"/>
<feOffset/>
<feGaussianBlur stdDeviation="1.18395"/>
<feComposite in2="hardAlpha" operator="arithmetic" k2="-1" k3="1"/>
<feColorMatrix type="matrix" values="0 0 0 0 0 0 0 0 0 0 0 0 0 0 0 0 0 0 1 0"/>
<feBlend mode="normal" in2="shape" result="effect1_innerShadow_1466_264"/>
</filter>
<radialGradient id="paint0_radial_1466_264" cx="0" cy="0" r="1" gradientUnits="userSpaceOnUse" gradientTransform="translate(9.03248 33.8244) rotate(90) scale(38.6756 5.13043)">
<stop stop-color="#E1E1E1"/>
<stop offset="0.416693" stop-color="#CFCFCF" stop-opacity="0.651015"/>
<stop offset="1" stop-color="#6E6E6E" stop-opacity="0"/>
</radialGradient>
<radialGradient id="paint1_radial_1466_264" cx="0" cy="0" r="1" gradientUnits="userSpaceOnUse" gradientTransform="translate(31.3301 33.8244) rotate(90) scale(38.6756 5.13043)">
<stop stop-color="#E1E1E1"/>
<stop offset="0.416693" stop-color="#CFCFCF" stop-opacity="0.651015"/>
<stop offset="1" stop-color="#6E6E6E" stop-opacity="0"/>
</radialGradient>
<radialGradient id="paint2_radial_1466_264" cx="0" cy="0" r="1" gradientUnits="userSpaceOnUse" gradientTransform="translate(53.6275 33.8244) rotate(90) scale(38.6756 5.13043)">
<stop stop-color="#E1E1E1"/>
<stop offset="0.416693" stop-color="#CFCFCF" stop-opacity="0.651015"/>
<stop offset="1" stop-color="#6E6E6E" stop-opacity="0"/>
</radialGradient>
</defs>
</svg>
