<svg width="224" height="96" viewBox="0 0 224 96" fill="none" xmlns="http://www.w3.org/2000/svg">
<path fill-rule="evenodd" clip-rule="evenodd" d="M130.039 20.7259V47.9129C130.039 52.3382 133.627 55.9255 138.052 55.9255C142.477 55.9255 146.064 52.3382 146.064 47.9129V23.038L154.037 20.686V47.9129C154.037 56.7414 146.88 63.8983 138.052 63.8983C129.223 63.8983 122.066 56.7414 122.066 47.9129V23.1576L130.039 20.7259Z" fill="white"/>
<path fill-rule="evenodd" clip-rule="evenodd" d="M163.903 39.6609H57.626L60.0975 34.8374H166.374L163.903 39.6609Z" fill="#727272"/>
<path fill-rule="evenodd" clip-rule="evenodd" d="M163.903 48.8299H57.626L60.0975 44.0063H166.374L163.903 48.8299Z" fill="#727272"/>
<path d="M78.7936 20.8457L70.9404 23.2525V63.4201H78.7936V20.8457Z" fill="white"/>
<path fill-rule="evenodd" clip-rule="evenodd" d="M111.603 22.0194C114.192 23.4335 116.166 25.3098 117.281 26.6775L111.103 31.7164C110.544 31.0311 109.342 29.8688 107.781 29.0162C106.245 28.177 104.623 27.772 103.001 28.0735C99.8851 28.6525 97.8823 30.4391 96.5462 32.9268C95.1444 35.5368 94.5391 38.8612 94.5391 41.9334C94.5391 45.0063 95.1446 48.3547 96.5508 50.9885C97.8929 53.5021 99.8982 55.2964 103.001 55.8731C107.124 56.6393 111.515 54.3148 113.455 52.6341L118.676 58.659C115.832 61.124 109.045 65.1056 101.544 63.7116C95.638 62.614 91.7833 58.9868 89.5178 54.7436C87.3163 50.6204 86.5664 45.8765 86.5664 41.9334C86.5664 37.9896 87.3165 33.2615 89.5224 29.1544C91.7939 24.9251 95.6511 21.3301 101.544 20.2349C105.489 19.5019 108.99 20.5918 111.603 22.0194Z" fill="white"/>
<path d="M130.039 47.9131V20.7261L122.066 23.1578V47.9131C122.066 56.7416 129.223 63.8984 138.052 63.8984V55.9257C133.627 55.9257 130.039 52.3383 130.039 47.9131Z" fill="white"/>
</svg>
