<svg width="224" height="96" viewBox="0 0 224 96" fill="none" xmlns="http://www.w3.org/2000/svg">
<path d="M54.9209 66.0409V57.838H58.3176C58.6719 57.838 58.9954 57.9112 59.2881 58.0576C59.5885 58.2039 59.8465 58.4042 60.0622 58.6583C60.2778 58.9048 60.4473 59.1821 60.5705 59.4902C60.6937 59.7906 60.7554 60.0987 60.7554 60.4144C60.7554 60.8612 60.6552 61.2848 60.455 61.6853C60.2624 62.0781 59.989 62.3978 59.6347 62.6442C59.2804 62.8907 58.8645 63.014 58.3869 63.014H55.7296V66.0409H54.9209ZM55.7296 62.2976H58.3523C58.6757 62.2976 58.9569 62.2091 59.1956 62.0319C59.4344 61.8548 59.6193 61.6237 59.7502 61.3387C59.8811 61.0537 59.9466 60.7456 59.9466 60.4144C59.9466 60.0755 59.8696 59.7636 59.7156 59.4786C59.5615 59.1936 59.3574 58.9703 59.1032 58.8085C58.8568 58.6391 58.5833 58.5544 58.2829 58.5544H55.7296V62.2976Z" fill="white"/>
<path d="M66.5695 57.838H67.2512L70.6594 66.0409H69.8044L68.7415 63.4761H65.056L64.0047 66.0409H63.1381L66.5695 57.838ZM68.5567 62.8407L66.9046 58.7854L65.2293 62.8407H68.5567Z" fill="white"/>
<path d="M74.3193 66.0409V57.838H77.7853C78.1396 57.838 78.4631 57.9112 78.7558 58.0576C79.0485 58.2039 79.3027 58.4042 79.5183 58.6583C79.7417 58.9048 79.9111 59.1821 80.0267 59.4902C80.1499 59.7906 80.2115 60.0987 80.2115 60.4144C80.2115 60.8073 80.1345 61.177 79.9804 61.5236C79.8341 61.8702 79.6223 62.1629 79.345 62.4016C79.0754 62.6404 78.7558 62.7983 78.3861 62.8753L80.3964 66.0409H79.4837L77.5542 63.014H75.128V66.0409H74.3193ZM75.128 62.2976H77.8084C78.1319 62.2976 78.413 62.2091 78.6518 62.0319C78.8906 61.8548 79.0754 61.6237 79.2064 61.3387C79.3373 61.046 79.4028 60.7379 79.4028 60.4144C79.4028 60.0832 79.3258 59.779 79.1717 59.5017C79.0254 59.2167 78.8251 58.9895 78.5709 58.8201C78.3245 58.6429 78.0472 58.5544 77.7391 58.5544H75.128V62.2976Z" fill="white"/>
<path d="M90.0953 58.5544H87.1722V66.0409H86.3635V58.5544H83.4405V57.838H90.0953V58.5544Z" fill="white"/>
<path d="M94.6167 59.3284V66.0409H93.8079V57.838H94.478L99.8619 64.6776V57.8496H100.671V66.0409H99.9197L94.6167 59.3284Z" fill="white"/>
<path d="M110.727 65.3246V66.0409H105.216V57.838H110.623V58.5544H106.025V61.512H110.034V62.1937H106.025V65.3246H110.727Z" fill="white"/>
<path d="M114.741 66.0409V57.838H118.207C118.561 57.838 118.885 57.9112 119.177 58.0576C119.47 58.2039 119.724 58.4042 119.94 58.6583C120.163 58.9048 120.333 59.1821 120.448 59.4902C120.571 59.7906 120.633 60.0987 120.633 60.4144C120.633 60.8073 120.556 61.177 120.402 61.5236C120.256 61.8702 120.044 62.1629 119.767 62.4016C119.497 62.6404 119.177 62.7983 118.808 62.8753L120.818 66.0409H119.905L117.976 63.014H115.55V66.0409H114.741ZM115.55 62.2976H118.23C118.553 62.2976 118.835 62.2091 119.073 62.0319C119.312 61.8548 119.497 61.6237 119.628 61.3387C119.759 61.046 119.824 60.7379 119.824 60.4144C119.824 60.0832 119.747 59.779 119.593 59.5017C119.447 59.2167 119.247 58.9895 118.992 58.8201C118.746 58.6429 118.469 58.5544 118.161 58.5544H115.55V62.2976Z" fill="white"/>
<path d="M129.567 59.3746C129.452 59.2437 129.317 59.1282 129.163 59.028C129.009 58.9202 128.836 58.8278 128.643 58.7508C128.451 58.6737 128.243 58.6121 128.019 58.5659C127.804 58.5197 127.573 58.4966 127.326 58.4966C126.61 58.4966 126.082 58.6352 125.743 58.9125C125.412 59.1821 125.246 59.5518 125.246 60.0216C125.246 60.3451 125.324 60.5993 125.478 60.7842C125.639 60.969 125.89 61.1192 126.229 61.2347C126.567 61.3503 126.999 61.4697 127.523 61.5929C128.108 61.7161 128.612 61.8625 129.036 62.0319C129.46 62.2014 129.787 62.4324 130.018 62.7251C130.249 63.0101 130.365 63.3991 130.365 63.892C130.365 64.2694 130.291 64.5968 130.145 64.874C129.999 65.1513 129.795 65.3824 129.533 65.5673C129.271 65.7521 128.959 65.8907 128.597 65.9832C128.235 66.0679 127.838 66.1103 127.407 66.1103C126.983 66.1103 126.575 66.0679 126.182 65.9832C125.797 65.8907 125.431 65.7598 125.085 65.5904C124.738 65.4132 124.415 65.1898 124.114 64.9203L124.519 64.2617C124.665 64.4158 124.838 64.5621 125.039 64.7007C125.246 64.8317 125.474 64.9511 125.72 65.0589C125.974 65.1667 126.244 65.2515 126.529 65.3131C126.822 65.367 127.122 65.3939 127.43 65.3939C128.085 65.3939 128.593 65.2746 128.955 65.0358C129.325 64.797 129.51 64.4427 129.51 63.9729C129.51 63.634 129.417 63.3644 129.232 63.1641C129.048 62.9562 128.77 62.7867 128.401 62.6558C128.031 62.5249 127.576 62.3978 127.037 62.2745C126.467 62.1436 125.986 61.9973 125.593 61.8355C125.2 61.6738 124.904 61.462 124.703 61.2001C124.511 60.9305 124.415 60.5762 124.415 60.1372C124.415 59.6288 124.538 59.2013 124.784 58.8547C125.039 58.5004 125.385 58.2347 125.824 58.0576C126.263 57.8727 126.768 57.7803 127.338 57.7803C127.7 57.7803 128.035 57.8188 128.343 57.8958C128.659 57.9651 128.947 58.0691 129.209 58.2077C129.479 58.3464 129.729 58.5197 129.96 58.7277L129.567 59.3746Z" fill="white"/>
<path d="M108.316 43.8036V51.4235H110.655V43.8036L118.655 31.4164H116.24L109.556 41.647L102.872 31.4164H100.315L108.316 43.8036Z" fill="white"/>
<path d="M147.444 31.5573V51.2826H149.529L149.529 35.2872L148.627 34.1498H149.529L149.529 35.2872L162.209 51.2826H163.928V31.5573H161.871L161.871 47.555L149.162 31.5573H147.444Z" fill="white"/>
<path d="M201.638 40.5182H201.864L201.864 33.3608H213.304V31.5573H199.778V51.0008H213.727V49.1973H201.864L201.864 42.2935H201.638V40.5182Z" fill="white"/>
<path d="M212.064 40.5182H201.864V42.2935H212.064V40.5182Z" fill="white"/>
<path d="M147.444 31.5573V51.2826H149.529L149.529 35.2872L162.209 51.2826H163.928V31.5573H161.871L161.871 47.555L162.773 48.6901H161.871L161.871 47.555L149.162 31.5573H147.444Z" fill="white"/>
<path d="M201.864 40.5182H201.638V42.2935H201.864V40.5182Z" fill="white"/>
<path fill-rule="evenodd" clip-rule="evenodd" d="M129.212 31.4164L120.066 51.4235H122.546L124.62 46.7892H136.013L138.087 51.4235H140.596L131.45 31.4164H129.212ZM125.363 44.7836H135.27L130.317 33.7136L125.363 44.7836Z" fill="white"/>
<path fill-rule="evenodd" clip-rule="evenodd" d="M182.675 33.2128C178.22 33.2128 174.609 36.8242 174.609 41.279C174.609 45.7339 178.22 49.3453 182.675 49.3453C185.761 49.3453 188.443 47.6132 189.801 45.063L191.791 46.1223C190.057 49.3786 186.627 51.5996 182.675 51.5996C176.975 51.5996 172.355 46.9789 172.355 41.279C172.355 35.5792 176.975 30.9585 182.675 30.9585C186.627 30.9585 190.057 33.1795 191.791 36.4358L189.801 37.4951C188.443 34.9449 185.761 33.2128 182.675 33.2128Z" fill="white"/>
<path fill-rule="evenodd" clip-rule="evenodd" d="M86.1622 33.2128C81.7073 33.2128 78.096 36.8242 78.096 41.279C78.096 45.7339 81.7073 49.3453 86.1622 49.3453C90.617 49.3453 94.2284 45.7339 94.2284 41.279C94.2284 36.8242 90.617 33.2128 86.1622 33.2128ZM75.8416 41.279C75.8416 35.5792 80.4623 30.9585 86.1622 30.9585C91.8621 30.9585 96.4827 35.5792 96.4827 41.279C96.4827 46.9789 91.8621 51.5996 86.1622 51.5996C80.4623 51.5996 75.8416 46.9789 75.8416 41.279Z" fill="white"/>
<path fill-rule="evenodd" clip-rule="evenodd" d="M67.8002 31.3916V44.7009C67.8002 48.511 64.7116 51.5996 60.9016 51.5996C57.0916 51.5996 54.0029 48.511 54.0029 44.7009V42.4518H56.2572V44.7009C56.2572 47.2659 58.3366 49.3453 60.9016 49.3453C63.4666 49.3453 65.5459 47.2659 65.5459 44.7009V31.3916H67.8002Z" fill="white"/>
<path fill-rule="evenodd" clip-rule="evenodd" d="M32.5316 19H32.3555V19.1761V51.4663C32.3555 54.0447 30.0524 56.0663 27.5666 56.0663C25.1008 56.0663 23.0595 53.7827 23.0595 51.4663V51.2902H22.8834H10.307H10.1309V51.4663C10.1309 61.072 18.0001 69 27.7075 69C37.413 69 45.2841 61.2147 45.2841 51.6072V19.1761V19H45.108H32.5316ZM32.7077 38.1018V31.3987H32.7181C32.7181 30.3511 32.9951 29.3661 33.4818 28.5104H44.133C44.6196 29.3661 44.8967 30.3511 44.8967 31.3987H44.9319V38.1748C44.0895 35.6502 41.6636 33.8292 38.8074 33.8292C35.9787 33.8292 33.5721 35.6152 32.7077 38.1018ZM44.5349 28.5104C44.6914 28.8071 44.8245 29.1175 44.9319 29.4393V28.5104H44.5349ZM44.9319 28.1582H44.3343C43.2077 26.3214 41.1526 25.0937 38.8074 25.0937C36.4622 25.0937 34.4071 26.3214 33.2805 28.1582H32.7077V19.3522H37.9995C38.095 23.0038 41.1852 25.9291 44.9319 25.9291V25.5769C41.3727 25.5769 38.4473 22.8024 38.3519 19.3522H44.9319V28.1582ZM32.7077 28.5104V29.3663C32.8105 29.0705 32.9352 28.7846 33.0798 28.5104H32.7077ZM33.6987 28.1582C34.7839 26.5263 36.6653 25.4459 38.8074 25.4459C40.9495 25.4459 42.8308 26.5263 43.916 28.1582H33.6987ZM33.0102 49.6397C33.8406 47.9673 35.4039 46.7091 37.2895 46.2632C35.1419 45.7553 33.4124 44.1938 32.7077 42.1667V47.813H32.7181C32.7181 48.45 32.8205 49.0639 33.0102 49.6397ZM32.8035 50.1025C32.7698 50.0177 32.7378 49.932 32.7077 49.8454V50.3596C32.7378 50.2731 32.7698 50.1874 32.8035 50.1025ZM33.0102 50.5654C34.0549 52.6696 36.26 54.118 38.8074 54.118C41.3547 54.118 43.5598 52.6696 44.6045 50.5654C44.7942 51.1412 44.8967 51.755 44.8967 52.3921H44.9139C44.6497 58.157 41.4898 63.1766 36.8382 66.0592C36.2785 65.8857 35.7548 65.6335 35.2806 65.316V62.8234C35.2806 60.7726 34.2591 58.9576 32.6886 57.8363V52.3921H32.6149L32.7181 52.3921C32.7181 51.755 32.8205 51.1412 33.0102 50.5654ZM32.3364 53.2877C31.5473 55.1454 29.6079 56.4185 27.5666 56.4185C25.4999 56.4185 23.7279 54.9532 23.0275 53.1375V59.7032C23.0275 62.6442 20.9264 65.1003 18.1187 65.721C19.5076 66.6559 21.0398 67.3949 22.6752 67.8964V62.8234C22.6752 59.4126 25.5007 56.6542 28.9779 56.6542C30.2118 56.6542 31.3637 57.0015 32.3364 57.6022V53.2877ZM32.3364 58.0207C31.381 57.3809 30.2246 57.0064 28.9779 57.0064C25.6879 57.0064 23.0274 59.6144 23.0274 62.8234V68.0003C24.5155 68.4218 26.0853 68.6478 27.7075 68.6478C30.2862 68.6478 32.7323 68.0872 34.9284 67.0826V65.5004C33.3581 64.3791 32.3364 62.564 32.3364 60.5133V58.0207ZM34.9284 65.0611V62.8234C34.9284 60.984 34.0543 59.3422 32.6886 58.2757V60.5133C32.6886 62.3528 33.5625 63.9946 34.9284 65.0611ZM35.2806 65.7346V66.9167C35.6766 66.7246 36.064 66.5179 36.4421 66.2974C36.0333 66.1485 35.6444 65.9593 35.2806 65.7346ZM22.6752 59.7032C22.6752 62.5834 20.5323 64.9792 17.7141 65.4402C13.3819 62.3416 10.5418 57.2964 10.484 51.6424H22.6752V59.7032ZM44.4298 50.1025C43.5127 52.2524 41.3426 53.7658 38.8074 53.7658C36.2721 53.7658 34.1021 52.2524 33.1849 50.1025C34.1021 47.9527 36.2721 46.4393 38.8074 46.4393C41.3426 46.4393 43.5127 47.9527 44.4298 50.1025ZM44.8112 50.1025C44.8544 50.2111 44.8947 50.3212 44.9319 50.4326V49.7725C44.8947 49.8839 44.8544 49.9939 44.8112 50.1025ZM44.9319 47.813H44.8967C44.8967 48.45 44.7942 49.0639 44.6045 49.6397C43.7742 47.9673 42.2108 46.7091 40.3252 46.2632C42.4985 45.7492 44.2437 44.1562 44.9319 42.0937V47.813ZM38.8074 34.1814C42.1137 34.1814 44.7988 36.7553 44.8941 39.9581H32.7207C32.816 36.7553 35.5011 34.1814 38.8074 34.1814ZM38.8074 46.087C35.5011 46.087 32.816 43.5131 32.7207 40.3103H44.8941C44.7988 43.5131 42.1137 46.087 38.8074 46.087Z" fill="black"/>
<path d="M32.7077 31.3987V38.1018C33.5721 35.6152 35.9787 33.8292 38.8074 33.8292C41.6636 33.8292 44.0895 35.6502 44.9319 38.1748V31.3987H44.8967C44.8967 30.3511 44.6196 29.3661 44.133 28.5104H33.4818C32.9951 29.3661 32.7181 30.3511 32.7181 31.3987H32.7077Z" fill="#A6A6A6"/>
<path d="M44.9319 29.4393C44.8245 29.1175 44.6914 28.8071 44.5349 28.5104H44.9319V29.4393Z" fill="#A6A6A6"/>
<path d="M32.7077 29.3663V28.5104H33.0798C32.9352 28.7846 32.8105 29.0705 32.7077 29.3663Z" fill="#A6A6A6"/>
<path d="M38.3519 19.3522C38.4473 22.8024 41.3727 25.5769 44.9319 25.5769V19.3522H38.3519Z" fill="#8C8C8C"/>
<path d="M44.3343 28.1582H44.9319V25.9291C41.1852 25.9291 38.095 23.0038 37.9995 19.3522H32.7077V28.1582H33.2805C34.4071 26.3214 36.4622 25.0937 38.8074 25.0937C41.1526 25.0937 43.2077 26.3214 44.3343 28.1582Z" fill="#B2B2B2"/>
<path d="M38.8074 25.4459C36.6653 25.4459 34.7839 26.5263 33.6987 28.1582H43.916C42.8308 26.5263 40.9495 25.4459 38.8074 25.4459Z" fill="#B8B8B8"/>
<path d="M32.3364 53.2877C31.5473 55.1454 29.6079 56.4185 27.5666 56.4185C25.4999 56.4185 23.7279 54.9532 23.0275 53.1375V59.7032C23.0275 62.6442 20.9264 65.1003 18.1187 65.721C19.5076 66.6559 21.0398 67.3949 22.6752 67.8964V62.8234C22.6752 59.4126 25.5007 56.6542 28.9779 56.6542C30.2118 56.6542 31.3637 57.0015 32.3364 57.6022V53.2877Z" fill="#B2B2B2"/>
<path d="M17.7141 65.4402C20.5323 64.9792 22.6752 62.5834 22.6752 59.7032V51.6424H10.484C10.5418 57.2964 13.3819 62.3416 17.7141 65.4402Z" fill="#9A9A9A"/>
<path d="M32.3364 58.0207C31.381 57.3809 30.2246 57.0064 28.9779 57.0064C25.6879 57.0064 23.0274 59.6144 23.0274 62.8234V68.0003C24.5155 68.4218 26.0853 68.6478 27.7075 68.6478C30.2862 68.6478 32.7323 68.0872 34.9284 67.0826V65.5004C33.3581 64.3791 32.3364 62.564 32.3364 60.5133V58.0207Z" fill="#8C8C8C"/>
<path d="M38.8074 54.118C36.26 54.118 34.0549 52.6696 33.0102 50.5654C32.8205 51.1412 32.7181 51.755 32.7181 52.3921L32.6149 52.3921H32.6886V57.8363C34.2591 58.9576 35.2806 60.7726 35.2806 62.8234V65.316C35.7548 65.6335 36.2785 65.8857 36.8382 66.0592C41.4898 63.1766 44.6497 58.157 44.9139 52.3921H44.8967C44.8967 51.755 44.7942 51.1412 44.6045 50.5654C43.5598 52.6696 41.3547 54.118 38.8074 54.118Z" fill="#9A9A9A"/>
<path d="M34.9284 65.0611V62.8234C34.9284 60.984 34.0543 59.3422 32.6886 58.2757V60.5133C32.6886 62.3528 33.5625 63.9946 34.9284 65.0611Z" fill="#B2B2B2"/>
<path d="M35.2806 65.7346V66.9167C35.6766 66.7246 36.064 66.5179 36.4421 66.2974C36.0333 66.1485 35.6444 65.9593 35.2806 65.7346Z" fill="#B2B2B2"/>
<path d="M38.8074 53.7658C41.3426 53.7658 43.5127 52.2524 44.4298 50.1025C43.5127 47.9527 41.3426 46.4393 38.8074 46.4393C36.2721 46.4393 34.1021 47.9527 33.1849 50.1025C34.1021 52.2524 36.2721 53.7658 38.8074 53.7658Z" fill="#B2B2B2"/>
<path d="M44.8967 47.813H44.9319V42.0937C44.2437 44.1562 42.4985 45.7492 40.3252 46.2632C42.2108 46.7091 43.7742 47.9673 44.6045 49.6397C44.7942 49.0639 44.8967 48.45 44.8967 47.813Z" fill="#B8B8B8"/>
<path d="M37.2895 46.2632C35.4039 46.7091 33.8406 47.9673 33.0102 49.6397C32.8205 49.0639 32.7181 48.45 32.7181 47.813H32.7077V42.1667C33.4124 44.1938 35.1419 45.7553 37.2895 46.2632Z" fill="#B8B8B8"/>
<path d="M32.7207 40.3103C32.816 43.5131 35.5011 46.087 38.8074 46.087C42.1137 46.087 44.7988 43.5131 44.8941 40.3103H32.7207Z" fill="#B2B2B2"/>
<path d="M44.8941 39.9581C44.7988 36.7553 42.1137 34.1814 38.8074 34.1814C35.5011 34.1814 32.816 36.7553 32.7207 39.9581H44.8941Z" fill="#B8B8B8"/>
</svg>
