<svg width="73" height="72" viewBox="0 0 73 72" fill="none" xmlns="http://www.w3.org/2000/svg">
<path d="M57.1028 14.9102V0H52.4483V14.9102H37.5498V19.5683H52.4483V34.4784H57.1028V19.5683H72.0013V14.9102H57.1028Z" fill="white"/>
<path d="M19.1803 65.0655L3.62443 49.4976L0 53.1247L18.8604 71.9999L33.1261 57.7231L29.8215 54.4159L19.1803 65.0655Z" fill="#8A8A88"/>
<path d="M33.045 20.0537L29.4172 23.6844L40.4662 34.7387C42.5227 36.8004 42.6669 38.1584 42.6141 39.6853C42.5896 41.3705 41.5595 43.1367 40.0302 44.6846C38.4834 46.2291 36.7433 47.2177 35.0629 47.2459C33.5337 47.2987 32.2155 47.1193 30.1414 45.0576L19.1028 34.0104L15.4678 37.6447L26.2356 48.421C29.7511 51.9392 32.4053 52.488 35.2387 52.3297C37.8401 52.1749 40.7123 50.7218 43.3769 48.0657C46.0417 45.4094 47.5218 42.4893 47.6729 39.8858C47.8311 37.0502 47.3213 34.3481 43.8059 30.837L33.045 20.0537Z" fill="#8A8A88"/>
</svg>
