<svg width="159" height="26" viewBox="0 0 159 26" fill="none" xmlns="http://www.w3.org/2000/svg">
<path d="M9.91276 7.00605C12.125 7.00605 13.8972 7.67211 15.2293 9.00423C16.5853 10.3364 17.2632 12.4297 17.2632 15.2842V25.4178H14.3373V15.4626C14.3373 13.5834 13.9091 12.1561 13.0528 11.1808C12.2202 10.1817 11.007 9.68219 9.41322 9.68219C7.70049 9.68219 6.35648 10.2769 5.38118 11.4663C4.40588 12.6557 3.91823 14.2732 3.91823 16.319V25.4178H0.99232V7.22014H3.52573L3.91823 9.68219C5.29792 7.8981 7.2961 7.00605 9.91276 7.00605ZM18.5673 16.319C18.5673 14.4635 18.9241 12.8341 19.6377 11.4306C20.3751 10.0271 21.398 8.94476 22.7064 8.18355C24.0147 7.39855 25.5133 7.00605 27.2023 7.00605C28.8674 7.00605 30.3422 7.35098 31.6268 8.04082C32.9113 8.73067 33.9223 9.72976 34.6597 11.0381C35.3972 12.3464 35.7897 13.8807 35.8372 15.641C35.8372 15.9027 35.8135 16.319 35.7659 16.8899H21.6359V17.1397C21.6835 18.9238 22.2306 20.351 23.2773 21.4215C24.3239 22.4919 25.6917 23.0272 27.3807 23.0272C28.689 23.0272 29.7951 22.706 30.6991 22.0638C31.6268 21.3977 32.2453 20.4819 32.5545 19.3163H35.5161C35.1593 21.1717 34.2672 22.6941 32.84 23.8835C31.4127 25.0491 29.6643 25.6319 27.5948 25.6319C25.7869 25.6319 24.205 25.2513 22.8491 24.4901C21.4932 23.7051 20.4346 22.6109 19.6734 21.2074C18.936 19.7801 18.5673 18.1507 18.5673 16.319ZM32.8043 14.4635C32.6616 12.9173 32.0788 11.716 31.0559 10.8597C30.0568 10.0033 28.7841 9.57514 27.2379 9.57514C25.8582 9.57514 24.6451 10.0271 23.5984 10.931C22.5517 11.835 21.957 13.0125 21.8143 14.4635H32.8043ZM38.396 9.89628H35.1133V7.22014H38.396V2.11765H41.3219V7.22014H45.9249V9.89628H41.3219V20.6365C41.3219 21.3977 41.4646 21.9448 41.7501 22.2779C42.0593 22.5871 42.5827 22.7417 43.3201 22.7417H46.4958V25.4178H43.1417C41.429 25.4178 40.2039 25.0372 39.4665 24.276C38.7528 23.5148 38.396 22.3135 38.396 20.6722V9.89628ZM45.0805 7.22014H48.1491L52.6807 22.0281L57.4621 7.22014H60.1739L64.7055 22.0281L69.4511 7.22014H72.4127L66.3468 25.4178H63.1355L58.7466 11.8945L54.1793 25.4178L50.968 25.4535L45.0805 7.22014ZM80.7829 25.6319C79.0226 25.6319 77.4526 25.2394 76.0729 24.4544C74.717 23.6694 73.6584 22.5752 72.8972 21.1717C72.136 19.7682 71.7554 18.1507 71.7554 16.319C71.7554 14.4873 72.136 12.8698 72.8972 11.4663C73.6584 10.0628 74.717 8.96855 76.0729 8.18355C77.4526 7.39855 79.0226 7.00605 80.7829 7.00605C82.5432 7.00605 84.1013 7.39855 85.4572 8.18355C86.8369 8.96855 87.9074 10.0628 88.6686 11.4663C89.4298 12.8698 89.8104 14.4873 89.8104 16.319C89.8104 18.1507 89.4298 19.7682 88.6686 21.1717C87.9074 22.5752 86.8369 23.6694 85.4572 24.4544C84.1013 25.2394 82.5432 25.6319 80.7829 25.6319ZM80.7829 23.0272C81.9723 23.0272 83.019 22.7417 83.9229 22.1708C84.8506 21.5999 85.5643 20.803 86.0638 19.7801C86.5633 18.7572 86.8131 17.6035 86.8131 16.319C86.8131 15.0345 86.5633 13.8807 86.0638 12.8579C85.5643 11.835 84.8506 11.0381 83.9229 10.4672C83.019 9.89628 81.9723 9.61082 80.7829 9.61082C79.5935 9.61082 78.5349 9.89628 77.6072 10.4672C76.7033 11.0381 76.0015 11.835 75.502 12.8579C75.0024 13.8807 74.7527 15.0345 74.7527 16.319C74.7527 17.6035 75.0024 18.7572 75.502 19.7801C76.0015 20.803 76.7033 21.5999 77.6072 22.1708C78.5349 22.7417 79.5935 23.0272 80.7829 23.0272ZM100.623 7.22014V10.0747H99.1601C97.4236 10.0747 96.1747 10.6575 95.4135 11.8231C94.6761 12.9887 94.3074 14.4279 94.3074 16.1406V25.4178H91.3815V7.22014H93.9149L94.3074 9.96764C94.8307 9.13506 95.5087 8.469 96.3413 7.96946C97.1738 7.46991 98.3275 7.22014 99.8024 7.22014H100.623ZM101.515 0.440606H104.44V16.9969L113.682 7.22014H117.179L110.185 14.6776L117.678 25.4178H114.146L108.08 16.7829L104.44 20.6008V25.4178H101.515V0.440606ZM117.7 23.2056C117.7 22.4919 117.926 21.9091 118.378 21.4572C118.854 21.0052 119.448 20.7792 120.162 20.7792C120.876 20.7792 121.47 21.0052 121.946 21.4572C122.422 21.9091 122.66 22.4919 122.66 23.2056C122.66 23.9192 122.422 24.502 121.946 24.954C121.47 25.406 120.876 25.6319 120.162 25.6319C119.448 25.6319 118.854 25.406 118.378 24.954C117.926 24.502 117.7 23.9192 117.7 23.2056ZM122.325 7.07742H127.713L132.138 20.2797L136.491 7.07742H141.772L135.171 25.4178H128.927L122.325 7.07742ZM158.595 18.4599C158.261 20.696 157.31 22.4563 155.74 23.7408C154.194 25.0016 152.184 25.6319 149.71 25.6319C147.807 25.6319 146.142 25.2513 144.714 24.4901C143.287 23.7051 142.181 22.599 141.396 21.1717C140.635 19.7444 140.254 18.1031 140.254 16.2476C140.254 14.3684 140.635 12.727 141.396 11.3235C142.181 9.89628 143.287 8.80204 144.714 8.04082C146.165 7.25582 147.842 6.86332 149.745 6.86332C152.196 6.86332 154.194 7.4937 155.74 8.75446C157.286 9.99143 158.238 11.716 158.595 13.9283H153.385C153.171 13.0244 152.743 12.3107 152.1 11.7874C151.458 11.2403 150.661 10.9667 149.71 10.9667C148.401 10.9667 147.355 11.4544 146.57 12.4297C145.785 13.405 145.392 14.6776 145.392 16.2476C145.392 17.8176 145.785 19.0903 146.57 20.0656C147.355 21.0409 148.401 21.5285 149.71 21.5285C150.685 21.5285 151.494 21.255 152.136 20.7079C152.802 20.1607 153.23 19.4114 153.421 18.4599H158.595Z" fill="white"/>
</svg>
