<svg width="224" height="96" viewBox="0 0 224 96" fill="none" xmlns="http://www.w3.org/2000/svg">
<path d="M48.5477 62.5422V39H53.9101V62.5422H48.5477ZM152.787 53.7466C152.787 48.0572 148.373 44.5259 143.207 44.5259C138.008 44.5259 133.627 48.0899 133.627 53.7466C133.627 59.436 138.041 63 143.207 63C148.373 63 152.787 59.4033 152.787 53.7466ZM147.49 53.7466C147.49 56.7221 145.496 58.3896 143.174 58.3896C140.853 58.3896 138.858 56.7221 138.858 53.7466C138.858 50.7384 140.853 49.1362 143.174 49.1362C145.496 49.1362 147.49 50.7384 147.49 53.7466ZM46.3896 55.7738C46.3896 53.1253 45.0163 51.0981 42.564 50.1826C44.8856 48.9074 45.703 47.2398 45.703 45.2779C45.703 41.8447 43.218 39 37.6594 39.0327H27V62.5749H38.1172C43.7084 62.5422 46.3896 59.7629 46.3896 55.7738ZM40.0136 45.9646C40.0136 47.5668 39 48.4823 37.0381 48.4823H32.5913V43.5777H37.0381C38.8365 43.5777 40.0136 44.3624 40.0136 45.9646ZM40.5041 55.4142C40.5041 56.951 39.4251 57.9646 37.4305 57.9646H32.5913V52.8638H37.4305C39.3597 52.8638 40.5041 53.8447 40.5041 55.4142ZM93.0817 49.3324C91.6104 46.2589 88.8638 44.5586 84.7112 44.5586C79.8065 44.5586 75.4251 47.6322 75.4251 53.7466C75.4251 59.6975 79.2834 63 84.6458 63C88.406 63 91.5777 61.4959 93.0817 58.2589L88.7657 56.0354C87.9809 57.4741 86.7711 58.3896 84.842 58.3896C82.3569 58.3896 80.7548 56.624 80.7548 53.7466C80.7548 50.8692 82.5858 49.1362 84.8093 49.1362C86.5422 49.1362 87.8501 49.921 88.6676 51.6213L93.0817 49.3324ZM172.112 49.3324C170.64 46.2589 167.894 44.5586 163.741 44.5586C158.837 44.5586 154.455 47.6322 154.455 53.7466C154.455 59.6975 158.313 63 163.676 63C167.436 63 170.608 61.4959 172.112 58.2589L167.796 56.0354C167.011 57.4741 165.801 58.3896 163.872 58.3896C161.387 58.3896 159.785 56.624 159.785 53.7466C159.785 50.8692 161.616 49.1362 163.839 49.1362C165.572 49.1362 166.88 49.921 167.698 51.6213L172.112 49.3324ZM127.153 62.5422L122.673 54.6294H119.24V62.5422H113.714V39H123.687C129.082 39 132.842 41.5831 132.842 46.6512C132.842 49.8883 131.24 52.1771 128.395 53.5831L133.561 62.5422H127.153ZM119.272 49.9537H123.392C125.943 49.9537 127.185 48.515 127.185 46.8147C127.185 44.7875 126.008 43.6757 123.392 43.6757H119.272V49.9537ZM74.5422 62.248V58.5531C74.3134 58.6185 73.9864 58.6839 73.6267 58.6839C72.9401 58.6839 72.5804 58.3243 72.5804 57.703V51.5886C72.5804 47.0109 69.5068 44.5913 64.4387 44.5913C61.1362 44.5913 58.3243 45.8011 56.5586 47.3706L59.5341 50.7057C60.7112 49.6594 62.2807 49.0055 63.8174 49.0055C66.1717 49.0055 67.2834 50.1826 67.2834 52.1117V52.6676C66.1717 52.406 64.7657 52.1444 63.0654 52.1444C58.782 52.1444 56.0027 54.2044 56.0027 57.6049C56.0027 61.1035 58.3243 62.9346 61.921 62.9346C64.3733 62.9346 66.564 61.921 67.7084 60.6131C68.3951 62.346 69.8992 62.8038 71.3706 62.8038C72.3842 62.8365 73.5613 62.673 74.5422 62.248ZM67.3161 56.7221C67.3161 58.3243 65.7793 59.3706 64.0136 59.3706C62.3461 59.3706 61.5286 58.5204 61.5286 57.3433C61.5286 56.1008 62.4441 55.1853 64.3079 55.1853C65.4523 55.1853 66.4659 55.3815 67.3161 55.5777V56.7221ZM191.272 62.5422L184.962 51.5886L190.88 45.1471H184.929L178.684 52.079V39.0327H173.354V62.5749H178.684V58.3243L181.234 55.6104L185.223 62.5749H191.272V62.5422ZM112.308 62.5422L105.997 51.5886L111.916 45.1471H105.899L99.7193 52.079V39.0327H94.3896V62.5749H99.7193V58.3243L102.27 55.6104L106.259 62.5749H112.308V62.5422ZM194.542 59.2725C195.654 59.2725 196.308 59.9591 196.308 61.0055C196.308 62.0518 195.654 62.7384 194.542 62.7384C193.431 62.7384 192.777 62.0518 192.777 61.0055C192.777 59.9591 193.431 59.2725 194.542 59.2725ZM194.542 62.5095C195.425 62.5095 196.014 61.9864 196.014 61.0055C196.014 60.0245 195.392 59.5014 194.542 59.5014C193.659 59.5014 193.071 60.0245 193.071 61.0055C193.038 62.0191 193.659 62.5095 194.542 62.5095ZM193.856 60.1226H194.575C195 60.1226 195.229 60.3515 195.229 60.6785C195.229 60.9728 195.098 61.1362 194.869 61.2343L195.196 61.8556H194.869L194.575 61.2997H194.183V61.8556H193.856V60.1226ZM194.183 60.3842V61.0055H194.542C194.771 61.0055 194.902 60.9401 194.902 60.7112C194.902 60.515 194.804 60.4169 194.575 60.4169H194.183V60.3842Z" fill="white"/>
</svg>
