<svg width="224" height="96" viewBox="0 0 224 96" fill="none" xmlns="http://www.w3.org/2000/svg">
<g clip-path="url(#clip0_1435_330)">
<path d="M169.765 27.0584C171.779 38.9665 140.356 54.5614 99.572 61.8896C58.7929 69.2178 24.1019 65.4992 22.091 53.5861C20.0817 41.6763 51.5126 26.0865 92.2917 18.7599C133.072 11.4284 167.757 15.1469 169.765 27.0584Z" fill="white"/>
<path d="M131.383 44.7359L131.174 32.3535H134.958V47.9601H129.517L125.74 35.1521H125.659L125.868 47.9601H122.108V32.3535H127.785L131.299 44.7359H131.383Z" fill="#131013"/>
<path d="M62.5872 33.8148L60.4934 48.1243H56.366L59.2004 32.3535H65.9999L68.8214 48.1243H64.7102L62.6733 33.8148H62.5872Z" fill="#131013"/>
<path d="M78.4348 48.1243L75.8781 33.9455H75.7953L75.6994 48.1243H71.8708L72.2087 32.3535H78.4462L80.3337 44.4091H80.4149L82.304 32.3535H88.5382L88.8696 48.1243H85.0491L84.9484 33.9455H84.8688L82.3137 48.1243H78.4348Z" fill="#131013"/>
<path d="M49.9292 43.6752C50.0786 44.0573 50.0331 44.5483 49.9633 44.8449C49.835 45.3694 49.4906 45.904 48.4738 45.904C47.5154 45.904 46.9339 45.3376 46.9339 44.4712V42.9445H42.8341L42.8308 44.1662C42.8308 47.682 45.5142 48.7428 48.3893 48.7428C51.1539 48.7428 53.4312 47.7675 53.7935 45.1398C53.9787 43.7774 53.8406 42.8859 53.7772 42.5491C53.1324 39.2478 47.3302 38.2624 46.8982 36.4157C46.8251 36.099 46.8462 35.7638 46.8819 35.5845C46.9875 35.0818 47.3221 34.5271 48.2788 34.5271C49.1722 34.5271 49.7001 35.0969 49.7001 35.9582C49.7001 36.2481 49.7001 36.9318 49.7001 36.9318H53.5125V35.8241C53.5125 32.3888 50.5237 31.8525 48.3584 31.8525C45.6393 31.8525 43.4172 32.7792 43.0111 35.3465C42.9007 36.0554 42.8844 36.6872 43.0452 37.4781C43.7128 40.7007 49.143 41.6341 49.9292 43.6752H49.9292Z" fill="#131013"/>
<path d="M99.6376 43.6465C99.7886 44.0252 99.7399 44.5028 99.6717 44.7994C99.5466 45.3223 99.2055 45.8485 98.1952 45.8485C97.2498 45.8485 96.6732 45.282 96.6732 44.4358L96.6699 42.9225H92.6123L92.6074 44.1274C92.6074 47.608 95.2665 48.6587 98.1123 48.6587C100.848 48.6587 103.104 47.6968 103.46 45.0927C103.645 43.7403 103.513 42.8605 103.447 42.5304C102.805 39.2593 97.0614 38.284 96.6342 36.4557C96.5611 36.1406 96.5822 35.8088 96.6195 35.6396C96.7284 35.1335 97.0565 34.5922 98.0035 34.5922C98.8887 34.5922 99.4053 35.1486 99.4053 36.0032C99.4053 36.2898 99.4053 36.9668 99.4053 36.9668H103.188V35.8708C103.188 32.4724 100.224 31.9395 98.0798 31.9395C95.3915 31.9395 93.1873 32.8544 92.7893 35.4033C92.6789 36.1021 92.6675 36.7221 92.8251 37.5098C93.4829 40.6988 98.8595 41.6255 99.6376 43.6465H99.6376Z" fill="#131013"/>
<path d="M112.477 45.7647C113.538 45.7647 113.869 45.0072 113.943 44.6201C113.973 44.4492 113.982 44.2213 113.978 44.0168V32.3467H117.844V43.6599C117.852 43.9498 117.825 44.5464 117.812 44.6955C117.54 47.6399 115.284 48.5951 112.476 48.5951C109.664 48.5951 107.406 47.6399 107.138 44.6955C107.125 44.5464 107.098 43.9498 107.106 43.6599V32.3467H110.968V44.0168C110.968 44.2213 110.975 44.4509 111.004 44.6201C111.087 45.0072 111.409 45.7647 112.477 45.7647Z" fill="#131013"/>
<path d="M144.367 45.5986C145.475 45.5986 145.862 44.8764 145.933 44.4558C145.961 44.2748 145.969 44.0552 145.967 43.8558V41.5667H144.398V39.2642H149.818V43.4972C149.815 43.7921 149.809 44.01 149.763 44.5362C149.508 47.4051 147.096 48.429 144.387 48.429C141.672 48.429 139.263 47.4051 139.005 44.5362C138.961 44.01 138.955 43.7921 138.95 43.4972L138.953 36.8561C138.953 36.5762 138.987 36.0802 139.017 35.8171C139.356 32.8694 141.672 31.9209 144.387 31.9209C147.098 31.9209 149.471 32.8644 149.752 35.8171C149.802 36.3198 149.786 36.8561 149.786 36.8561V37.3823H145.931V36.4991C145.935 36.5008 145.926 36.1238 145.881 35.8992C145.816 35.5506 145.522 34.7496 144.357 34.7496C143.243 34.7496 142.917 35.5071 142.835 35.8992C142.788 36.107 142.77 36.3885 142.77 36.6433V43.8558C142.767 44.0552 142.779 44.2748 142.809 44.4558C142.876 44.8781 143.261 45.5986 144.367 45.5986Z" fill="#131013"/>
</g>
<path d="M138.636 60.896H136.875L138.751 69.0616H140.866L142.742 60.896H141.038L139.826 66.9344H139.791L138.636 60.896Z" fill="white"/>
<path d="M148.478 60.896H143.915V69.0616H148.592V67.7121H145.562V65.5163H148.306V64.1668H145.562V62.2455H148.478V60.896Z" fill="white"/>
<path d="M151.891 60.896H149.993V69.0616H151.502V63.3434H151.525L153.538 69.0616H155.413V60.896H153.904V66.4884H153.881L151.891 60.896Z" fill="white"/>
<path d="M161.912 60.896H156.697V62.2455H158.481V69.0616H160.128V62.2455H161.912V60.896Z" fill="white"/>
<path d="M164.742 60.896H163.095V66.5913C163.095 67.1403 163.168 67.5863 163.312 67.9294C163.457 68.2725 163.652 68.5393 163.896 68.7299C164.14 68.9129 164.418 69.0349 164.731 69.0959C165.043 69.1569 165.367 69.1874 165.703 69.1874C166.038 69.1874 166.362 69.1531 166.675 69.0845C166.987 69.0158 167.266 68.8824 167.51 68.6842C167.754 68.486 167.948 68.2191 168.093 67.8836C168.238 67.5406 168.31 67.1098 168.31 66.5913V60.896H166.663V66.5913C166.663 66.7972 166.648 66.9878 166.618 67.1631C166.595 67.3309 166.545 67.4796 166.469 67.6092C166.4 67.7312 166.305 67.8303 166.183 67.9065C166.061 67.9751 165.901 68.0094 165.703 68.0094C165.512 68.0094 165.352 67.9751 165.222 67.9065C165.1 67.8303 165.001 67.7312 164.925 67.6092C164.856 67.4796 164.807 67.3309 164.776 67.1631C164.753 66.9878 164.742 66.7972 164.742 66.5913V60.896Z" fill="white"/>
<path d="M169.924 60.896V69.0616H171.57V65.6078H172.451C172.794 65.6078 173.038 65.6993 173.183 65.8823C173.328 66.0653 173.408 66.3169 173.423 66.6371L173.469 68.2039C173.477 68.364 173.492 68.5203 173.515 68.6728C173.538 68.8176 173.591 68.9472 173.675 69.0616H175.459V68.993C175.306 68.9091 175.207 68.7528 175.162 68.5241C175.131 68.2954 175.108 67.9637 175.093 67.5291C175.085 67.308 175.078 67.1098 175.07 66.9344C175.062 66.7514 175.051 66.5837 175.036 66.4312C174.99 65.9738 174.872 65.6421 174.681 65.4363C174.491 65.2304 174.189 65.097 173.778 65.036V65.0131C174.243 64.914 174.586 64.6929 174.807 64.3498C175.028 63.9991 175.139 63.5492 175.139 63.0003C175.139 62.2912 174.948 61.7652 174.567 61.4221C174.186 61.0714 173.652 60.896 172.966 60.896H169.924ZM171.57 64.4642V62.1083H172.348C173.111 62.1083 173.492 62.4857 173.492 63.2405C173.492 63.6827 173.385 63.9991 173.172 64.1897C172.958 64.3727 172.653 64.4642 172.257 64.4642H171.57Z" fill="white"/>
<path d="M181.413 60.896H176.85V69.0616H181.528V67.7121H178.497V65.5163H181.242V64.1668H178.497V62.2455H181.413V60.896Z" fill="white"/>
<path d="M138.875 82.8741H140.522V74.7085H138.875V82.8741Z" fill="white"/>
<path d="M144.214 74.7085H142.315V82.8741H143.825V77.1559H143.848L145.861 82.8741H147.736V74.7085H146.226V80.3009H146.204L144.214 74.7085Z" fill="white"/>
<path d="M150.678 74.7085H148.917L150.792 82.8741H152.908L154.783 74.7085H153.079L151.867 80.747H151.833L150.678 74.7085Z" fill="white"/>
<path d="M160.519 74.7085H155.956V82.8741H160.634V81.5246H157.603V79.3289H160.348V77.9794H157.603V76.058H160.519V74.7085Z" fill="white"/>
<path d="M163.361 80.3238H161.714V80.6555C161.714 81.4103 161.912 81.9897 162.309 82.3938C162.713 82.7979 163.38 82.9999 164.31 82.9999C165.202 82.9999 165.896 82.8055 166.391 82.4167C166.895 82.0202 167.146 81.3912 167.146 80.5297C167.146 80.2781 167.123 80.0493 167.078 79.8435C167.032 79.6376 166.948 79.4508 166.826 79.2831C166.712 79.1077 166.555 78.9476 166.357 78.8028C166.159 78.6503 165.903 78.5054 165.591 78.3682L164.321 77.8192C163.971 77.6744 163.742 77.5181 163.635 77.3504C163.528 77.175 163.475 76.9615 163.475 76.7099C163.475 76.5879 163.487 76.4697 163.509 76.3554C163.54 76.241 163.589 76.1419 163.658 76.058C163.734 75.9665 163.833 75.8941 163.955 75.8407C164.077 75.7874 164.23 75.7607 164.413 75.7607C164.733 75.7607 164.962 75.8674 165.099 76.0809C165.236 76.2868 165.305 76.5841 165.305 76.973H166.883V76.7442C166.883 76.3554 166.818 76.0237 166.689 75.7493C166.567 75.4672 166.391 75.2384 166.163 75.0631C165.942 74.8801 165.675 74.7505 165.362 74.6742C165.057 74.5904 164.722 74.5484 164.356 74.5484C163.57 74.5484 162.953 74.7467 162.503 75.1431C162.053 75.5396 161.828 76.1419 161.828 76.9501C161.828 77.2855 161.87 77.5829 161.954 77.8421C162.038 78.0937 162.168 78.3186 162.343 78.5169C162.526 78.7075 162.751 78.8752 163.018 79.0201C163.284 79.1649 163.601 79.2984 163.967 79.4203C164.241 79.5118 164.47 79.6033 164.653 79.6948C164.844 79.7787 164.996 79.874 165.11 79.9807C165.225 80.0875 165.305 80.2095 165.351 80.3467C165.404 80.4763 165.431 80.6326 165.431 80.8156C165.431 81.1587 165.328 81.4141 165.122 81.5818C164.924 81.7419 164.699 81.822 164.447 81.822C164.234 81.822 164.055 81.7915 163.91 81.7305C163.772 81.6695 163.662 81.5856 163.578 81.4789C163.494 81.3722 163.437 81.2425 163.406 81.0901C163.376 80.9299 163.361 80.7546 163.361 80.564V80.3238Z" fill="white"/>
<path d="M173.317 74.7085H168.102V76.058H169.886V82.8741H171.533V76.058H173.317V74.7085Z" fill="white"/>
<path d="M174.637 74.7085V82.8741H176.147V76.3554H176.17L177.622 82.8741H178.903L180.355 76.3554H180.378V82.8741H181.888V74.7085H179.452L178.274 80.4725H178.251L177.085 74.7085H174.637Z" fill="white"/>
<path d="M188.204 74.7085H183.64V82.8741H188.318V81.5246H185.287V79.3289H188.032V77.9794H185.287V76.058H188.204V74.7085Z" fill="white"/>
<path d="M191.617 74.7085H189.718V82.8741H191.228V77.1559H191.251L193.264 82.8741H195.139V74.7085H193.629V80.3009H193.607L191.617 74.7085Z" fill="white"/>
<path d="M201.637 74.7085H196.422V76.058H198.207V82.8741H199.853V76.058H201.637V74.7085Z" fill="white"/>
<defs>
<clipPath id="clip0_1435_330">
<rect width="147.856" height="50.647" fill="white" transform="translate(22 15)"/>
</clipPath>
</defs>
</svg>
