<svg width="224" height="96" viewBox="0 0 224 96" fill="none" xmlns="http://www.w3.org/2000/svg">
<path fill-rule="evenodd" clip-rule="evenodd" d="M108.574 21.0042C109.251 21.0934 109.943 21.1231 110.604 21.2801C113.597 21.9973 115.56 23.8263 116.222 26.8564C116.784 29.4295 116.32 31.83 114.6 33.9067C113.753 34.928 112.668 35.6324 111.505 36.2294C110 36.9989 108.42 37.5322 106.728 37.6822C105.37 37.8024 104.047 37.6709 102.802 37.0569C102.638 36.9763 102.576 36.8971 102.607 36.6976C102.835 35.2236 103.565 34.0311 104.736 33.1527C107.291 31.2387 110.076 30.7988 113.074 32.0125C113.243 32.0804 113.403 32.1695 113.617 32.2728C113.757 32.0337 113.914 31.8046 114.031 31.557C115.184 29.1084 114.325 25.0514 110.837 23.9763C108.588 23.2817 106.528 23.7542 104.692 25.1858C102.848 26.6258 101.485 28.4662 100.409 30.5258C99.1895 32.8542 98.4694 35.3524 97.9375 37.9099C97.4212 40.3925 97.0152 42.8949 96.7436 45.4157C96.5626 47.1019 96.4621 48.7923 96.6687 50.487C96.796 51.5324 97.0662 52.5395 97.6249 53.4406C98.1681 54.3134 98.9546 54.8595 99.9958 54.9556C100.696 55.0207 101.32 54.7477 101.91 54.3969C102.205 54.2215 102.514 54.114 102.86 54.1762C103.464 54.2823 103.892 54.6232 104.09 55.2004C104.296 55.8058 104.174 56.3759 103.735 56.837C103.527 57.0535 103.262 57.2317 102.992 57.3703C101.731 58.0168 100.403 58.3987 98.9702 58.3223C97.0449 58.2191 95.6021 57.2911 94.5454 55.7139C94.3855 55.4734 94.2483 55.2188 94.0786 54.9358C94.0008 55.0815 93.9329 55.2046 93.865 55.3305C92.913 57.0959 91.4149 58.0904 89.46 58.4058C87.9944 58.6406 86.5516 58.5345 85.1766 57.9305C83.7564 57.3095 82.7619 56.2429 82.0631 54.8793C82.0164 54.7887 81.9627 54.6982 81.9004 54.5878C81.5906 54.9429 81.3049 55.2852 81.005 55.6148C79.7517 56.9785 78.2027 57.8499 76.4246 58.3223C74.2772 58.891 72.1129 59.0112 69.9415 58.4794C67.5085 57.8824 65.5266 56.6248 64.1913 54.452C64.1644 54.4096 64.129 54.3714 64.1135 54.353C63.6269 54.8793 63.1742 55.4324 62.6607 55.9147C60.884 57.5924 58.748 58.485 56.3248 58.6831C54.3656 58.8429 52.4304 58.7 50.5547 58.0663C47.5049 57.0379 45.7508 54.8807 45.1948 51.7516C44.8044 49.5491 44.837 47.3494 45.5004 45.1865C46.5684 41.7067 49.4457 39.3457 53.0656 38.961C54.2807 38.8322 55.4817 38.8648 56.66 39.2311C58.7918 39.8946 60.0777 41.3021 60.3917 43.5329C60.6675 45.4893 60.154 47.2264 58.8187 48.6905C57.7761 49.8349 56.4224 50.4417 54.9357 50.7713C53.3089 51.1306 51.668 51.1858 50.0172 50.9396C49.6239 50.8802 49.4584 51.0556 49.5206 51.4786C49.7399 52.9639 50.5632 54.022 51.866 54.7152C53.0882 55.3659 54.4193 55.5484 55.7844 55.5865C57.2725 55.629 58.6588 55.3135 59.9206 54.5115C61.2843 53.6457 62.2505 52.4207 63.0058 51.0189C63.0723 50.8944 63.0483 50.7119 63.0356 50.5577C62.9365 49.3482 62.9181 48.1388 63.102 46.9335C63.5094 44.2911 64.6425 42.066 66.8776 40.4958C68.2554 39.5268 69.81 39.0501 71.475 38.9199C72.7042 38.8252 73.9123 38.9284 75.0751 39.3726C77.0046 40.1096 78.1164 41.503 78.388 43.5527C78.6667 45.6562 78.0726 47.4782 76.542 48.9621C75.5362 49.9381 74.2914 50.4714 72.9419 50.7685C71.3066 51.1292 69.6572 51.1844 67.9979 50.9368C67.6584 50.8859 67.4858 51.0316 67.5198 51.3711C67.6301 52.466 68.1818 53.3161 69.0405 53.9753C69.8821 54.6204 70.861 54.9486 71.8937 55.1197C73.2899 55.3517 74.6875 55.4083 76.0766 55.0702C77.8731 54.6289 79.1943 53.5368 80.2454 52.0529C80.6825 51.4362 80.8805 50.8095 80.8777 50.0357C80.8664 47.4046 81.5185 44.9432 83.0689 42.7775C84.6122 40.6203 86.7397 39.4065 89.3468 39.0246C90.8958 38.7969 92.4433 38.8464 93.9852 39.1222C94.0022 39.125 94.0192 39.118 94.0602 39.1109C94.7236 36.4062 95.4436 33.7086 96.6319 31.1426C96.1905 31.1426 95.7732 31.1525 95.3559 31.1411C94.1182 31.11 92.9073 30.9233 91.7657 30.4211C90.0442 29.6657 88.9634 28.3035 88.2448 26.6159C87.9407 25.9029 87.7342 25.1603 87.6946 24.3794C87.6917 24.3271 87.6875 24.2748 87.6903 24.2224C87.6903 24.1984 87.7045 24.1729 87.7087 24.163C88.1175 24.163 88.5193 24.1432 88.9182 24.1658C90.1234 24.2366 91.3003 24.4558 92.4419 24.8646C94.4747 25.5931 95.7888 27.019 96.5046 29.0263C96.6757 29.5045 96.8059 29.9967 96.9445 30.4494C97.1977 29.8737 97.4283 29.2527 97.7324 28.6713C99.0904 26.067 100.952 23.9098 103.493 22.3877C104.781 21.6153 106.173 21.1316 107.685 21.0382C107.772 21.0325 107.858 21.0127 107.944 21C108.152 21.0042 108.363 21.0042 108.574 21.0042ZM93.5127 41.9754C93.4151 41.957 93.3458 41.9401 93.2765 41.9316C92.4193 41.8368 91.5634 41.8099 90.7048 41.9203C88.4938 42.2088 86.7708 43.2952 85.6165 45.1851C84.6419 46.7822 84.2967 48.5745 84.3491 50.4346C84.3859 51.7686 84.7918 52.9795 85.6689 54.0178C86.6265 55.1551 88.457 55.4734 89.6509 54.6911C90.2012 54.3304 90.593 53.8254 90.9156 53.2652C91.6695 51.9596 92.101 50.528 92.3825 49.0639C92.7305 47.2476 92.9936 45.4157 93.2878 43.5895C93.3713 43.0618 93.4349 42.5328 93.5127 41.9754ZM51.361 48.1388C52.2098 48.1119 53.0458 48.0369 53.8535 47.7681C55.1224 47.3438 56.0475 46.5728 56.3785 45.2219C56.7251 43.8045 56.097 42.5978 54.7829 42.264C53.3032 41.8891 51.9537 42.2032 50.8348 43.2627C49.6564 44.3816 49.184 45.8118 49.1246 47.406C49.1161 47.6635 49.2193 47.8035 49.4414 47.8841C49.556 47.9252 49.6734 47.9733 49.7936 47.986C50.3142 48.044 50.8376 48.0907 51.361 48.1388ZM69.3347 48.1388C70.1933 48.1161 71.0393 48.0412 71.8541 47.7681C73.1626 47.331 74.0948 46.5233 74.4017 45.12C74.6988 43.7635 74.0622 42.6035 72.782 42.2626C71.5499 41.9372 70.3631 42.1126 69.3234 42.868C67.7574 44.0068 67.1746 45.642 67.135 47.5121C67.1322 47.6196 67.2482 47.7653 67.35 47.8346C67.4759 47.9195 67.64 47.9662 67.7914 47.9846C68.3063 48.0482 68.8212 48.0893 69.3347 48.1388Z" fill="white"/>
<path fill-rule="evenodd" clip-rule="evenodd" d="M29 54.7291C29.2886 53.4192 30.7711 53.4206 31.6863 53.9186C32.4176 54.3161 33.1575 54.7051 33.9256 55.0134C35.0671 55.4732 36.2554 55.6627 37.4804 55.3586C38.1453 55.1931 38.7521 54.9088 39.2699 54.449C40.5416 53.3216 40.3718 51.4388 38.9191 50.5419C38.2316 50.1162 37.4507 49.9775 36.6769 49.829C35.2383 49.5546 33.7912 49.2971 32.4233 48.761C31.8504 48.5361 31.2916 48.2333 30.7923 47.8755C29.9082 47.2389 29.4739 46.3109 29.3876 45.2415C29.2461 43.5101 29.6634 41.9441 30.8871 40.6597C31.7273 39.7756 32.7812 39.2437 33.9539 38.9608C36.3389 38.3893 38.7168 38.4105 41.072 39.1348C41.7709 39.3498 42.4173 39.6709 42.7964 40.3428C42.9365 40.5904 43.0638 40.8648 43.1133 41.142C43.3241 42.3402 42.4399 43.196 41.2446 42.9555C40.9575 42.8975 40.6604 42.7957 40.4157 42.6373C39.4057 41.9851 38.2839 41.7729 37.1098 41.7362C36.3261 41.7135 35.5679 41.8196 34.8663 42.1917C33.9609 42.6726 33.4333 43.411 33.3824 44.4522C33.3569 44.96 33.5493 45.3787 33.9468 45.6956C34.5041 46.1398 35.169 46.3378 35.8423 46.5047C37.0829 46.8145 38.3362 47.0805 39.5698 47.4185C40.601 47.7 41.5643 48.1414 42.372 48.8713C43.1996 49.6182 43.6126 50.5632 43.7612 51.6552C44.078 53.9723 42.7441 57.2442 39.1369 58.2472C36.0291 59.1101 33.074 58.6305 30.3014 57.0009C29.6083 56.5935 29.1811 55.9853 29.0014 55.2016C29 55.046 29 54.889 29 54.7291Z" fill="white"/>
<path fill-rule="evenodd" clip-rule="evenodd" d="M174.655 58.9986C174.09 58.9463 173.518 58.9194 172.955 58.8359C171.147 58.5686 169.461 57.9462 167.898 56.9998C167.836 56.963 167.765 56.8485 167.779 56.7862C167.981 55.8979 168.196 55.0123 168.41 54.1254C168.416 54.1013 168.438 54.0829 168.428 54.0957C169.286 54.496 170.12 54.9317 170.989 55.2783C172.515 55.888 174.105 56.1737 175.755 55.994C176.642 55.8964 177.47 55.6489 178.127 54.9855C178.851 54.2527 179.198 52.4491 178.267 51.5961C177.882 51.2411 177.415 50.9242 176.932 50.736C175.919 50.347 174.873 50.0443 173.836 49.7232C172.464 49.3002 171.191 48.7118 170.106 47.7414C167.481 45.3847 168.068 41.0377 171.098 39.3444C172.606 38.5013 174.235 38.2594 175.93 38.3698C177.719 38.4858 179.375 39.0657 180.966 39.8636C181.071 39.9173 181.158 39.9484 181.116 40.1097C180.899 40.9599 180.696 41.8129 180.488 42.6644C180.479 42.697 180.459 42.7281 180.45 42.7521C179.913 42.5003 179.393 42.2316 178.854 42.0081C177.533 41.462 176.166 41.1494 174.725 41.24C174.126 41.2796 173.545 41.3871 172.986 41.6219C171.347 42.308 171.231 44.6548 172.531 45.5601C173.159 45.9986 173.853 46.2815 174.575 46.5036C175.48 46.7809 176.401 47.0058 177.295 47.3128C178.526 47.7329 179.66 48.3355 180.608 49.2521C181.871 50.4758 182.274 51.9653 182.014 53.6755C181.601 56.3901 179.68 58.1414 177.032 58.7242C176.376 58.8685 175.695 58.8925 175.025 58.9717C174.955 58.9802 174.886 58.9901 174.818 59C174.762 58.9986 174.708 58.9986 174.655 58.9986Z" fill="white"/>
<path fill-rule="evenodd" clip-rule="evenodd" d="M165.32 53.8169C165.711 54.5285 166.096 55.2159 166.463 55.9119C166.493 55.9643 166.427 56.1043 166.366 56.1609C165.353 57.086 164.176 57.7367 162.884 58.1781C160.756 58.908 158.574 59.1895 156.356 58.7085C153.35 58.0564 151.169 56.2939 149.903 53.5142C148.409 50.2394 148.331 46.8826 149.901 43.6135C151.315 40.6726 153.702 38.8733 156.95 38.4263C159.573 38.0655 161.982 38.6908 163.974 40.5255C165.248 41.701 165.946 43.1863 166.175 44.9008C166.313 45.9419 166.175 46.9661 165.997 47.9888C165.984 48.0582 165.876 48.1275 165.796 48.1614C165.728 48.1911 165.641 48.1685 165.561 48.1685C161.241 48.1685 156.921 48.1685 152.6 48.1685C152.48 48.1685 152.36 48.1685 152.243 48.1685C152.026 51.3117 153.367 55.1113 157.867 55.8511C160.546 56.2896 162.893 55.5356 165.054 54.0093C165.131 53.9541 165.209 53.8961 165.32 53.8169ZM152.511 45.5374C155.987 45.5374 159.439 45.5374 162.89 45.5374C162.901 45.4992 162.908 45.4723 162.914 45.4483C162.918 45.4214 162.921 45.3959 162.921 45.3704C162.92 43.8866 162.324 42.7139 161.054 41.933C159.908 41.2271 158.641 41.0701 157.325 41.23C154.981 41.5157 153.195 43.0519 152.555 45.3224C152.537 45.3874 152.528 45.4553 152.511 45.5374Z" fill="white"/>
<path fill-rule="evenodd" clip-rule="evenodd" d="M116.183 36.9067C116.264 38.566 116.342 40.1985 116.417 41.7771C116.646 41.5734 116.892 41.3669 117.127 41.1491C118.919 39.4855 121.003 38.4783 123.465 38.3496C124.723 38.2845 125.954 38.4628 127.111 38.9876C128.955 39.8222 130.001 41.3146 130.544 43.2115C130.834 44.223 130.953 45.2598 130.956 46.3066C130.966 50.1967 130.96 54.0854 130.96 57.9769C130.96 58.0618 130.96 58.1467 130.96 58.2514C129.832 58.2514 128.731 58.2514 127.589 58.2514C127.589 58.141 127.589 58.0307 127.589 57.9204C127.589 54.1533 127.593 50.3863 127.585 46.6207C127.583 45.6616 127.484 44.711 127.126 43.8085C126.597 42.4689 125.604 41.6711 124.193 41.5225C121.312 41.2184 119.046 42.3656 117.34 44.6502C116.825 45.3419 116.633 46.1652 116.633 47.0337C116.637 50.6593 116.636 54.2877 116.636 57.9133C116.636 58.018 116.636 58.1212 116.636 58.2471C115.514 58.2471 114.405 58.2471 113.265 58.2471C113.265 58.1552 113.265 58.0618 113.265 57.9685C113.265 51.4982 113.265 45.0264 113.258 38.5533C113.258 38.3411 113.329 38.2619 113.517 38.177C114.354 37.7979 115.179 37.3919 116.008 36.9959C116.054 36.9718 116.1 36.9492 116.183 36.9067Z" fill="white"/>
<path fill-rule="evenodd" clip-rule="evenodd" d="M140.428 53.7633C140.921 52.5708 141.395 51.4307 141.868 50.2891C143.381 46.6268 144.898 42.9658 146.406 39.3021C146.479 39.1224 146.563 39.0474 146.766 39.0488C147.733 39.0602 148.697 39.0531 149.665 39.0545C149.741 39.0545 149.816 39.063 149.929 39.0715C149.669 39.6783 149.423 40.2569 149.174 40.8355C146.687 46.6183 144.2 52.3997 141.718 58.1839C141.643 58.3565 141.561 58.4371 141.356 58.4329C140.672 58.4187 139.985 58.4216 139.3 58.4315C139.133 58.4329 139.056 58.3763 138.99 58.2249C136.283 51.9173 133.57 45.6111 130.859 39.3049C130.83 39.2342 130.804 39.1592 130.765 39.0531C130.879 39.0531 130.966 39.0531 131.05 39.0531C132.042 39.0531 133.035 39.0588 134.027 39.0488C134.229 39.0474 134.317 39.1182 134.392 39.2964C136.356 44.0154 138.326 48.7303 140.295 53.4451C140.33 53.5356 140.367 53.6219 140.428 53.7633Z" fill="white"/>
<path fill-rule="evenodd" clip-rule="evenodd" d="M182.521 41.8282C182.521 40.8889 182.521 39.9892 182.521 39.0556C183.485 39.0556 184.435 39.0556 185.404 39.0556C185.404 37.3128 185.404 35.6026 185.404 33.8598C186.528 33.6406 187.638 33.4227 188.778 33.1992C188.778 35.1641 188.778 37.0922 188.778 39.0528C190.367 39.0528 191.933 39.0528 193.516 39.0528C193.516 39.985 193.516 40.8846 193.516 41.8126C191.945 41.8126 190.378 41.8126 188.78 41.8126C188.78 41.9329 188.78 42.0248 188.78 42.1182C188.78 45.6391 188.77 49.1614 188.789 52.6809C188.792 53.3174 188.864 53.9625 189.002 54.5821C189.208 55.5044 189.767 55.8905 190.715 55.8835C191.698 55.8736 192.593 55.5737 193.419 55.0503C193.513 54.9895 193.61 54.9329 193.728 54.8607C193.759 54.947 193.786 55.0078 193.806 55.0715C193.924 55.4662 194.04 55.8622 194.158 56.2569C194.349 56.902 194.353 56.9062 193.821 57.3377C192.248 58.6193 190.443 58.9503 188.498 58.5471C187.224 58.2826 186.427 57.431 185.973 56.2371C185.614 55.2908 185.491 54.302 185.437 53.3004C185.421 53.002 185.41 52.7035 185.41 52.405C185.407 48.9902 185.409 45.574 185.409 42.1592C185.409 42.0559 185.409 41.9527 185.409 41.8296C184.441 41.8282 183.496 41.8282 182.521 41.8282Z" fill="white"/>
<path fill-rule="evenodd" clip-rule="evenodd" d="M106.703 39.8536C107.827 39.6272 108.926 39.4066 110.04 39.1816C110.04 45.5388 110.04 51.8888 110.04 58.2545C108.926 58.2545 107.824 58.2545 106.703 58.2545C106.703 52.118 106.703 45.9872 106.703 39.8536Z" fill="white"/>
</svg>
