<svg width="217" height="38" viewBox="0 0 217 38" fill="none" xmlns="http://www.w3.org/2000/svg">
<path d="M3.00586 3.52448V13.8129H44.7879V3.52448H3.00586ZM3.00586 24.0228V34.3112H44.7879V24.0228H3.00586Z" fill="#727375"/>
<path d="M67.5642 3.52448C64.3065 3.52448 62.0729 4.31928 60.5744 5.48792C58.812 6.82934 58.0612 8.64199 58.0612 10.4358C58.0612 11.9814 58.567 13.3574 59.3178 14.4412C60.5273 16.1533 63.9955 18.0162 66.5432 19.3105C68.9622 20.52 71.2524 21.497 72.5906 23.0803C73.4671 24.1202 73.9258 25.182 73.9258 26.8502C73.9258 28.7288 73.0964 30.1644 71.8053 31.1697C70.5078 32.175 68.6983 32.7405 66.7789 32.7405C62.3556 32.7405 60.0278 31.4336 58.6895 26.3004L57.1973 26.6931C57.7439 28.5277 58.2308 30.309 58.6109 32.8976C61.0268 33.774 63.9641 34.3112 66.3862 34.3112C70.1026 34.3112 72.8828 33.2243 74.6326 31.641C76.2191 30.221 76.9888 28.3141 76.9888 26.1433C76.9888 24.0982 76.0589 22.1976 75.1824 21.1954C73.3854 19.1503 70.9791 18.1513 67.7213 16.4832C65.0919 15.148 63.4614 14.2276 62.3808 13.1846C61.5891 12.4338 60.9671 11.0547 60.9671 9.88602C60.9671 8.59172 61.4571 7.50162 62.4593 6.66598C63.6279 5.67012 65.3212 5.09523 67.4072 5.09523C72.3362 5.09523 73.2064 6.60943 74.0829 10.907L75.5751 10.5143C75.1981 8.63256 74.8021 6.41466 74.5541 4.70254C72.421 3.87318 70.2377 3.52448 67.5642 3.52448ZM127.253 4.07424V5.33084C130.379 5.33084 130.63 5.54446 130.63 8.55088V29.3634C130.63 32.3258 130.379 32.5049 127.253 32.5049V33.6829H140.84C145.181 33.6829 147.616 32.6745 149.243 31.0912C150.912 29.5047 151.6 27.4439 151.6 25.3579C151.6 23.0615 150.434 21.4185 148.929 20.253C147.135 18.8707 144.735 18.1388 142.018 18.0539V17.9755C144.647 17.5986 146.422 16.7441 147.673 15.6194C149.218 14.2403 149.715 12.4119 149.715 10.8286C149.715 8.69867 148.631 7.04624 147.044 5.95928C144.789 4.45135 142.323 4.07437 138.484 4.07437H127.253V4.07424ZM109.896 4.78108C108.055 4.78108 106.651 5.47221 105.655 6.43037C104.276 7.85033 103.613 9.77607 103.613 12.3207V14.9124H100.55V16.2476H103.613V29.8346C103.613 32.3855 103.393 32.6619 100.472 32.6619V33.6829H109.817V32.6619C106.685 32.6619 106.519 32.4202 106.519 29.9131V16.2476H111.781V14.9124H106.519V12.4778C106.519 9.51219 107.018 7.97913 107.854 6.98013C108.435 6.35183 109.06 6.03768 109.896 6.03768C111.19 6.03768 111.715 6.92358 112.174 7.84405C112.635 8.76451 113.063 9.65041 114.059 9.65041C114.816 9.65041 115.237 9.23259 115.237 8.39381C115.237 7.64299 114.64 6.59687 113.43 5.80207C112.588 5.25859 111.605 4.78108 109.896 4.78108ZM198.958 4.78108C197.415 5.73924 195.976 6.2136 193.931 6.50891V7.37282C196.187 7.37282 196.445 7.70268 196.445 10.1216V29.9131C196.445 32.3321 196.353 32.6619 193.931 32.6619V33.6829H201.707V32.6619C199.41 32.6619 199.35 32.3321 199.35 29.9131V25.515L201.628 23.1589L208.461 33.6829H213.252V32.6619C212.001 32.7029 211.031 32.5551 210.11 31.0912L203.749 21.4311L208.147 17.19C209.105 16.2696 209.768 15.9741 210.974 15.9334V14.9124H204.77V15.9334C206.777 15.9334 206.522 16.6183 205.398 17.6613L199.429 23.473H199.351V5.01669L198.958 4.7812L198.958 4.78108ZM134.95 5.72353H138.955C141.88 5.72353 143.749 6.33298 144.924 7.29428C145.838 8.0451 146.495 9.72267 146.495 11.1426C146.495 13.1438 145.816 14.6171 144.61 15.6193C143.102 16.8727 140.733 17.4256 137.855 17.4256H133.693V7.13721C133.693 6.00941 133.869 5.72353 134.95 5.72353ZM118.535 9.65041C117.995 14.0297 116.22 15.0538 113.587 15.3051V16.2476H116.729V29.9131C116.729 33.1709 118.686 34.1542 120.813 34.1542C122.522 34.1542 123.813 33.6201 124.897 32.6619L124.268 31.7195C123.43 32.3478 122.644 32.7405 121.677 32.7405C120.219 32.7405 119.635 31.7132 119.635 29.7561V16.2476H124.033V14.9124H119.635V9.65041H118.535ZM89.1621 14.4412C86.4887 14.4412 84.5064 15.2109 82.8791 16.7188C81.2109 18.343 80.3659 20.963 80.3659 24.2584C80.3659 28.0596 81.3303 30.5697 82.9576 32.1122C84.6289 33.573 86.6615 34.1542 89.1621 34.1542C91.7915 34.1542 93.777 33.5321 95.4451 32.0336C97.0347 30.488 98.0368 28.0188 98.0368 24.2584C98.0368 20.963 97.0755 18.4278 95.4451 16.7973C93.8178 15.2517 91.9549 14.4412 89.1621 14.4412ZM161.966 14.4412C159.758 14.4412 158.341 14.991 157.254 15.6193C155.916 16.4109 155.055 17.523 155.055 18.5252C155.055 19.1566 155.438 19.7818 156.233 19.7818C157.11 19.7818 157.518 19.3451 157.725 18.7608C158.106 17.8403 158.439 17.1335 158.982 16.7188C159.733 16.1282 160.556 15.7763 161.809 15.7763C163.189 15.7763 164.172 16.1973 164.794 17.033C165.34 17.7429 165.501 18.9807 165.501 19.9388V21.7452L163.066 22.295C160.393 22.8762 158.285 23.7683 156.862 24.7296C155.027 25.936 154.27 27.4439 154.27 29.3634C154.27 30.9498 154.917 32.1028 155.919 32.8976C157.006 33.774 158.429 34.1542 159.767 34.1542C162.523 34.1542 164.162 33.2148 165.579 31.8766H165.736C166.116 33.2494 167.031 33.9971 168.485 33.9971C169.575 33.9971 170.288 33.7802 170.998 33.4473L170.763 32.4263C170.43 32.6337 170.075 32.7405 169.663 32.7405C168.831 32.7405 168.407 31.9488 168.407 30.0702V20.253C168.407 18.4184 168.074 17.3031 166.993 16.0905C165.947 14.925 164.474 14.4412 161.967 14.4412H161.966ZM177.36 14.4412C175.981 15.4433 174.558 15.8769 172.726 16.169V17.1115C174.935 17.0705 175.161 17.3628 175.161 19.7818V29.9131C175.161 32.4202 174.975 32.6619 172.726 32.6619V33.6829H180.03V32.6619C178.067 32.6619 177.988 32.4202 177.988 29.9131V19.8603C179.659 17.5607 181.576 15.9334 183.329 15.9334C184.453 15.9334 185.217 16.257 185.763 16.7973C186.555 17.6361 186.706 18.9398 186.706 20.5671V29.9131C186.706 32.4202 186.593 32.6619 184.585 32.6619V33.6829H191.654V32.6619C189.775 32.6619 189.612 32.3289 189.612 29.9917V20.4101C189.612 18.2016 189.081 16.6968 188.12 15.7763C187.202 14.8999 185.908 14.4412 184.114 14.4412C181.818 14.4412 179.659 15.7701 177.988 17.8969H177.91L177.753 14.6768L177.36 14.4413L177.36 14.4412ZM89.0836 15.7763C90.8397 15.7763 92.2847 16.3324 93.246 17.5042C94.3707 18.965 94.9739 21.0415 94.9739 24.2584C94.9739 27.6387 94.2105 29.7529 93.1675 31.0912C92.2093 32.175 90.9151 32.8976 89.1621 32.8976C87.4091 32.8976 86.0331 32.175 85.0781 31.0912C84.0351 29.7529 83.3503 27.6387 83.3503 24.2584C83.3503 21.0415 83.9566 18.965 85.0781 17.5042C86.0771 16.3324 87.4154 15.7763 89.0836 15.7763ZM133.693 18.9964H138.876C142.294 18.9964 144.641 19.5933 146.102 20.7242C147.597 21.852 148.379 23.4416 148.379 25.2794C148.379 27.4533 147.732 29.0304 146.73 30.0702C145.31 31.5341 143.413 32.1122 140.447 32.1122H135.264C133.969 32.1122 133.693 31.82 133.693 30.0702V18.9964ZM165.501 23.0018V30.3843C164.455 31.4242 163.072 32.5834 161.024 32.5834C159.774 32.5834 158.825 32.153 158.197 31.5624C157.568 30.9404 157.333 30.0608 157.333 28.9707C157.333 27.0544 158.457 25.9171 160.082 25.0438C161.624 24.0856 163.704 23.5013 165.501 23.0018Z" fill="white"/>
</svg>
