<svg width="196" height="64" viewBox="0 0 196 64" fill="none" xmlns="http://www.w3.org/2000/svg">
<g clip-path="url(#clip0_317_1768)">
<path d="M20.6941 62.6003C17.7424 61.8194 14.8746 60.7499 12.1321 59.4079C11.8019 59.2642 11.4864 59.0888 11.1901 58.884L11.1801 58.8782C11.0921 58.8162 11.0061 58.751 10.9231 58.678C10.3568 58.1674 9.90397 57.5436 9.59406 56.8469L9.4881 56.6472C7.8991 53.5022 6.36906 49.9789 4.88806 46.5749L4.3681 45.3752C2.9101 42.0422 1.09309 37.8893 0.996094 34.5813C1.01749 32.727 1.4799 30.9046 2.34509 29.2644C3.23965 27.7059 4.37688 26.2999 5.71405 25.0994C7.77397 23.0624 10.0186 21.2212 12.4191 19.5994C12.8207 19.2648 13.2666 18.987 13.7441 18.7742L13.8031 18.74V18.7483L13.9031 18.7102C14.4224 18.5259 14.9713 18.4392 15.5221 18.4543C15.7221 18.4543 15.9221 18.454 16.1401 18.468L16.3781 18.4753C19.9411 18.6643 23.8061 19.0931 27.5461 19.5071L28.2601 19.5862C30.7691 16.7702 33.5441 13.9001 36.2551 11.1101L37.2101 10.1184C40.2601 6.9534 44.0591 3.01825 47.6931 1.39525C49.7587 0.575628 51.9906 0.26248 54.2021 0.482166C56.3429 0.773819 58.4236 1.40454 60.3661 2.35033C63.5816 3.72949 66.6557 5.41743 69.5451 7.39037C70.1143 7.70358 70.6325 8.10115 71.0821 8.57006C71.6725 9.26644 72.1118 10.0782 72.3721 10.9534L72.4721 11.2082C73.8891 15.2642 75.1801 19.7711 76.4311 24.1311L76.8311 25.5129C78.0571 29.7419 79.5811 35.0019 79.1811 38.9709C78.8651 41.1777 78.0276 43.2774 76.7381 45.0959C75.4255 46.8146 73.8485 48.3146 72.0661 49.5393C69.1209 51.8025 65.9572 53.7661 62.6221 55.4011C62.3881 55.5223 62.1478 55.631 61.9021 55.7263L61.8571 55.7444C61.614 55.837 61.3647 55.9122 61.1111 55.97C60.785 56.0417 60.452 56.078 60.1181 56.0774C59.5511 56.062 58.9863 55.998 58.4301 55.887L58.1401 55.8352C53.9401 55.0112 49.4191 53.8483 45.0401 52.7253L43.6291 52.3694C42.5561 52.0964 41.4151 51.807 40.2601 51.489L39.5381 52.489L38.8191 53.489C36.6891 56.446 34.0351 60.1254 31.2351 61.8894C29.6307 62.8105 27.8284 63.3325 25.9801 63.4114C25.8221 63.4204 25.6611 63.4211 25.5051 63.4211C23.8713 63.3698 22.2524 63.0937 20.6941 62.6003ZM20.9051 61.8201C22.5321 62.3457 24.2323 62.6093 25.9421 62.6003C27.6578 62.5279 29.3309 62.0435 30.8201 61.1882C33.4731 59.5212 36.0731 55.913 38.1651 53.012L38.8861 52.012C39.0694 51.7626 39.2521 51.5117 39.4341 51.259C36.4008 50.5212 33.5114 49.2843 30.8841 47.5984C28.7261 50.4464 26.3071 53.4483 23.5941 56.6453C22.7234 57.7655 21.61 58.6735 20.3375 59.301C19.0651 59.9286 17.6669 60.2594 16.2481 60.2683H16.0901C17.5711 60.8263 19.1941 61.3541 20.9011 61.8201H20.9051ZM13.8641 59.1394C14.8215 59.389 15.8133 59.4797 16.8001 59.4089C18.4991 59.2692 20.1114 58.6005 21.4101 57.4963C17.2101 50.7343 13.3741 42.1782 9.36609 30.6262C8.82919 29.2794 8.61109 27.8267 8.72888 26.3816C8.84667 24.9365 9.29718 23.5382 10.0451 22.2961C8.81211 23.3031 7.53708 24.4469 6.27808 25.6789C5.00132 26.8223 3.91445 28.1616 3.05811 29.6462C2.25302 31.1673 1.82239 32.8585 1.80206 34.5793C1.89406 37.7133 3.67406 41.7793 5.10706 45.0583L5.62805 46.2522C7.10305 49.6522 8.62805 53.1591 10.201 56.2751L10.3081 56.4753C10.5704 57.0766 10.9544 57.6169 11.4361 58.0622C11.6708 58.2527 11.926 58.4162 12.1971 58.55C12.5819 58.7271 12.9773 58.8801 13.3811 59.008C13.5481 59.057 13.7111 59.1014 13.8601 59.1394H13.8641ZM10.1251 30.3611C14.1101 41.8511 17.9191 50.3503 22.0891 57.0613C22.4036 56.7644 22.7014 56.4503 22.9811 56.1203C25.6961 52.9203 28.1141 49.92 30.2701 47.074C28.8113 45.768 27.6451 44.1685 26.8481 42.3801C26.033 40.3703 25.5423 38.244 25.3941 36.0803C25.1551 33.9353 25.0231 31.88 24.9941 29.969C20.8538 29.4688 16.6883 29.2064 12.5181 29.1824C11.6054 29.1824 10.6994 29.1979 9.80011 29.2292C9.88837 29.6114 9.9958 29.9887 10.1221 30.3601L10.1251 30.3611ZM43.8251 51.5862L45.2391 51.9451C49.6021 53.0701 54.1131 54.2252 58.2791 55.0452L58.5611 55.093C59.337 55.2815 60.1427 55.3137 60.9311 55.1872C61.2338 55.1182 61.5294 55.0211 61.8141 54.8972C63.2737 54.1634 64.5721 53.1454 65.6331 51.9031C65.8331 51.6571 66.0331 51.4033 66.2181 51.1413C67.45 49.3719 68.0809 47.2535 68.0181 45.0984C60.8898 44.2669 53.8423 42.8488 46.9471 40.8591L46.6191 40.7703L46.1601 40.6501V40.6321C43.3981 39.8547 40.5184 38.9824 37.5211 38.0144L37.5101 38.0329L36.7221 37.7654L36.7271 37.7571C35.605 37.3911 34.4657 37.0117 33.3091 36.6184C31.6863 36.1469 30.1907 35.3154 28.9334 34.1863C27.6761 33.0571 26.6896 31.6589 26.0471 30.0959L25.7871 30.0652C25.8311 31.9372 25.9701 33.9394 26.2001 35.9934C26.3392 38.0718 26.8077 40.1147 27.5881 42.0461C28.3294 43.711 29.4102 45.2027 30.7611 46.426L31.3691 46.947H31.3751C33.5381 48.534 36.7641 49.6594 39.9431 50.5564L40.7741 50.781C41.8111 51.076 42.8441 51.3382 43.8221 51.5862H43.8251ZM66.0781 52.6272C67.8471 51.5582 69.7121 50.2962 71.5781 48.8962C73.2933 47.7204 74.8121 46.2809 76.0781 44.6311C77.2908 42.9226 78.0792 40.95 78.3781 38.8762C78.7621 35.0762 77.2591 29.9034 76.0541 25.7434L75.6541 24.3591C74.4071 20.0081 73.1171 15.513 71.7131 11.49L71.6131 11.241C71.3872 10.4644 71.0043 9.74288 70.4881 9.12035C69.6925 8.36542 68.747 7.78603 67.7131 7.42015C66.5984 6.96377 65.4156 6.69581 64.2131 6.62719C63.9544 6.61185 63.6981 6.60672 63.4441 6.61205C61.6047 6.67771 59.8175 7.24022 58.2721 8.23998C62.2631 17.04 65.5221 27.913 68.5141 42.426C68.6474 43.0647 68.7386 43.7114 68.7871 44.362V44.4114C68.8051 44.678 68.8154 44.9381 68.8181 45.1921C68.8624 46.9512 68.4711 48.6941 67.6791 50.2654C67.2487 51.1187 66.7096 51.9125 66.0751 52.6272H66.0781ZM67.9781 44.28C67.9305 43.7125 67.8483 43.1485 67.7321 42.5911C64.7671 28.2061 61.5431 17.419 57.6011 8.69799C57.2304 8.96465 56.8638 9.25836 56.5011 9.57836C50.7701 14.6534 45.9281 19.3011 41.8071 23.6921C42.4926 24.349 43.0944 25.0881 43.5991 25.8923C44.5018 27.4463 45.1513 29.1341 45.5231 30.8923C46.2789 33.7668 46.7508 36.7083 46.9321 39.675C46.9451 39.792 46.9551 39.9053 46.9611 40.0173C53.8356 42.0107 60.8623 43.4362 67.9701 44.28H67.9781ZM46.1391 39.7912C46.0801 39.2936 45.9776 38.8018 45.8331 38.322C45.5647 37.3677 45.1414 36.4642 44.5801 35.6472C43.8576 34.6063 42.8978 33.7519 41.7801 33.155C41.4011 32.9521 41.0089 32.7753 40.6061 32.6252C39.8061 34.1562 38.9261 35.7133 37.9571 37.3113C40.7878 38.2246 43.5124 39.0512 46.1311 39.7912H46.1391ZM33.5651 35.8562C34.7831 36.2702 35.9831 36.6704 37.1651 37.0564C38.1398 35.4564 39.0281 33.8943 39.8301 32.3703C39.4967 32.2757 39.1494 32.1936 38.7881 32.1243C37.5214 31.8843 36.2818 31.659 35.0691 31.449C34.0371 32.745 33.0648 34.0262 32.1521 35.2922C32.6099 35.5058 33.0789 35.6943 33.5571 35.8572L33.5651 35.8562ZM45.7941 36.0564C45.5411 34.4854 45.1941 32.8104 44.7471 31.0984C44.3953 29.4195 43.7793 27.8068 42.9221 26.321C42.4533 25.5755 41.8956 24.8898 41.2611 24.279L41.2471 24.2942L40.7351 23.8064C40.28 23.4242 39.7947 23.0791 39.2841 22.7751C36.5331 21.2971 32.1341 20.8192 28.5931 20.4372H28.5771L27.6121 20.3313L27.4631 20.3142C23.7351 19.9012 19.8801 19.4744 16.3511 19.2854L16.1221 19.2781C15.4722 19.2023 14.8136 19.2708 14.1931 19.4783C13.7558 19.6533 13.3481 19.8943 12.9841 20.1931C12.8701 20.2851 12.7501 20.3864 12.6261 20.4934C12.4091 20.6884 12.2151 20.881 12.0501 21.052C11.3581 21.7605 10.786 22.5768 10.3561 23.469C9.63194 25.0169 9.40722 26.752 9.71307 28.4333C10.6397 28.3993 11.5751 28.3818 12.5191 28.3811C16.6869 28.4049 20.85 28.6662 24.9881 29.1633V29.156L25.4101 29.2131L25.7681 29.2551L25.7631 29.239L26.6541 29.3469L26.6601 29.364C29.2174 29.686 31.9094 30.0887 34.7361 30.572L34.7431 30.5632L35.6621 30.7092L35.6461 30.7292C36.7221 30.9172 37.8188 31.1173 38.9361 31.3293C39.3659 31.4097 39.7912 31.5124 40.2101 31.6379L40.3781 31.6951C41.523 32.0292 42.5905 32.5871 43.5187 33.3362C44.447 34.0852 45.2176 35.0108 45.7861 36.0593L45.7941 36.0564ZM27.1281 30.4763C28.0802 32.3545 29.6008 33.8846 31.4731 34.8484C32.3164 33.6737 33.2117 32.4873 34.1591 31.2893C31.6644 30.8686 29.2794 30.5113 27.0041 30.218C27.0388 30.3073 27.0774 30.3949 27.1201 30.4802L27.1281 30.4763ZM39.6801 22.071C40.2176 22.3904 40.7292 22.7516 41.2101 23.1511C45.3501 18.7371 50.2101 14.068 55.9731 8.96801C56.3833 8.60423 56.8133 8.26339 57.2611 7.94701V7.94115L57.5481 7.75121C57.6868 7.65921 57.8261 7.57043 57.9661 7.4851L57.9991 7.46508L58.0131 7.45726C59.7345 6.38253 61.7218 5.8094 63.7511 5.80297C64.5127 5.80281 65.2723 5.88097 66.0181 6.03539C64.2181 5.02339 62.1931 4.02403 60.0561 3.09203C58.1891 2.18242 56.1895 1.57506 54.1321 1.29222C52.0534 1.0796 49.9541 1.37259 48.0131 2.14623C44.5371 3.69323 40.8021 7.57031 37.8001 10.6843L36.8391 11.678C34.2761 14.324 31.6561 17.0369 29.2601 19.6999C32.7471 20.0789 36.9191 20.593 39.6721 22.074L39.6801 22.071ZM162.38 55.9631C161.896 55.4199 161.525 54.7849 161.29 54.0959C161.055 53.407 160.961 52.6784 161.013 51.9524C160.913 50.4732 161.365 49.0091 162.282 47.844C162.64 47.4343 163.084 47.1092 163.583 46.8918C164.082 46.6745 164.622 46.5705 165.166 46.5871C165.667 46.571 166.165 46.6667 166.624 46.8674C167.083 47.0681 167.492 47.3688 167.82 47.7473C168.612 48.791 169.003 50.0847 168.92 51.3923V52.22H162.754C162.702 53.1863 162.987 54.141 163.561 54.9202C163.797 55.1973 164.092 55.4177 164.424 55.5647C164.757 55.7117 165.119 55.7817 165.482 55.7693C165.928 55.7767 166.37 55.6812 166.774 55.4905C167.177 55.2997 167.532 55.0188 167.809 54.6692L168.733 55.613C168.33 56.0886 167.829 56.4727 167.266 56.739C166.702 57.0053 166.088 57.1475 165.464 57.157C164.894 57.1802 164.326 57.0869 163.794 56.8821C163.262 56.6772 162.777 56.3653 162.37 55.9661L162.38 55.9631ZM162.78 51.0632H167.241C167.241 50.2437 167.043 49.4362 166.665 48.7092C166.505 48.4615 166.281 48.2609 166.018 48.1287C165.754 47.9964 165.459 47.9374 165.165 47.9573C163.738 47.9593 162.94 48.9958 162.772 51.0671L162.78 51.0632ZM120.158 55.9631C119.674 55.4196 119.304 54.7848 119.07 54.0959C118.836 53.407 118.742 52.6782 118.794 51.9524C118.694 50.4731 119.146 49.0088 120.063 47.844C120.421 47.434 120.865 47.1087 121.364 46.8913C121.862 46.674 122.403 46.5701 122.947 46.5871C123.448 46.5709 123.946 46.6667 124.405 46.8674C124.864 47.0681 125.272 47.3687 125.6 47.7473C126.392 48.791 126.783 50.0847 126.7 51.3923V52.22H120.547C120.497 53.186 120.782 54.1399 121.354 54.9202C121.59 55.197 121.886 55.4172 122.219 55.5642C122.552 55.7112 122.913 55.7813 123.277 55.7693C123.723 55.7766 124.165 55.6812 124.569 55.4905C124.972 55.2997 125.326 55.0186 125.604 54.6692L126.527 55.613C126.124 56.0886 125.623 56.4727 125.06 56.739C124.496 57.0053 123.882 57.1475 123.258 57.157C122.686 57.1816 122.115 57.0889 121.581 56.884C121.046 56.6792 120.559 56.3666 120.15 55.9661L120.158 55.9631ZM120.558 51.0632H125.021C125.021 50.2433 124.822 49.4357 124.442 48.7092C124.282 48.461 124.059 48.26 123.795 48.1277C123.531 47.9954 123.237 47.9367 122.942 47.9573C121.517 47.9593 120.721 48.9958 120.554 51.0671L120.558 51.0632ZM190.518 56.7742C190.054 56.5594 189.605 56.3143 189.173 56.0403L189.942 54.8249C190.65 55.3855 191.519 55.7038 192.422 55.7322C193.677 55.7322 194.305 55.3076 194.306 54.4582C194.304 54.2142 194.246 53.9738 194.136 53.7561C194.026 53.5384 193.867 53.3493 193.671 53.2034C193.188 52.8557 192.674 52.554 192.134 52.303C191.502 52.0048 190.902 51.6418 190.345 51.22C190.047 50.9973 189.805 50.7098 189.635 50.3791C189.465 50.0485 189.373 49.6838 189.365 49.3122C189.35 48.9064 189.439 48.5033 189.624 48.1418C189.809 47.7804 190.085 47.4727 190.423 47.2483C191.104 46.7916 191.911 46.5614 192.73 46.5911C193.806 46.5956 194.862 46.8889 195.786 47.4402L195.151 48.6404C194.456 48.247 193.68 48.0156 192.883 47.9641C192.461 47.9482 192.042 48.0482 191.672 48.2532C191.495 48.3488 191.347 48.4914 191.245 48.6653C191.143 48.8392 191.091 49.0375 191.094 49.239C191.109 49.4558 191.174 49.6665 191.284 49.8537C191.394 50.041 191.547 50.1999 191.729 50.3181C191.922 50.4614 192.422 50.7576 193.229 51.2063C193.877 51.535 194.49 51.9292 195.057 52.383C195.35 52.6254 195.585 52.9289 195.748 53.2722C195.91 53.6155 195.996 53.9905 195.998 54.3703C196.016 54.7895 195.924 55.2059 195.731 55.5784C195.538 55.9509 195.251 56.2665 194.898 56.4934C194.176 56.9534 193.331 57.1817 192.476 57.1482C191.804 57.1551 191.137 57.0292 190.514 56.7781L190.518 56.7742ZM184.886 56.387C184.521 56.1002 184.23 55.7299 184.039 55.3069C183.847 54.8839 183.761 54.4209 183.786 53.9573V48.0354H182.401V46.762L183.786 46.781V44.407H185.419V46.762H187.342V48.0354H185.419V53.9763C185.411 54.2105 185.451 54.4438 185.536 54.6623C185.62 54.8809 185.748 55.0802 185.911 55.2483C186.103 55.4246 186.329 55.5598 186.575 55.6457C186.821 55.7317 187.082 55.7667 187.342 55.7483V57.1379C186.46 57.1804 185.591 56.9169 184.882 56.3913L184.886 56.387ZM139.513 56.387C139.149 56.0993 138.86 55.7284 138.67 55.3054C138.48 54.8825 138.394 54.4203 138.42 53.9573V48.0354H137.035V46.762L138.42 46.781V44.407H140.053V46.762H141.976V48.0354H140.053V53.9763C140.045 54.2106 140.084 54.4437 140.169 54.6623C140.254 54.8809 140.382 55.0804 140.545 55.2483C140.737 55.4248 140.963 55.5602 141.209 55.6462C141.455 55.7322 141.716 55.7669 141.976 55.7483V57.1379C141.092 57.181 140.221 56.9175 139.509 56.3913L139.513 56.387ZM130.055 56.7742C129.591 56.5594 129.142 56.3143 128.71 56.0403L129.479 54.8249C130.187 55.3855 131.057 55.7038 131.959 55.7322C133.214 55.7322 133.842 55.3076 133.843 54.4582C133.842 54.214 133.784 53.9734 133.673 53.7556C133.563 53.5378 133.403 53.3488 133.207 53.2034C132.725 52.8547 132.21 52.5529 131.67 52.303C131.039 52.005 130.44 51.642 129.884 51.22C129.586 50.9976 129.343 50.7103 129.172 50.3796C129.002 50.049 128.91 49.684 128.902 49.3122C128.886 48.9063 128.975 48.5029 129.161 48.1413C129.346 47.7798 129.621 47.4725 129.96 47.2483C130.64 46.7915 131.447 46.5613 132.266 46.5911C133.343 46.5953 134.399 46.8887 135.324 47.4402L134.689 48.6404C133.994 48.247 133.218 48.0156 132.421 47.9641C131.998 47.9483 131.579 48.0483 131.209 48.2532C131.032 48.3486 130.884 48.4913 130.783 48.6653C130.681 48.8393 130.63 49.0376 130.634 49.239C130.648 49.4559 130.713 49.6664 130.824 49.8537C130.934 50.0411 131.086 50.2002 131.269 50.3181C131.46 50.4614 131.96 50.7576 132.769 51.2063C133.417 51.5346 134.029 51.9288 134.595 52.383C134.888 52.6252 135.124 52.9289 135.287 53.2722C135.45 53.6155 135.536 53.9904 135.538 54.3703C135.556 54.7895 135.464 55.2059 135.271 55.5784C135.078 55.9509 134.791 56.2665 134.438 56.4934C133.716 56.9536 132.871 57.1819 132.015 57.1482C131.342 57.1554 130.675 57.0295 130.051 56.7781L130.055 56.7742ZM178.215 56.9841V50.426C178.26 49.8201 178.14 49.2136 177.868 48.6702C177.694 48.4386 177.462 48.2567 177.196 48.1418C176.93 48.027 176.638 47.9834 176.35 48.0154C175.824 48.0366 175.308 48.1695 174.837 48.4055C174.366 48.6415 173.95 48.975 173.618 49.384V56.9841H171.985V46.7839H173.618V47.7839C174.384 47.0338 175.412 46.6124 176.484 46.6091C177.315 46.5446 178.141 46.7836 178.809 47.282C179.198 47.7006 179.493 48.1982 179.672 48.741C179.852 49.2837 179.912 49.8588 179.849 50.427V56.9851L178.215 56.9841ZM156.586 56.9841V50.5603C156.586 48.8623 155.953 48.014 154.686 48.0154C154.193 48.0204 153.712 48.1667 153.299 48.4368C152.887 48.7069 152.561 49.0894 152.359 49.5393V56.9851H150.724V50.5613C150.724 48.8633 150.097 48.015 148.843 48.0163C148.368 48.0305 147.905 48.163 147.495 48.4021C147.084 48.6412 146.74 48.979 146.494 49.385V56.9851H144.862V46.7629H146.494V47.7839C146.825 47.4021 147.236 47.099 147.699 46.8957C148.161 46.6925 148.663 46.5946 149.168 46.6091C149.707 46.5817 150.243 46.6976 150.722 46.9446C151.202 47.1915 151.608 47.561 151.898 48.0154C152.259 47.5646 152.719 47.2031 153.243 46.9592C153.766 46.7153 154.339 46.5954 154.916 46.6091C155.758 46.5749 156.58 46.8727 157.205 47.4382C157.561 47.8108 157.836 48.2536 158.011 48.7385C158.186 49.2235 158.258 49.7398 158.222 50.2541V56.9851L156.586 56.9841ZM112.216 56.9841L108.678 46.762H110.427L112.715 53.762L113.023 55.0163H113.1L113.446 53.762L115.734 46.762H117.444L113.908 56.9841H112.216ZM104.833 56.9841V50.426C104.877 49.8203 104.758 49.2139 104.487 48.6702C104.312 48.4385 104.081 48.2562 103.814 48.1413C103.548 48.0265 103.256 47.9833 102.968 48.0154C102.442 48.0366 101.926 48.1694 101.456 48.4055C100.985 48.6416 100.57 48.975 100.238 49.384V56.9841H98.5941V46.7839H100.228V47.7839C100.993 47.034 102.021 46.6127 103.092 46.6091C103.924 46.5445 104.75 46.7835 105.419 47.282C105.808 47.7007 106.102 48.1987 106.281 48.7414C106.46 49.2842 106.52 49.859 106.457 50.427V56.9851L104.833 56.9841ZM91.7421 56.9841L91.7231 55.905H92.8741V43.0203H91.7231V41.9412H95.6821V43.0203H94.5241V55.907H95.6771V56.9861L91.7421 56.9841ZM46.5851 42.1721L46.5491 42.2444C46.5561 42.2204 46.5681 42.199 46.5801 42.176L46.5851 42.1721ZM145.359 37.094V16.6433H137.52V12.5281H157.927V16.6433H150.085V37.094H145.359ZM130.476 37.094V19.7644L123.557 32.0774H119.525L112.463 19.7644V37.094H108.093V12.5281H112.994L121.643 27.0012L130.111 12.5281H134.839V37.094H130.476ZM92.8531 37.094V16.6433H85.0141V12.5281H105.42V16.6433H97.5781V37.094H92.8531Z" fill="white"/>
</g>
<defs>
<clipPath id="clip0_317_1768">
<rect width="195.001" height="62.999" fill="white" transform="translate(0.992188 0.418335)"/>
</clipPath>
</defs>
</svg>
