<svg width="224" height="96" viewBox="0 0 224 96" fill="none" xmlns="http://www.w3.org/2000/svg">
<path fill-rule="evenodd" clip-rule="evenodd" d="M53 34H25V62H53V34ZM52.9994 51.2129H47.4912V56.7211H52.9994V51.2129Z" fill="#5C5C5C"/>
<path d="M65.1408 56.2623H69.9605L75.8405 39.8754H71.5349L68.129 50.0289C67.8077 50.9928 67.5828 52.503 67.5506 52.503H67.4864C67.4542 52.503 67.2293 50.9928 66.908 50.0289L63.5021 39.8754H59.1965L65.1408 56.2623Z" fill="white"/>
<path d="M78.236 48.0689C78.236 52.7279 81.6098 56.6479 87.0399 56.6479C91.1206 56.6479 93.6268 54.3023 93.6268 54.3023L92.0524 51.3784C92.0524 51.3784 89.9639 53.1777 87.3291 53.1777C84.8871 53.1777 82.6701 51.6997 82.413 48.84H93.7232C93.7232 48.84 93.8196 47.7475 93.8196 47.2656C93.8196 42.9279 91.2812 39.4898 86.558 39.4898C81.674 39.4898 78.236 43.0243 78.236 48.0689ZM82.5416 46.0446C82.9271 43.9239 84.373 42.6387 86.4616 42.6387C88.2609 42.6387 89.6425 43.8275 89.7068 46.0446H82.5416Z" fill="white"/>
<path d="M98.4693 56.2623H102.55V48.7436C102.55 47.9725 102.614 47.2334 102.839 46.5587C103.45 44.5987 105.056 43.2171 107.241 43.2171C109.33 43.2171 109.844 44.5666 109.844 46.5587V56.2623H113.892V45.7233C113.892 41.3856 111.836 39.4898 108.205 39.4898C104.896 39.4898 103.096 41.5141 102.389 42.8957H102.325C102.325 42.8957 102.389 42.3816 102.389 41.7711V39.8754H98.4693V56.2623Z" fill="white"/>
<path d="M120.167 50.2538C120.167 55.7482 124.697 56.423 126.979 56.423C127.75 56.423 128.232 56.3266 128.232 56.3266V52.76C128.232 52.76 127.943 52.8243 127.493 52.8243C126.368 52.8243 124.248 52.4387 124.248 49.7397V43.3777H127.975V40.1325H124.248V35.4092H120.263V40.1325H118.046V43.3777H120.167V50.2538Z" fill="white"/>
<path d="M132.632 50.4144C132.632 54.8807 134.817 56.6479 138.319 56.6479C141.115 56.6479 143.203 54.9449 144.007 53.242H144.071C144.071 53.242 144.007 53.7561 144.007 54.3987V56.2623H147.927V39.8754H143.846V47.3941C143.846 50.318 142.207 52.9207 139.251 52.9207C137.227 52.9207 136.713 51.5711 136.713 49.579V39.8754H132.632V50.4144Z" fill="white"/>
<path d="M153.722 56.2623H157.803V49.7718C157.803 48.8079 157.899 47.9082 158.156 47.1049C158.928 44.663 160.888 43.6669 162.623 43.6669C163.169 43.6669 163.587 43.7311 163.587 43.7311V39.7148C163.587 39.7148 163.233 39.6505 162.848 39.6505C160.341 39.6505 158.381 41.5141 157.642 43.8597H157.578C157.578 43.8597 157.642 43.3134 157.642 42.703V39.8754H153.722V56.2623Z" fill="white"/>
<path d="M166.465 48.0689C166.465 52.7279 169.839 56.6479 175.269 56.6479C179.349 56.6479 181.856 54.3023 181.856 54.3023L180.281 51.3784C180.281 51.3784 178.193 53.1777 175.558 53.1777C173.116 53.1777 170.899 51.6997 170.642 48.84H181.952C181.952 48.84 182.048 47.7475 182.048 47.2656C182.048 42.9279 179.51 39.4898 174.787 39.4898C169.903 39.4898 166.465 43.0243 166.465 48.0689ZM170.77 46.0446C171.156 43.9239 172.602 42.6387 174.69 42.6387C176.49 42.6387 177.871 43.8275 177.936 46.0446H170.77Z" fill="white"/>
<path d="M185.317 54.238C185.317 54.238 187.598 56.6479 191.679 56.6479C195.566 56.6479 197.944 54.463 197.944 51.7318C197.944 46.4623 189.976 46.7515 189.976 44.438C189.976 43.4098 191.004 42.96 192.064 42.96C194.57 42.96 196.08 44.3738 196.08 44.3738L197.591 41.3534C197.591 41.3534 195.791 39.4898 192.096 39.4898C188.562 39.4898 185.831 41.2571 185.831 44.3095C185.831 49.579 193.799 49.2577 193.799 51.6997C193.799 52.6636 192.803 53.1777 191.646 53.1777C188.979 53.1777 187.18 51.3784 187.18 51.3784L185.317 54.238Z" fill="white"/>
<path fill-rule="evenodd" clip-rule="evenodd" d="M64.6908 56.905L58.2803 39.2328H63.9648L67.5181 49.8257C67.5184 49.8265 67.5187 49.8274 67.5189 49.8282C67.5192 49.8274 67.5195 49.8265 67.5198 49.8257L67.5202 49.8245L71.0731 39.2328H76.7542L70.4131 56.905H64.6908ZM67.8481 51.0799C67.7824 51.3715 67.7258 51.6541 67.6799 51.8896C67.666 51.9609 67.6531 52.0279 67.6412 52.0896C67.5928 52.3411 67.5616 52.503 67.5511 52.503H67.4868C67.4763 52.503 67.4451 52.3411 67.3966 52.0895C67.3848 52.0279 67.3719 51.9609 67.358 51.8896C67.3121 51.6541 67.2555 51.3715 67.1898 51.0799C67.1087 50.7192 67.0137 50.3447 66.9085 50.0289L63.5026 39.8755H59.197L65.1412 56.2623H69.9609L75.8409 39.8755H71.5353L68.1294 50.0289C68.0242 50.3447 67.9292 50.7192 67.8481 51.0799ZM94.0664 54.7715L93.6273 54.3023L92.0528 51.3784C92.0528 51.3784 91.8653 51.54 91.5318 51.7662C90.7522 52.2951 89.1749 53.1777 87.3296 53.1777C85.0777 53.1777 83.017 51.9209 82.5083 49.4827C82.4654 49.2769 82.4335 49.0626 82.4135 48.84H93.7237L94.3638 48.8965L94.3121 49.4827H83.1668C83.3852 50.3946 83.8525 51.0893 84.4583 51.5832C85.2194 52.2038 86.2347 52.5351 87.3296 52.5351C88.5051 52.5351 89.5804 52.1318 90.379 51.7099C90.7751 51.5006 91.0943 51.2915 91.3127 51.136C91.4216 51.0585 91.5049 50.9947 91.5595 50.9515C91.5868 50.93 91.6068 50.9136 91.6193 50.9033C91.6255 50.8982 91.6298 50.8946 91.6322 50.8926L91.6334 50.8915L91.6337 50.8913L91.6339 50.8911L91.6342 50.8909L92.2394 50.3694L94.4277 54.4334L94.0664 54.7715ZM93.7237 48.84C93.7237 48.84 93.8201 47.7476 93.8201 47.2656C93.8201 42.9279 91.2817 39.4899 86.5584 39.4899C81.6745 39.4899 78.2364 43.0243 78.2364 48.0689C78.2364 52.7279 81.6102 56.6479 87.0404 56.6479C91.121 56.6479 93.6273 54.3023 93.6273 54.3023C94.0664 54.7715 94.0662 54.7717 94.066 54.7719L94.0655 54.7723L94.0644 54.7734L94.0615 54.776L94.053 54.7839C94.046 54.7902 94.0366 54.7987 94.0247 54.8093C94.001 54.8303 93.9675 54.8595 93.9245 54.8956C93.8384 54.9678 93.7139 55.0678 93.5529 55.1864C93.2311 55.4233 92.7615 55.7352 92.1587 56.0462C90.9536 56.668 89.2059 57.2905 87.0404 57.2905C81.2396 57.2905 77.5938 53.0669 77.5938 48.0689C77.5938 45.3979 78.5062 43.0868 80.1049 41.44C81.7048 39.792 83.956 38.8473 86.5584 38.8473C89.088 38.8473 91.0863 39.7743 92.4443 41.3282C93.7925 42.8709 94.4627 44.9762 94.4627 47.2656C94.4627 47.5332 94.4367 47.949 94.4128 48.2799C94.4006 48.4492 94.3883 48.603 94.3792 48.7145C94.3746 48.7702 94.3708 48.8155 94.3681 48.8469L94.3639 48.8955L94.3638 48.8962L94.3638 48.8965C94.3638 48.8966 94.3638 48.8965 93.7237 48.84ZM82.542 46.0446H89.7073C89.7007 45.8198 89.6807 45.6055 89.648 45.402C89.3585 43.5987 88.0789 42.6387 86.462 42.6387C84.5938 42.6387 83.2398 43.6672 82.6989 45.402C82.6351 45.6066 82.5827 45.821 82.542 46.0446ZM83.377 45.402H88.9958C88.8764 44.769 88.6157 44.2971 88.2825 43.9663C87.8417 43.5285 87.2179 43.2814 86.462 43.2814C85.5546 43.2814 84.8266 43.5579 84.2864 44.0302C83.8999 44.3681 83.587 44.826 83.377 45.402ZM97.8272 56.905V39.2328H103.032V40.9345C104.122 39.8278 105.805 38.8473 108.206 38.8473C110.127 38.8473 111.746 39.3505 112.876 40.5367C114 41.7171 114.535 43.4638 114.535 45.7233V56.905H109.202V46.5587C109.202 45.5886 109.07 44.9169 108.791 44.4965C108.551 44.1353 108.132 43.8597 107.242 43.8597C105.371 43.8597 103.99 45.0254 103.453 46.7498L103.451 46.7559L103.449 46.7619C103.256 47.3419 103.193 48.002 103.193 48.7437V56.905H97.8272ZM103.031 41.9037C103.976 40.711 105.635 39.4899 108.206 39.4899C111.836 39.4899 113.893 41.3856 113.893 45.7233V56.2623H109.844V46.5587C109.844 44.5666 109.33 43.2171 107.242 43.2171C105.057 43.2171 103.45 44.5987 102.84 46.5587C102.615 47.2335 102.55 47.9725 102.55 48.7437V56.2623H98.4698V39.8755H102.39V41.7712C102.39 41.9425 102.385 42.1063 102.377 42.2532C102.363 42.554 102.338 42.7843 102.329 42.8648C102.327 42.885 102.326 42.8958 102.326 42.8958H102.39C102.548 42.5872 102.76 42.2466 103.031 41.9037ZM128.875 56.8534L128.358 56.9567L128.232 56.3266V52.76C128.232 52.76 127.984 52.8152 127.59 52.8233C127.558 52.824 127.526 52.8243 127.493 52.8243C126.369 52.8243 124.248 52.4387 124.248 49.7397V43.3778H127.975V40.1325H124.248V35.4092H120.264V40.1325H118.047V43.3778H120.167V50.2538C120.167 55.7482 124.698 56.423 126.979 56.423C127.75 56.423 128.232 56.3266 128.232 56.3266C128.358 56.9567 128.358 56.9567 128.358 56.9567L128.358 56.9568L128.357 56.9569L128.354 56.9576L128.347 56.959L128.338 56.9607C128.333 56.9615 128.329 56.9623 128.324 56.9633C128.314 56.965 128.303 56.9669 128.29 56.9691C128.277 56.9714 128.262 56.9738 128.245 56.9764C128.179 56.9869 128.085 57.0003 127.966 57.0135C127.728 57.0399 127.391 57.0656 126.979 57.0656C125.796 57.0656 123.953 56.8945 122.386 55.949C120.766 54.9719 119.525 53.2157 119.525 50.2538V44.0204H117.404V39.4899H119.621V34.7666H124.891V39.4899H128.618V44.0204H124.891V49.7397C124.891 50.8895 125.325 51.4488 125.798 51.7545C126.318 52.0908 126.984 52.1817 127.493 52.1817C127.688 52.1817 127.846 52.1678 127.952 52.1545C128.005 52.1479 128.044 52.1415 128.068 52.1372C128.08 52.1351 128.089 52.1335 128.093 52.1327L128.093 52.1326L128.094 52.1326L128.094 52.1324L128.095 52.1322L128.096 52.132L128.875 51.9589V56.8534ZM132.633 50.4145C132.633 54.8807 134.818 56.6479 138.32 56.6479C140.549 56.6479 142.329 55.5651 143.365 54.263C143.629 53.9321 143.844 53.5871 144.007 53.242H144.071C144.071 53.242 144.07 53.2519 144.068 53.2707C144.059 53.3483 144.035 53.5771 144.02 53.8846C144.012 54.0392 144.007 54.2136 144.007 54.3987V56.2623H147.927V39.8755H143.846V47.3941C143.846 50.3181 142.208 52.9207 139.252 52.9207C137.227 52.9207 136.713 51.5712 136.713 49.5791V39.8755H132.633V50.4145ZM143.365 55.2258V56.905H148.57V39.2328H143.204V47.3941C143.204 48.7441 142.825 49.9802 142.148 50.8629C141.483 51.7299 140.518 52.2781 139.252 52.2781C138.401 52.2781 137.998 52.0082 137.762 51.6465C137.487 51.2238 137.356 50.5486 137.356 49.5791V39.2328H131.99V50.4145C131.99 52.7431 132.56 54.4928 133.705 55.6567C134.852 56.8226 136.468 57.2905 138.32 57.2905C140.432 57.2905 142.185 56.4039 143.365 55.2258ZM153.08 56.905V39.2328H158.285V41.2969C159.374 39.9349 160.958 39.0079 162.848 39.0079C163.074 39.0079 163.285 39.0266 163.437 39.0444C163.514 39.0535 163.578 39.0626 163.624 39.0696C163.646 39.0731 163.665 39.0761 163.678 39.0784L163.694 39.0811L163.699 39.082L163.701 39.0824L163.702 39.0825C163.702 39.0825 163.702 39.0825 163.587 39.7148C163.587 39.7148 163.234 39.6505 162.848 39.6505C160.883 39.6505 159.254 40.7963 158.285 42.4218C158.23 42.514 158.178 42.6078 158.127 42.703C157.932 43.0698 157.769 43.4577 157.643 43.8597H157.579C157.579 43.8597 157.579 43.853 157.581 43.8402C157.588 43.7718 157.613 43.5308 157.629 43.2171C157.637 43.0598 157.643 42.8842 157.643 42.703V39.8755H153.723V56.2623H157.803V49.7718C157.803 48.8079 157.9 47.9082 158.157 47.105C158.928 44.663 160.888 43.6669 162.623 43.6669C162.737 43.6669 162.845 43.6697 162.944 43.6741C163.325 43.6909 163.587 43.7312 163.587 43.7312V39.7148L163.702 39.0825L164.23 39.1785V44.4802L163.49 44.3665L163.49 44.3664L163.489 44.3664L163.479 44.3648C163.474 44.3642 163.469 44.3635 163.463 44.3626C163.454 44.3615 163.444 44.3602 163.433 44.3587C163.391 44.3535 163.329 44.3462 163.25 44.3389C163.092 44.3242 162.872 44.3096 162.623 44.3096C161.138 44.3096 159.447 45.1521 158.77 47.2985L158.769 47.3008C158.539 48.0188 158.446 48.8465 158.446 49.7718V56.905H153.08ZM182.657 54.4334L182.295 54.7715L181.856 54.3023L180.282 51.3784C180.282 51.3784 180.094 51.5399 179.761 51.7662C178.981 52.2951 177.404 53.1777 175.558 53.1777C173.307 53.1777 171.246 51.9209 170.737 49.4827C170.694 49.2769 170.662 49.0626 170.642 48.84H181.953L182.593 48.8965L182.541 49.4827H171.396C171.614 50.3946 172.081 51.0893 172.687 51.5832C173.448 52.2038 174.464 52.5351 175.558 52.5351C176.734 52.5351 177.809 52.1318 178.608 51.7099C179.004 51.5006 179.323 51.2915 179.542 51.136C179.651 51.0585 179.734 50.9947 179.788 50.9515C179.816 50.93 179.836 50.9136 179.848 50.9033C179.854 50.8982 179.859 50.8946 179.861 50.8926L179.862 50.8915L179.863 50.8913L179.863 50.8911L179.863 50.8909L180.468 50.3694L182.657 54.4334ZM181.953 48.84C181.953 48.84 182.049 47.7476 182.049 47.2656C182.049 42.9279 179.511 39.4899 174.787 39.4899C169.903 39.4899 166.465 43.0243 166.465 48.0689C166.465 52.7279 169.839 56.6479 175.269 56.6479C179.35 56.6479 181.856 54.3023 181.856 54.3023C182.295 54.7715 182.295 54.7717 182.295 54.7719L182.294 54.7723L182.293 54.7734L182.29 54.776L182.282 54.7839C182.275 54.7902 182.265 54.7987 182.254 54.8093C182.23 54.8303 182.196 54.8595 182.153 54.8956C182.067 54.9678 181.943 55.0678 181.782 55.1864C181.46 55.4233 180.99 55.7352 180.388 56.0462C179.182 56.668 177.435 57.2905 175.269 57.2905C169.469 57.2905 165.823 53.0669 165.823 48.0689C165.823 45.3979 166.735 43.0868 168.334 41.44C169.934 39.792 172.185 38.8473 174.787 38.8473C177.317 38.8473 179.315 39.7743 180.673 41.3282C182.021 42.8709 182.692 44.9762 182.692 47.2656C182.692 47.5332 182.666 47.949 182.642 48.2799C182.629 48.4492 182.617 48.603 182.608 48.7145C182.603 48.7702 182.6 48.8155 182.597 48.8469L182.593 48.8955L182.593 48.8962C182.593 48.8963 182.593 48.8965 181.953 48.84ZM170.771 46.0446H177.936C177.93 45.8198 177.91 45.6055 177.877 45.402C177.587 43.5987 176.308 42.6387 174.691 42.6387C172.823 42.6387 171.469 43.6672 170.928 45.402C170.864 45.6066 170.812 45.821 170.771 46.0446ZM171.606 45.402H177.225C177.105 44.769 176.845 44.2971 176.511 43.9663C176.071 43.5285 175.447 43.2814 174.691 43.2814C173.783 43.2814 173.056 43.5579 172.515 44.0302C172.129 44.3681 171.816 44.826 171.606 45.402ZM184.502 54.3118L187.075 50.3638L187.634 50.9227L187.634 50.923L187.634 50.9234L187.635 50.9237C187.636 50.9253 187.64 50.9287 187.645 50.9334C187.655 50.9429 187.671 50.9584 187.694 50.9791C187.74 51.0205 187.811 51.0825 187.905 51.1582C188.095 51.31 188.376 51.5152 188.734 51.7208C189.453 52.1338 190.459 52.5351 191.647 52.5351C192.142 52.5351 192.551 52.4234 192.813 52.2571C193.057 52.1032 193.157 51.922 193.157 51.6997C193.157 51.4962 193.002 51.2197 192.254 50.8237C191.91 50.6416 191.499 50.4644 191.033 50.2716C190.925 50.2268 190.813 50.1811 190.699 50.1345C190.333 49.9843 189.943 49.8244 189.555 49.6524C187.554 48.7647 185.188 47.3752 185.188 44.3096C185.188 42.5665 185.979 41.1737 187.259 40.2365C188.521 39.3126 190.231 38.8473 192.097 38.8473C194.057 38.8473 195.53 39.3424 196.522 39.8494C197.017 40.1024 197.391 40.3574 197.645 40.5535C197.772 40.6516 197.869 40.7351 197.937 40.7965C197.971 40.8272 197.998 40.8524 198.017 40.8711C198.027 40.8805 198.035 40.8883 198.041 40.8943L198.048 40.9021L198.051 40.9049L198.052 40.9061L198.053 40.9066C198.053 40.9069 198.053 40.9071 197.591 41.3535C197.591 41.3535 195.792 39.4899 192.097 39.4899C188.562 39.4899 185.831 41.2571 185.831 44.3096C185.831 47.4448 188.652 48.6009 190.937 49.5374C192.492 50.1749 193.8 50.7107 193.8 51.6997C193.8 52.6637 192.804 53.1777 191.647 53.1777C189.811 53.1777 188.387 52.3253 187.677 51.7939C187.355 51.5532 187.181 51.3784 187.181 51.3784L185.317 54.2381L184.85 54.6799L184.502 54.3118ZM195.558 43.9822C194.915 43.5638 193.702 42.96 192.065 42.96C191.004 42.96 189.976 43.4099 189.976 44.4381C189.976 45.3601 191.242 45.8687 192.764 46.4805C195.062 47.4039 197.945 48.5624 197.945 51.7318C197.945 54.463 195.567 56.6479 191.679 56.6479C187.598 56.6479 185.317 54.2381 185.317 54.2381C184.85 54.6799 184.851 54.6801 184.851 54.6803L184.851 54.6808L184.852 54.6819L184.855 54.6849L184.863 54.6934C184.87 54.7001 184.879 54.7092 184.89 54.7203C184.912 54.7424 184.943 54.773 184.984 54.8106C185.064 54.886 185.18 54.99 185.332 55.1131C185.634 55.359 186.077 55.6822 186.655 56.0043C187.811 56.6488 189.508 57.2905 191.679 57.2905C195.798 57.2905 198.587 54.9303 198.587 51.7318C198.587 48.6667 196.224 47.2692 194.219 46.3881C193.804 46.2059 193.388 46.0387 193 45.8827C192.911 45.847 192.824 45.8119 192.738 45.7773C192.27 45.5884 191.859 45.4162 191.513 45.2401C191.162 45.0614 190.924 44.9003 190.779 44.7513C190.646 44.6145 190.619 44.5189 190.619 44.4381C190.619 44.1804 190.73 44.0028 190.961 43.86C191.218 43.7009 191.612 43.6027 192.065 43.6027C193.194 43.6027 194.098 43.9211 194.72 44.239C195.031 44.398 195.269 44.5558 195.426 44.6711C195.504 44.7287 195.562 44.7754 195.599 44.8059C195.617 44.8211 195.63 44.8323 195.637 44.8387L195.641 44.8424L195.642 44.8429L195.642 44.8433L195.642 44.8436L195.643 44.8441L195.644 44.8446L196.271 45.4316L198.369 41.2342L198.053 40.9071L197.591 41.3535L196.081 44.3738C196.081 44.3738 195.9 44.204 195.558 43.9822Z" fill="white"/>
<path fill-rule="evenodd" clip-rule="evenodd" d="M42.342 56.7214V55.0423C41.162 56.2204 39.4094 57.107 37.2974 57.107C35.4456 57.107 33.8295 56.6391 32.6823 55.4732C31.5371 54.3093 30.9675 52.5596 30.9675 50.2309V39.2329H36.3334V49.5791C36.3334 50.5487 36.4645 51.2239 36.7395 51.6465C36.9749 52.0083 37.3785 52.2782 38.2292 52.2782C39.4957 52.2782 40.4603 51.73 41.1251 50.8629C41.8019 49.9803 42.1813 48.7442 42.1813 47.3942V39.2329H47.5472V56.7214H42.342Z" fill="white"/>
<rect x="53" y="51.2129" width="5.5082" height="5.5082" fill="white"/>
</svg>
