<svg width="224" height="96" viewBox="0 0 224 96" fill="none" xmlns="http://www.w3.org/2000/svg">
<g clip-path="url(#clip0_1466_269)">
<path fill-rule="evenodd" clip-rule="evenodd" d="M116.09 38.8763C118.199 38.8914 120.292 39.2213 122.36 39.6488L123.01 39.7867V42.476C120.104 41.3367 116.927 40.8234 113.707 41.1936C112.287 41.3569 110.468 41.8247 110.688 42.8967C110.895 43.8964 112.742 44.1606 113.975 44.4551C116.807 45.1333 119.818 45.3049 122.391 46.7152C123.88 47.5314 124.929 49.3321 123.99 50.9764C122.708 53.2247 119.409 53.5142 116.836 53.61C114.145 53.7111 111.444 53.4451 108.819 52.7653L108.618 52.7114L108.093 52.5684V49.7512C111.171 51.2254 114.771 51.7673 118.532 51.2792C119.878 51.1059 121.85 50.8231 121.658 49.4332C121.481 48.1407 118.998 47.8007 117.07 47.4018C114.638 46.9003 112.089 46.6631 109.934 45.5018C108.841 44.9128 107.932 43.861 108.006 42.614C108.061 41.6833 108.615 40.8301 109.398 40.2865C111.296 38.9655 113.827 38.8695 116.09 38.8763ZM171.771 53.3728H169.141V39.1153C172.062 39.1153 174.982 39.1102 177.902 39.1153C180.44 39.1287 183.304 39.2482 184.695 41.2677C185.892 43.0011 185.358 45.7358 183.349 46.8162C182.91 47.0518 182.439 47.2184 181.959 47.348L181.854 47.3766L187.592 53.3728H184.136L178.939 47.7569C178.848 47.7603 171.771 47.7671 171.771 47.7671V53.3728ZM207.099 53.3728H204.469V47.486L196.04 39.1153H199.437C199.966 39.642 200.521 40.1956 201.091 40.7612L204.557 44.2111C205.126 44.7765 205.682 45.3302 206.21 45.857C205.902 45.5507 206.277 44.9583 206.486 44.7412L212.119 39.1153H215.53L207.099 47.486V53.3728ZM93.5951 53.3728H90.9648V39.1153H93.5951V53.3728ZM69.4657 53.3728H66.6165L57.8132 39.1153H60.824C63.2423 43.0347 66.078 47.6257 68.4963 51.5452C68.2237 51.1026 68.5586 50.1231 68.8632 49.6098L75.3424 39.1153H78.3446L69.4657 53.3728ZM156.73 53.3728H153.739L151.142 49.3573C150.745 49.7074 150.223 49.9195 149.653 49.9195H141.144L139.893 51.8514L138.909 53.3728H135.917L145.143 39.1153H147.506L156.73 53.3728ZM150.046 47.6627L146.329 41.9106C145.764 42.7857 144.171 45.2444 142.606 47.6627H150.046ZM178.693 41.3855H171.787V45.4817H178.693C182.022 45.4817 182.646 44.5695 182.671 43.4352V43.4319C182.646 42.2976 182.022 41.3855 178.693 41.3855Z" fill="white"/>
<path fill-rule="evenodd" clip-rule="evenodd" d="M41.7938 45.364C41.7938 45.364 27.0415 69.1603 26.5266 69.9916C26.5248 69.9967 26.5181 69.9983 26.5131 70C26.508 70 26.5013 69.9967 26.498 69.9916C25.9543 69.1888 10.4902 46.3587 10.4902 46.3587C10.4902 46.3587 10.8419 46.3452 11.1078 46.3368C11.2929 46.33 11.4663 46.4193 11.5706 46.5707C12.9573 48.6187 22.6155 62.8763 24.4465 65.579C24.4515 65.5874 24.4617 65.5891 24.4701 65.5841C24.4785 65.579 24.4801 65.569 24.4768 65.5606C22.7417 62.5902 13.2098 46.2627 13.2098 46.2627C13.2098 46.2627 13.5177 46.2509 13.7685 46.2425C13.9654 46.2358 14.1505 46.3368 14.2498 46.5067C15.3672 48.4202 21.9424 59.6821 23.3577 62.1089C23.3627 62.1173 23.3745 62.1207 23.3829 62.1156C23.3913 62.1123 23.3947 62.1005 23.3896 62.0921C22.0484 59.3944 15.4783 46.1819 15.4783 46.1819C15.4783 46.1819 15.7476 46.1719 15.9832 46.1635C16.1935 46.1567 16.3888 46.2728 16.4813 46.4613C17.3329 48.1711 21.466 56.4847 22.5061 58.5748C22.5095 58.5832 22.5195 58.5866 22.5297 58.5832C22.5381 58.5781 22.5414 58.5681 22.5381 58.5597C21.5536 56.1935 17.3581 46.1163 17.3581 46.1163C17.3581 46.1163 17.5937 46.1079 17.8142 46.0995C18.0363 46.0911 18.2416 46.2223 18.3275 46.4293C18.9198 47.853 21.1934 53.3141 21.8919 54.9902C21.8952 54.9986 21.9053 55.0037 21.9137 55.0003C21.9238 54.997 21.9272 54.9869 21.9255 54.9767C21.2608 53.0229 18.8946 46.0608 18.8946 46.0608C18.8946 46.0608 19.1016 46.054 19.3069 46.0473C19.5425 46.0389 19.7563 46.1852 19.832 46.4091C20.3671 47.9877 22.4119 54.0024 22.5566 54.4299C22.5583 54.4365 22.5633 54.4399 22.5684 54.4416C22.5751 54.4433 22.5801 54.4416 22.5852 54.4383C23.0177 54.0562 30.675 47.3011 32.2687 45.8958C32.4554 45.7309 32.6944 45.6366 32.9434 45.6282C33.2918 45.6182 33.7513 45.6047 33.7513 45.6047C33.7513 45.6047 23.9366 54.7125 22.5414 56.0067C22.4438 56.0993 22.4119 56.2423 22.464 56.3652C22.6474 56.8044 23.0632 57.8058 23.1322 57.9723C23.1355 57.9774 23.1389 57.9807 23.1456 57.9824C23.1506 57.9824 23.1557 57.9807 23.1608 57.9774C23.637 57.496 33.4466 47.6006 35.207 45.8252C35.3786 45.6501 35.6126 45.5492 35.8582 45.5424C36.1258 45.534 36.4371 45.5239 36.4371 45.5239C36.4371 45.5239 24.7056 57.9723 23.223 59.5458C23.1305 59.6434 23.1086 59.7881 23.1692 59.9094C23.3812 60.3351 23.8642 61.3045 23.9433 61.4661C23.9466 61.471 23.9517 61.4745 23.9568 61.4761C23.9618 61.4761 23.9685 61.4745 23.9719 61.4694C24.4666 60.8989 35.8044 47.816 37.59 45.7545C37.7398 45.5811 37.9569 45.4784 38.1857 45.4718C38.391 45.465 38.6064 45.46 38.6064 45.46C38.6064 45.46 25.6447 61.2019 24.1385 63.0311C24.0544 63.1338 24.0426 63.2802 24.1099 63.3964C24.3489 63.8069 24.8959 64.7427 24.9867 64.8992C24.9901 64.9042 24.9951 64.9058 25.0001 64.9076C25.0069 64.9076 25.0119 64.9042 25.0154 64.9009C25.51 64.2445 37.8272 47.944 39.5353 45.6838C39.6582 45.5205 39.85 45.4229 40.0538 45.4162C40.212 45.4111 40.3667 45.4061 40.3667 45.4061C40.3667 45.4061 26.7672 64.3809 25.2863 66.4457C25.2088 66.5551 25.2055 66.7015 25.2812 66.8126C25.5487 67.2065 26.1563 68.1051 26.2573 68.2532C26.2606 68.2583 26.2657 68.2616 26.2708 68.2616C26.2774 68.2616 26.2825 68.2583 26.2859 68.2532C26.7638 67.5211 39.3771 48.193 41.0332 45.6552C41.1459 45.4835 41.3344 45.3775 41.5397 45.3708C41.671 45.3674 41.7938 45.364 41.7938 45.364ZM43.4801 41.8905C43.682 41.8805 43.8739 41.9848 43.9732 42.1615C44.2122 42.5873 44.6295 43.3311 44.6295 43.3311L9.43837 45.4045L8.4707 43.6963L11.6177 43.5347L10.7207 41.9965C10.7207 41.9965 11.0708 42.0084 11.3384 42.0168C11.5218 42.0235 11.6901 42.1228 11.7827 42.2826C12.0284 42.7017 12.4878 43.4893 12.4878 43.4893L14.0983 43.4068L13.4403 42.0841C13.4403 42.0841 13.7483 42.0925 13.999 42.1009C14.1959 42.1076 14.3743 42.2221 14.4618 42.397C14.6453 42.7674 14.9415 43.3631 14.9415 43.3631L16.1851 43.2991L15.7089 42.1547C15.7089 42.1547 15.9781 42.1631 16.2137 42.1715C16.4241 42.1783 16.6109 42.3062 16.6917 42.5014C16.8229 42.8178 17.0064 43.2554 17.0064 43.2554L17.9252 43.2082L17.5887 42.2153C17.5887 42.2153 17.8243 42.222 18.0447 42.2288C18.2669 42.2372 18.4621 42.3802 18.5345 42.5923C18.6236 42.8548 18.7297 43.1679 18.7297 43.1679C18.7297 43.1679 40.5216 42.0436 43.4801 41.8905ZM8.87797 39.2063L12.0334 39.2551L11.2408 37.6614C11.2408 37.6614 11.5908 37.6967 11.8567 37.7219C12.0401 37.7405 12.2017 37.8516 12.2825 38.0164C12.4996 38.4524 12.9051 39.2686 12.9051 39.2686L14.5174 39.2939L13.9486 37.929C13.9486 37.929 14.2565 37.9593 14.5056 37.9845C14.7025 38.0047 14.8725 38.1293 14.9482 38.311C15.1064 38.6931 15.3622 39.3056 15.3622 39.3056L16.6059 39.3258L16.2087 38.1528C16.2087 38.1528 16.4763 38.1797 16.7119 38.2033C16.9205 38.2235 17.0973 38.3649 17.1663 38.5634C17.2756 38.8883 17.4288 39.3375 17.4288 39.3375C17.4288 39.3375 41.0668 39.7028 44.1314 39.7499C44.3299 39.7533 44.5117 39.8694 44.5975 40.0494C44.8062 40.4886 45.1748 41.2629 45.1748 41.2629L9.73456 40.9767L8.87797 39.2063ZM9.57805 34.7533L12.7352 35.0125L12.0519 33.37C12.0519 33.37 12.3969 33.4289 12.6611 33.4727C12.8429 33.5029 12.996 33.6241 13.0667 33.7941C13.2535 34.2434 13.6036 35.0849 13.6036 35.0849L15.2107 35.2178L14.7345 33.8193C14.7345 33.8193 15.0391 33.8698 15.2865 33.9119C15.4817 33.9439 15.6415 34.0802 15.7055 34.267C15.8384 34.6574 16.0522 35.2868 16.0522 35.2868C16.0522 35.2868 41.1459 37.3585 44.6935 37.6513C44.9476 37.6732 45.168 37.8347 45.264 38.072C45.4508 38.5315 45.7369 39.2383 45.7369 39.2383L10.3269 36.5776L9.57805 34.7533ZM10.5861 30.3576L13.7197 30.8288L13.1458 29.1426C13.1458 29.1426 13.4874 29.225 13.7483 29.2856C13.9267 29.3277 14.0731 29.4606 14.132 29.634C14.2885 30.0951 14.5813 30.9584 14.5813 30.9584C14.5813 30.9584 41.8443 35.063 45.4306 35.6032C45.6679 35.6386 45.8665 35.8052 45.9405 36.034C46.0953 36.5019 46.3427 37.249 46.3427 37.249L11.2105 32.2273L10.5861 30.3576ZM46.4554 33.6342L46.8846 35.2616L12.3851 27.946L11.8836 26.0376L46.4554 33.6342Z" fill="white"/>
</g>
<defs>
<clipPath id="clip0_1466_269">
<rect width="207.059" height="44" fill="white" transform="translate(8.4707 26)"/>
</clipPath>
</defs>
</svg>
